{
.appVersion = "1163";
DisplayStrings = (
"nnnz/Placeholder nnn\012ooozzooo\012lllllz/Placeholder llllll",
"nnn R/Placeholder nn\012ooo Rðoo\012llllll R/Placeholder llll"
);
classes = (
{
automatic = 1;

glyphs = (
{
glyphname = A;
lastChange = "2018-08-22 12:32:02 +0000";
layers = (
{
anchors = (
{
name = bottom;
position = "{229, 0}";
},
{
name = ogonek;
position = "{498, 0}";
},
{
name = top;
position = "{364, 587}";
}
);
background = {
paths = (
{
closed = 1;
nodes = (
"129 0 LINE",
"139 38 LINE",
"81 52 LINE",
"166 201 LINE",
"184 231 LINE",
"348 516 LINE",
"322 503 LINE",
"373 231 LINE",
"378 200 LINE",
"404 52 LINE",
"340 38 LINE",
"334 0 LINE",
"535 0 LINE",
"545 38 LINE",
"498 52 LINE",
"397 605 LINE",
"332 570 LINE",
"17 52 LINE",
"-36 38 LINE",
"-42 0 LINE"
);
},
{
closed = 1;
nodes = (
"187 186 OFFCURVE",
"230 187 OFFCURVE",
"270 187 CURVE SMOOTH",
"311 187 OFFCURVE",
"356 186 OFFCURVE",
"402 185 CURVE",
"413 238 LINE",
"389 237 OFFCURVE",
"344 235 OFFCURVE",
"281 235 CURVE SMOOTH",
"218 235 OFFCURVE",
"173 237 OFFCURVE",
"148 238 CURVE",
"137 185 LINE"
);
}
);
};
layerId = "720C727D-0ED9-429E-914E-55EB9E513E33";
paths = (
{
closed = 1;
nodes = (
"129 0 LINE",
"139 38 LINE",
"81 52 LINE",
"166 201 LINE",
"184 231 LINE",
"348 516 LINE",
"323 503 LINE",
"373 231 LINE",
"378 200 LINE",
"404 52 LINE",
"340 38 LINE",
"334 0 LINE",
"535 0 LINE",
"545 38 LINE",
"498 52 LINE",
"397 605 LINE",
"332 570 LINE",
"17 52 LINE",
"-36 38 LINE",
"-42 0 LINE"
);
},
{
closed = 1;
nodes = (
"187 186 OFFCURVE",
"230 187 OFFCURVE",
"270 187 CURVE SMOOTH",
"311 187 OFFCURVE",
"356 186 OFFCURVE",
"402 185 CURVE",
"413 238 LINE",
"389 237 OFFCURVE",
"344 235 OFFCURVE",
"281 235 CURVE SMOOTH",
"218 235 OFFCURVE",
"173 237 OFFCURVE",
"148 238 CURVE",
"137 185 LINE"
);
}
);
width = 583;
},
{
anchors = (
{
name = bottom;
position = "{222, 0}";
},
{
name = ogonek;
position = "{521, 0}";
},
{
name = top;
position = "{370, 587}";
}
);
background = {
paths = (
{
closed = 1;
nodes = (
"153 0 LINE",
"166 50 LINE",
"106 67 LINE",
"181 202 LINE",
"198 232 LINE",
"328 455 LINE",
"299 464 LINE",
"349 229 LINE",
"353 194 LINE",
"379 67 LINE",
"311 50 LINE",
"304 0 LINE",
"575 0 LINE",
"588 50 LINE",
"540 67 LINE",
"423 605 LINE",
"329 557 LINE",
"22 67 LINE",
"-34 50 LINE",
"-41 0 LINE"
);
},
{
closed = 1;
nodes = (
"179 170 OFFCURVE",
"210 172 OFFCURVE",
"262 172 CURVE SMOOTH",
"313 172 OFFCURVE",
"346 170 OFFCURVE",
"369 170 CURVE",
"383 238 LINE",
"359 237 OFFCURVE",
"326 234 OFFCURVE",
"275 234 CURVE SMOOTH",
"223 234 OFFCURVE",
"194 237 OFFCURVE",
"169 238 CURVE",
"155 169 LINE"
);
}
);
};
layerId = "DEDDD934-E4FE-4A27-B966-8C21F8A9BC34";
paths = (
{
closed = 1;
nodes = (
"149 0 LINE",
"163 50 LINE",
"103 67 LINE",
"181 202 LINE",
"197 232 LINE",
"325 455 LINE",
"296 464 LINE",
"349 229 LINE",
"354 194 LINE",
"379 67 LINE",
"311 50 LINE",
"303 0 LINE",
"567 0 LINE",
"581 50 LINE",
"533 67 LINE",
"416 605 LINE",
"322 557 LINE",
"15 67 LINE",
"-41 50 LINE",
"-49 0 LINE"
);
},
{
closed = 1;
nodes = (
"179 170 OFFCURVE",
"210 172 OFFCURVE",
"262 172 CURVE SMOOTH",
"313 172 OFFCURVE",
"346 170 OFFCURVE",
"369 170 CURVE",
"383 238 LINE",
"359 237 OFFCURVE",
"326 234 OFFCURVE",
"275 234 CURVE SMOOTH",
"223 234 OFFCURVE",
"194 237 OFFCURVE",
"169 238 CURVE",
"155 169 LINE"
);
}
);
width = 609;
}
);
leftKerningGroup = A;
note = A;
rightKerningGroup = A;
unicode = 0041;
},
{
glyphname = Aogonek;
lastChange = "2018-08-22 12:32:02 +0000";
layers = (
{
anchors = (
{
name = top;
position = "{364, 587}";
}
);
background = {
paths = (
{
closed = 1;
nodes = (
"129 0 LINE",
"139 38 LINE",
"81 52 LINE",
"166 201 LINE",
"184 231 LINE",
"348 516 LINE",
"322 503 LINE",
"373 231 LINE",
"378 200 LINE",
"404 52 LINE",
"340 38 LINE",
"334 0 LINE",
"535 0 LINE",
"545 38 LINE",
"498 52 LINE",
"397 605 LINE",
"332 570 LINE",
"17 52 LINE",
"-36 38 LINE",
"-42 0 LINE"
);
},
{
closed = 1;
nodes = (
"187 186 OFFCURVE",
"230 187 OFFCURVE",
"270 187 CURVE SMOOTH",
"311 187 OFFCURVE",
"356 186 OFFCURVE",
"402 185 CURVE",
"413 238 LINE",
"389 237 OFFCURVE",
"344 235 OFFCURVE",
"281 235 CURVE SMOOTH",
"218 235 OFFCURVE",
"173 237 OFFCURVE",
"148 238 CURVE",
"137 185 LINE"
);
},
{
closed = 1;
nodes = (
"441 -223 OFFCURVE",
"482 -205 OFFCURVE",
"514 -173 CURVE",
"498 -146 LINE",
"472 -169 OFFCURVE",
"447 -181 OFFCURVE",
"423 -181 CURVE SMOOTH",
"392 -181 OFFCURVE",
"374 -165 OFFCURVE",
"374 -136 CURVE SMOOTH",
"374 -85 OFFCURVE",
"432 -33 OFFCURVE",
"497 0 CURVE",
"493 19 LINE",
"380 -20 OFFCURVE",
"302 -80 OFFCURVE",
"302 -147 CURVE SMOOTH",
"302 -190 OFFCURVE",
"336 -223 OFFCURVE",
"401 -223 CURVE SMOOTH"
);
}
);
};
layerId = "720C727D-0ED9-429E-914E-55EB9E513E33";
paths = (
{
closed = 1;
nodes = (
"187 186 OFFCURVE",
"230 187 OFFCURVE",
"270 187 CURVE SMOOTH",
"311 187 OFFCURVE",
"356 186 OFFCURVE",
"402 185 CURVE",
"413 238 LINE",
"389 237 OFFCURVE",
"344 235 OFFCURVE",
"281 235 CURVE SMOOTH",
"218 235 OFFCURVE",
"173 237 OFFCURVE",
"148 238 CURVE",
"137 185 LINE"
);
},
{
closed = 1;
nodes = (
"545 38 LINE",
"498 52 LINE",
"397 605 LINE",
"332 570 LINE",
"17 52 LINE",
"-36 38 LINE",
"-42 0 LINE",
"129 0 LINE",
"139 38 LINE",
"81 52 LINE",
"166 201 LINE",
"184 231 LINE",
"348 516 LINE",
"323 503 LINE",
"373 231 LINE",
"378 200 LINE",
"404 52 LINE",
"340 38 LINE",
"334 0 LINE",
"491 0 LINE",
"493 19 LINE",
"380 -20 OFFCURVE",
"302 -80 OFFCURVE",
"302 -147 CURVE SMOOTH",
"302 -190 OFFCURVE",
"336 -223 OFFCURVE",
"401 -223 CURVE SMOOTH",
"441 -223 OFFCURVE",
"482 -205 OFFCURVE",
"514 -173 CURVE",
"498 -146 LINE",
"472 -169 OFFCURVE",
"447 -181 OFFCURVE",
"423 -181 CURVE SMOOTH",
"392 -181 OFFCURVE",
"374 -165 OFFCURVE",
"374 -136 CURVE SMOOTH",
"374 -85 OFFCURVE",
"425 -35 OFFCURVE",
"535 0 CURVE"
);
}
);
width = 583;
},
{
anchors = (
{
name = top;
position = "{370, 587}";
}
);
background = {
paths = (
{
closed = 1;
nodes = (
"149 0 LINE",
"163 50 LINE",
"103 67 LINE",
"181 202 LINE",
"197 232 LINE",
"325 455 LINE",
"298 464 LINE",
"349 229 LINE",
"354 194 LINE",
"379 67 LINE",
"311 50 LINE",
"303 0 LINE",
"567 0 LINE",
"581 50 LINE",
"533 67 LINE",
"416 605 LINE",
"322 557 LINE",
"15 67 LINE",
"-41 50 LINE",
"-49 0 LINE"
);
},
{
closed = 1;
nodes = (
"172 170 OFFCURVE",
"203 172 OFFCURVE",
"255 172 CURVE SMOOTH",
"306 172 OFFCURVE",
"339 170 OFFCURVE",
"362 170 CURVE",
"376 238 LINE",
"352 237 OFFCURVE",
"319 234 OFFCURVE",
"268 234 CURVE SMOOTH",
"216 234 OFFCURVE",
"187 237 OFFCURVE",
"162 238 CURVE",
"148 169 LINE"
);
},
{
closed = 1;
nodes = (
"471 -223 OFFCURVE",
"512 -205 OFFCURVE",
"544 -173 CURVE",
"525 -134 LINE",
"500 -157 OFFCURVE",
"474 -168 OFFCURVE",
"452 -168 CURVE SMOOTH",
"427 -168 OFFCURVE",
"407 -154 OFFCURVE",
"407 -125 CURVE SMOOTH",
"407 -85 OFFCURVE",
"446 -30 OFFCURVE",
"567 0 CURVE",
"477 11 LINE",
"399 -9 OFFCURVE",
"308 -71 OFFCURVE",
"308 -137 CURVE SMOOTH",
"308 -189 OFFCURVE",
"359 -223 OFFCURVE",
"424 -223 CURVE SMOOTH"
);
}
);
};
layerId = "DEDDD934-E4FE-4A27-B966-8C21F8A9BC34";
paths = (
{
closed = 1;
nodes = (
"179 170 OFFCURVE",
"210 172 OFFCURVE",
"262 172 CURVE SMOOTH",
"313 172 OFFCURVE",
"346 170 OFFCURVE",
"369 170 CURVE",
"383 238 LINE",
"359 237 OFFCURVE",
"326 234 OFFCURVE",
"275 234 CURVE SMOOTH",
"223 234 OFFCURVE",
"194 237 OFFCURVE",
"169 238 CURVE",
"155 169 LINE"
);
},
{
closed = 1;
nodes = (
"581 50 LINE",
"533 67 LINE",
"416 605 LINE",
"322 557 LINE",
"15 67 LINE",
"-41 50 LINE",
"-49 0 LINE",
"149 0 LINE",
"163 50 LINE",
"103 67 LINE",
"181 202 LINE",
"197 232 LINE",
"325 455 LINE",
"296 464 LINE",
"349 229 LINE",
"354 194 LINE",
"379 67 LINE",
"311 50 LINE",
"303 0 LINE",
"488 0 LINE",
"477 11 LINE",
"390 -11 OFFCURVE",
"308 -72 OFFCURVE",
"308 -137 CURVE SMOOTH",
"308 -189 OFFCURVE",
"359 -223 OFFCURVE",
"424 -223 CURVE SMOOTH",
"471 -223 OFFCURVE",
"512 -205 OFFCURVE",
"544 -173 CURVE",
"525 -134 LINE",
"500 -157 OFFCURVE",
"474 -168 OFFCURVE",
"452 -168 CURVE SMOOTH",
"427 -168 OFFCURVE",
"407 -154 OFFCURVE",
"407 -125 CURVE SMOOTH",
"407 -85 OFFCURVE",
"455 -30 OFFCURVE",
"567 0 CURVE"
);
}
);
width = 609;
}
);
leftKerningGroup = A;
leftMetricsKey = A;
widthMetricsKey = A;
note = Aogonek;
rightKerningGroup = A;
unicode = 0104;
},
{
glyphname = AE;
lastChange = "2018-08-22 12:32:02 +0000";
layers = (
{
anchors = (
{
name = bottom;
position = "{370, 0}";
},
{
name = top;
position = "{494, 587}";
}
);
background = {
paths = (
{
closed = 1;
nodes = (
"664 205 LINE",
"705 399 LINE",
"662 399 LINE",
"635 330 LINE",
"626 328 OFFCURVE",
"610 327 OFFCURVE",
"588 327 CURVE SMOOTH",
"523 327 LINE SMOOTH",
"505 327 OFFCURVE",
"488 328 OFFCURVE",
"466 329 CURVE",
"454 275 LINE",
"477 276 OFFCURVE",
"495 277 OFFCURVE",
"513 277 CURVE SMOOTH",
"579 277 LINE SMOOTH",
"601 277 OFFCURVE",
"616 276 OFFCURVE",
"624 274 CURVE",
"621 205 LINE"
);
},
{
closed = 1;
nodes = (
"190 182 OFFCURVE",
"227 182 OFFCURVE",
"280 182 CURVE SMOOTH",
"350 182 OFFCURVE",
"373 182 OFFCURVE",
"391 180 CURVE",
"402 234 LINE",
"381 232 OFFCURVE",
"344 231 OFFCURVE",
"291 231 CURVE SMOOTH",
"239 231 OFFCURVE",
"204 232 OFFCURVE",
"183 234 CURVE",
"160 180 LINE"
);
},
{
closed = 1;
nodes = (
"645 55 LINE",
"633 52 OFFCURVE",
"616 51 OFFCURVE",
"573 51 CURVE SMOOTH",
"488 51 LINE SMOOTH",
"451 51 OFFCURVE",
"441 51 OFFCURVE",
"424 53 CURVE",
"426 66 OFFCURVE",
"444 157 OFFCURVE",
"452 197 CURVE SMOOTH",
"492 385 LINE SMOOTH",
"502 432 OFFCURVE",
"524 527 OFFCURVE",
"527 536 CURVE",
"545 538 OFFCURVE",
"568 539 OFFCURVE",
"588 539 CURVE SMOOTH",
"692 539 LINE SMOOTH",
"707 539 OFFCURVE",
"720 538 OFFCURVE",
"729 536 CURVE",
"741 452 LINE",
"788 457 LINE",
"799 591 LINE",
"766 588 OFFCURVE",
"734 587 OFFCURVE",
"698 587 CURVE SMOOTH",
"370 587 LINE",
"360 549 LINE",
"447 535 LINE",
"444 570 LINE",
"3 52 LINE",
"-51 38 LINE",
"-57 0 LINE",
"118 0 LINE",
"128 38 LINE",
"70 52 LINE",
"470 539 LINE",
"437 520 LINE",
"360 159 LINE SMOOTH",
"347 97 OFFCURVE",
"340 69 OFFCURVE",
"336 52 CURVE",
"272 38 LINE",
"266 0 LINE",
"601 0 LINE SMOOTH",
"627 0 OFFCURVE",
"650 -1 OFFCURVE",
"694 -5 CURVE",
"760 141 LINE",
"712 150 LINE"
);
}
);
};
layerId = "720C727D-0ED9-429E-914E-55EB9E513E33";
paths = (
{
closed = 1;
nodes = (
"760 141 LINE",
"712 150 LINE",
"645 55 LINE",
"633 52 OFFCURVE",
"616 51 OFFCURVE",
"573 51 CURVE SMOOTH",
"488 51 LINE SMOOTH",
"451 51 OFFCURVE",
"441 51 OFFCURVE",
"424 53 CURVE",
"426 66 OFFCURVE",
"444 157 OFFCURVE",
"452 197 CURVE SMOOTH",
"492 385 LINE SMOOTH",
"502 432 OFFCURVE",
"524 527 OFFCURVE",
"527 536 CURVE",
"545 538 OFFCURVE",
"568 539 OFFCURVE",
"588 539 CURVE SMOOTH",
"692 539 LINE SMOOTH",
"707 539 OFFCURVE",
"720 538 OFFCURVE",
"729 536 CURVE",
"741 452 LINE",
"788 457 LINE",
"799 591 LINE",
"766 588 OFFCURVE",
"734 587 OFFCURVE",
"698 587 CURVE SMOOTH",
"370 587 LINE",
"360 549 LINE",
"447 535 LINE",
"444 570 LINE",
"3 52 LINE",
"-51 38 LINE",
"-57 0 LINE",
"123 0 LINE",
"133 38 LINE",
"75 52 LINE",
"475 539 LINE",
"437 520 LINE",
"360 159 LINE SMOOTH",
"347 97 OFFCURVE",
"340 69 OFFCURVE",
"336 52 CURVE",
"272 38 LINE",
"266 0 LINE",
"601 0 LINE SMOOTH",
"627 0 OFFCURVE",
"650 -1 OFFCURVE",
"694 -5 CURVE"
);
},
{
closed = 1;
nodes = (
"190 182 OFFCURVE",
"227 182 OFFCURVE",
"280 182 CURVE SMOOTH",
"350 182 OFFCURVE",
"373 182 OFFCURVE",
"391 180 CURVE",
"402 234 LINE",
"381 232 OFFCURVE",
"344 231 OFFCURVE",
"291 231 CURVE SMOOTH",
"239 231 OFFCURVE",
"204 232 OFFCURVE",
"183 234 CURVE",
"160 180 LINE"
);
},
{
closed = 1;
nodes = (
"664 205 LINE",
"705 399 LINE",
"662 399 LINE",
"635 330 LINE",
"626 328 OFFCURVE",
"610 327 OFFCURVE",
"588 327 CURVE SMOOTH",
"523 327 LINE SMOOTH",
"505 327 OFFCURVE",
"488 328 OFFCURVE",
"466 329 CURVE",
"454 275 LINE",
"477 276 OFFCURVE",
"495 277 OFFCURVE",
"513 277 CURVE SMOOTH",
"579 277 LINE SMOOTH",
"601 277 OFFCURVE",
"616 276 OFFCURVE",
"624 274 CURVE",
"621 205 LINE"
);
}
);
width = 807;
},
{
anchors = (
{
name = bottom;
position = "{388, 0}";
},
{
name = top;
position = "{512, 587}";
}
);
background = {
paths = (
{
closed = 1;
nodes = (
"804 157 LINE",
"744 168 LINE",
"673 68 LINE",
"656 64 OFFCURVE",
"652 64 OFFCURVE",
"602 64 CURVE SMOOTH",
"558 64 LINE SMOOTH",
"524 64 OFFCURVE",
"501 66 OFFCURVE",
"472 68 CURVE",
"474 86 OFFCURVE",
"487 154 OFFCURVE",
"497 200 CURVE SMOOTH",
"537 388 LINE SMOOTH",
"547 435 OFFCURVE",
"564 509 OFFCURVE",
"569 525 CURVE",
"585 527 OFFCURVE",
"610 528 OFFCURVE",
"635 528 CURVE SMOOTH",
"699 528 LINE SMOOTH",
"715 528 OFFCURVE",
"727 527 OFFCURVE",
"744 524 CURVE",
"758 437 LINE",
"819 443 LINE",
"828 592 LINE",
"792 591 OFFCURVE",
"714 587 OFFCURVE",
"672 587 CURVE SMOOTH",
"356 587 LINE",
"343 536 LINE",
"434 520 LINE",
"433 559 LINE",
"-3 67 LINE",
"-61 51 LINE",
"-69 0 LINE",
"123 0 LINE",
"137 51 LINE",
"78 67 LINE",
"463 513 LINE",
"425 502 LINE",
"359 190 LINE SMOOTH",
"348 137 OFFCURVE",
"339 95 OFFCURVE",
"331 67 CURVE",
"265 50 LINE",
"258 0 LINE",
"591 0 LINE SMOOTH",
"633 0 OFFCURVE",
"695 -4 OFFCURVE",
"729 -6 CURVE"
);
},
{
closed = 1;
nodes = (
"164 163 OFFCURVE",
"200 164 OFFCURVE",
"253 164 CURVE SMOOTH",
"287 164 OFFCURVE",
"318 163 OFFCURVE",
"367 162 CURVE",
"382 230 LINE",
"348 227 OFFCURVE",
"313 226 OFFCURVE",
"266 226 CURVE SMOOTH",
"210 226 OFFCURVE",
"200 228 OFFCURVE",
"175 230 CURVE",
"140 161 LINE"
);
},
{
closed = 1;
nodes = (
"696 199 LINE",
"739 402 LINE",
"682 402 LINE",
"658 336 LINE",
"649 336 OFFCURVE",
"627 334 OFFCURVE",
"601 334 CURVE SMOOTH",
"560 334 LINE SMOOTH",
"536 334 OFFCURVE",
"515 336 OFFCURVE",
"504 337 CURVE",
"489 266 LINE",
"500 267 OFFCURVE",
"522 269 OFFCURVE",
"546 269 CURVE SMOOTH",
"587 269 LINE SMOOTH",
"613 269 OFFCURVE",
"634 267 OFFCURVE",
"643 267 CURVE",
"639 199 LINE"
);
}
);
};
layerId = "DEDDD934-E4FE-4A27-B966-8C21F8A9BC34";
paths = (
{
closed = 1;
nodes = (
"804 157 LINE",
"744 168 LINE",
"673 68 LINE",
"656 64 OFFCURVE",
"652 64 OFFCURVE",
"602 64 CURVE SMOOTH",
"558 64 LINE SMOOTH",
"524 64 OFFCURVE",
"501 66 OFFCURVE",
"472 68 CURVE",
"474 86 OFFCURVE",
"487 154 OFFCURVE",
"497 200 CURVE SMOOTH",
"537 388 LINE SMOOTH",
"547 435 OFFCURVE",
"564 509 OFFCURVE",
"569 525 CURVE",
"585 527 OFFCURVE",
"610 528 OFFCURVE",
"635 528 CURVE SMOOTH",
"699 528 LINE SMOOTH",
"715 528 OFFCURVE",
"727 527 OFFCURVE",
"744 524 CURVE",
"758 437 LINE",
"819 443 LINE",
"828 592 LINE",
"792 591 OFFCURVE",
"714 587 OFFCURVE",
"672 587 CURVE SMOOTH",
"350 587 LINE",
"337 536 LINE",
"428 520 LINE",
"427 559 LINE",
"-9 67 LINE",
"-67 51 LINE",
"-75 0 LINE",
"128 0 LINE",
"142 51 LINE",
"83 67 LINE",
"466 513 LINE",
"425 502 LINE",
"359 190 LINE SMOOTH",
"348 137 OFFCURVE",
"339 95 OFFCURVE",
"331 67 CURVE",
"265 50 LINE",
"258 0 LINE",
"591 0 LINE SMOOTH",
"633 0 OFFCURVE",
"695 -4 OFFCURVE",
"729 -6 CURVE"
);
},
{
closed = 1;
nodes = (
"164 163 OFFCURVE",
"200 164 OFFCURVE",
"253 164 CURVE SMOOTH",
"287 164 OFFCURVE",
"318 163 OFFCURVE",
"367 162 CURVE",
"382 230 LINE",
"348 227 OFFCURVE",
"313 226 OFFCURVE",
"266 226 CURVE SMOOTH",
"210 226 OFFCURVE",
"200 228 OFFCURVE",
"175 230 CURVE",
"140 161 LINE"
);
},
{
closed = 1;
nodes = (
"696 199 LINE",
"739 402 LINE",
"682 402 LINE",
"658 336 LINE",
"649 336 OFFCURVE",
"627 334 OFFCURVE",
"601 334 CURVE SMOOTH",
"560 334 LINE SMOOTH",
"536 334 OFFCURVE",
"515 336 OFFCURVE",
"504 337 CURVE",
"489 266 LINE",
"500 267 OFFCURVE",
"522 269 OFFCURVE",
"546 269 CURVE SMOOTH",
"587 269 LINE SMOOTH",
"613 269 OFFCURVE",
"634 267 OFFCURVE",
"643 267 CURVE",
"639 199 LINE"
);
}
);
width = 834;
}
);
leftKerningGroup = AE;
note = AE;
rightKerningGroup = E;
unicode = 00C6;
},
{
glyphname = B;
lastChange = "2018-08-22 12:32:02 +0000";
layers = (
{
anchors = (
{
name = bottom;
position = "{234, 0}";
},
{
name = top;
position = "{358, 587}";
}
);
background = {
anchors = (
{
name = bottom;
position = "{534, 0}";
},
{
name = top;
position = "{658, 587}";
}
);
paths = (
{
closed = 1;
nodes = (
"7 38 LINE",
"1 0 LINE",
"221 0 LINE SMOOTH",
"374 0 OFFCURVE",
"483 65 OFFCURVE",
"506 169 CURVE SMOOTH",
"526 260 OFFCURVE",
"466 313 OFFCURVE",
"340 317 CURVE",
"350 310 LINE",
"443 317 OFFCURVE",
"519 373 OFFCURVE",
"534 446 CURVE SMOOTH",
"553 537 OFFCURVE",
"494 587 OFFCURVE",
"365 587 CURVE SMOOTH",
"125 587 LINE",
"115 548 LINE",
"174 538 LINE",
"177 530 OFFCURVE",
"168 474 OFFCURVE",
"150 387 CURVE SMOOTH",
"110 199 LINE SMOOTH",
"93 119 OFFCURVE",
"78 62 OFFCURVE",
"71 52 CURVE"
);
},
{
closed = 1;
nodes = (
"239 413 LINE SMOOTH",
"252 475 OFFCURVE",
"266 533 OFFCURVE",
"269 543 CURVE",
"336 543 LINE SMOOTH",
"418 543 OFFCURVE",
"456 505 OFFCURVE",
"441 436 CURVE SMOOTH",
"426 365 OFFCURVE",
"368 325 OFFCURVE",
"281 325 CURVE SMOOTH",
"253 325 OFFCURVE",
"233 326 OFFCURVE",
"208 327 CURVE",
"197 276 LINE",
"213 278 OFFCURVE",
"225 278 OFFCURVE",
"276 278 CURVE SMOOTH",
"383 278 OFFCURVE",
"429 238 OFFCURVE",
"412 159 CURVE SMOOTH",
"396 83 OFFCURVE",
"337 46 OFFCURVE",
"234 46 CURVE SMOOTH",
"216 46 OFFCURVE",
"181 50 OFFCURVE",
"166 53 CURVE",
"166 65 OFFCURVE",
"177 118 OFFCURVE",
"189 177 CURVE SMOOTH"
);
}
);
};
layerId = "720C727D-0ED9-429E-914E-55EB9E513E33";
paths = (
{
closed = 1;
nodes = (
"11 38 LINE",
"5 0 LINE",
"234 0 LINE SMOOTH",
"400 0 OFFCURVE",
"507 83 OFFCURVE",
"507 193 CURVE SMOOTH",
"507 264 OFFCURVE",
"449 311 OFFCURVE",
"351 316 CURVE",
"361 308 LINE",
"461 317 OFFCURVE",
"536 391 OFFCURVE",
"536 472 CURVE SMOOTH",
"536 549 OFFCURVE",
"470 587 OFFCURVE",
"356 587 CURVE SMOOTH",
"128 587 LINE",
"118 549 LINE",
"176 535 LINE",
"175 517 OFFCURVE",
"168 475 OFFCURVE",
"149 385 CURVE SMOOTH",
"109 197 LINE SMOOTH",
"90 109 OFFCURVE",
"81 71 OFFCURVE",
"75 52 CURVE"
);
},
{
closed = 1;
nodes = (
"239 413 LINE SMOOTH",
"253 475 OFFCURVE",
"266 533 OFFCURVE",
"269 543 CURVE",
"333 543 LINE SMOOTH",
"408 543 OFFCURVE",
"445 515 OFFCURVE",
"445 458 CURVE SMOOTH",
"445 380 OFFCURVE",
"386 325 OFFCURVE",
"286 325 CURVE SMOOTH",
"253 325 OFFCURVE",
"233 326 OFFCURVE",
"208 327 CURVE",
"197 276 LINE",
"213 278 OFFCURVE",
"225 278 OFFCURVE",
"276 278 CURVE SMOOTH",
"371 278 OFFCURVE",
"416 246 OFFCURVE",
"416 180 CURVE SMOOTH",
"416 96 OFFCURVE",
"359 46 OFFCURVE",
"241 46 CURVE SMOOTH",
"216 46 OFFCURVE",
"181 50 OFFCURVE",
"166 53 CURVE",
"166 65 OFFCURVE",
"177 118 OFFCURVE",
"189 177 CURVE SMOOTH"
);
}
);
width = 564;
},
{
anchors = (
{
name = bottom;
position = "{260, 0}";
},
{
name = top;
position = "{384, 587}";
}
);
background = {
anchors = (
{
name = bottom;
position = "{860, 0}";
},
{
name = top;
position = "{984, 587}";
}
);
paths = (
{
closed = 1;
nodes = (
"-3 50 LINE",
"-10 0 LINE",
"255 0 LINE SMOOTH",
"420 0 OFFCURVE",
"528 63 OFFCURVE",
"552 172 CURVE SMOOTH",
"571 260 OFFCURVE",
"511 314 OFFCURVE",
"389 320 CURVE",
"380 312 LINE",
"483 318 OFFCURVE",
"565 373 OFFCURVE",
"580 446 CURVE SMOOTH",
"599 540 OFFCURVE",
"541 587 OFFCURVE",
"401 587 CURVE SMOOTH",
"114 587 LINE",
"101 537 LINE",
"161 520 LINE",
"164 513 OFFCURVE",
"152 448 OFFCURVE",
"135 366 CURVE SMOOTH",
"105 221 LINE SMOOTH",
"88 140 OFFCURVE",
"71 75 OFFCURVE",
"65 67 CURVE"
);
},
{
closed = 1;
nodes = (
"281 409 LINE SMOOTH",
"294 469 OFFCURVE",
"305 519 OFFCURVE",
"308 531 CURVE",
"344 531 LINE SMOOTH",
"417 531 OFFCURVE",
"443 493 OFFCURVE",
"430 432 CURVE SMOOTH",
"416 367 OFFCURVE",
"373 331 OFFCURVE",
"305 331 CURVE SMOOTH",
"284 331 OFFCURVE",
"271 331 OFFCURVE",
"256 332 CURVE",
"242 266 LINE",
"263 268 OFFCURVE",
"279 268 OFFCURVE",
"299 268 CURVE SMOOTH",
"385 268 OFFCURVE",
"417 233 OFFCURVE",
"402 158 CURVE SMOOTH",
"389 95 OFFCURVE",
"341 59 OFFCURVE",
"273 59 CURVE SMOOTH",
"250 59 OFFCURVE",
"224 62 OFFCURVE",
"211 67 CURVE",
"212 82 OFFCURVE",
"220 124 OFFCURVE",
"231 177 CURVE SMOOTH"
);
}
);
};
layerId = "DEDDD934-E4FE-4A27-B966-8C21F8A9BC34";
paths = (
{
closed = 1;
nodes = (
"-2 50 LINE",
"-10 0 LINE",
"265 0 LINE SMOOTH",
"439 0 OFFCURVE",
"553 81 OFFCURVE",
"553 195 CURVE SMOOTH",
"553 273 OFFCURVE",
"489 316 OFFCURVE",
"383 321 CURVE",
"380 308 LINE",
"515 315 OFFCURVE",
"580 388 OFFCURVE",
"580 469 CURVE SMOOTH",
"580 551 OFFCURVE",
"511 587 OFFCURVE",
"391 587 CURVE SMOOTH",
"116 587 LINE",
"102 537 LINE",
"163 521 LINE",
"161 500 OFFCURVE",
"152 450 OFFCURVE",
"135 368 CURVE SMOOTH",
"104 221 LINE SMOOTH",
"87 140 OFFCURVE",
"72 85 OFFCURVE",
"66 67 CURVE"
);
},
{
closed = 1;
nodes = (
"280 409 LINE SMOOTH",
"293 469 OFFCURVE",
"304 519 OFFCURVE",
"307 531 CURVE",
"344 531 LINE SMOOTH",
"402 531 OFFCURVE",
"433 506 OFFCURVE",
"433 453 CURVE SMOOTH",
"433 382 OFFCURVE",
"382 331 OFFCURVE",
"311 331 CURVE SMOOTH",
"284 331 OFFCURVE",
"271 331 OFFCURVE",
"256 332 CURVE",
"242 266 LINE",
"263 268 OFFCURVE",
"279 268 OFFCURVE",
"299 268 CURVE SMOOTH",
"371 268 OFFCURVE",
"406 243 OFFCURVE",
"406 183 CURVE SMOOTH",
"406 111 OFFCURVE",
"357 59 OFFCURVE",
"276 59 CURVE SMOOTH",
"249 59 OFFCURVE",
"223 62 OFFCURVE",
"210 67 CURVE",
"213 82 OFFCURVE",
"220 124 OFFCURVE",
"231 177 CURVE SMOOTH"
);
}
);
width = 610;
}
);
leftKerningGroup = H;
note = B;
rightKerningGroup = B;
unicode = 0042;
},
{
glyphname = C;
lastChange = "2018-08-22 12:32:02 +0000";
layers = (
{
anchors = (
{
name = bottom;
position = "{304, 0}";
},
{
name = top;
position = "{428, 587}";
}
);
background = {
anchors = (
{
name = bottom;
position = "{304, 0}";
},
{
name = top;
position = "{428, 587}";
}
);
paths = (
{
closed = 1;
nodes = (
"390 -9 OFFCURVE",
"459 11 OFFCURVE",
"510 35 CURVE",
"565 161 LINE",
"520 166 LINE",
"456 72 LINE",
"421 53 OFFCURVE",
"384 44 OFFCURVE",
"342 44 CURVE SMOOTH",
"220 44 OFFCURVE",
"142 136 OFFCURVE",
"178 307 CURVE SMOOTH",
"205 436 OFFCURVE",
"292 545 OFFCURVE",
"442 545 CURVE SMOOTH",
"480 545 OFFCURVE",
"525 536 OFFCURVE",
"547 519 CURVE",
"557 424 LINE",
"603 428 LINE",
"625 565 LINE",
"581 585 OFFCURVE",
"516 596 OFFCURVE",
"462 596 CURVE SMOOTH",
"254 596 OFFCURVE",
"104 456 OFFCURVE",
"68 289 CURVE SMOOTH",
"26 92 OFFCURVE",
"147 -9 OFFCURVE",
"321 -9 CURVE SMOOTH"
);
}
);
};
layerId = "720C727D-0ED9-429E-914E-55EB9E513E33";
paths = (
{
closed = 1;
nodes = (
"388 -9 OFFCURVE",
"448 5 OFFCURVE",
"514 35 CURVE",
"566 161 LINE",
"514 166 LINE",
"455 72 LINE",
"426 53 OFFCURVE",
"388 44 OFFCURVE",
"349 44 CURVE SMOOTH",
"237 44 OFFCURVE",
"169 116 OFFCURVE",
"169 237 CURVE SMOOTH",
"169 398 OFFCURVE",
"269 545 OFFCURVE",
"432 545 CURVE SMOOTH",
"481 545 OFFCURVE",
"524 535 OFFCURVE",
"545 519 CURVE",
"553 426 LINE",
"598 428 LINE",
"622 565 LINE",
"578 585 OFFCURVE",
"513 596 OFFCURVE",
"447 596 CURVE SMOOTH",
"233 596 OFFCURVE",
"63 432 OFFCURVE",
"63 227 CURVE SMOOTH",
"63 81 OFFCURVE",
"165 -9 OFFCURVE",
"332 -9 CURVE SMOOTH"
);
}
);
width = 603;
},
{
anchors = (
{
name = bottom;
position = "{302, 0}";
},
{
name = top;
position = "{426, 587}";
}
);
background = {
anchors = (
{
name = bottom;
position = "{302, 0}";
},
{
name = top;
position = "{426, 587}";
}
);
paths = (
{
closed = 1;
nodes = (
"400 -9 OFFCURVE",
"484 16 OFFCURVE",
"530 42 CURVE",
"587 176 LINE",
"521 183 LINE",
"467 94 LINE",
"442 72 OFFCURVE",
"393 61 OFFCURVE",
"362 61 CURVE SMOOTH",
"256 61 OFFCURVE",
"191 154 OFFCURVE",
"224 308 CURVE SMOOTH",
"253 444 OFFCURVE",
"335 529 OFFCURVE",
"449 529 CURVE SMOOTH",
"482 529 OFFCURVE",
"510 522 OFFCURVE",
"533 510 CURVE",
"546 404 LINE",
"609 408 LINE",
"635 562 LINE",
"597 582 OFFCURVE",
"534 596 OFFCURVE",
"472 596 CURVE SMOOTH",
"270 596 OFFCURVE",
"96 478 OFFCURVE",
"55 283 CURVE SMOOTH",
"15 98 OFFCURVE",
"126 -9 OFFCURVE",
"322 -9 CURVE SMOOTH"
);
}
);
};
layerId = "DEDDD934-E4FE-4A27-B966-8C21F8A9BC34";
paths = (
{
closed = 1;
nodes = (
"397 -9 OFFCURVE",
"482 12 OFFCURVE",
"535 42 CURVE",
"586 176 LINE",
"515 183 LINE",
"467 94 LINE",
"446 76 OFFCURVE",
"401 61 OFFCURVE",
"367 61 CURVE SMOOTH",
"274 61 OFFCURVE",
"215 130 OFFCURVE",
"215 239 CURVE SMOOTH",
"215 365 OFFCURVE",
"287 529 OFFCURVE",
"441 529 CURVE SMOOTH",
"479 529 OFFCURVE",
"508 523 OFFCURVE",
"533 510 CURVE",
"540 406 LINE",
"603 408 LINE",
"635 562 LINE",
"593 583 OFFCURVE",
"525 596 OFFCURVE",
"454 596 CURVE SMOOTH",
"227 596 OFFCURVE",
"51 434 OFFCURVE",
"51 224 CURVE SMOOTH",
"51 78 OFFCURVE",
"157 -9 OFFCURVE",
"334 -9 CURVE SMOOTH"
);
}
);
width = 621;
}
);
leftKerningGroup = O;
note = C;
rightKerningGroup = C;
unicode = 0043;
},
{
glyphname = D;
lastChange = "2018-08-22 12:32:02 +0000";
layers = (
{
anchors = (
{
name = bottom;
position = "{279, 0}";
},
{
name = center;
position = "{361, 294}";
},
{
name = stroke;
position = "{218, 294}";
},
{
name = top;
position = "{403, 587}";
}
);
background = {
anchors = (
{
name = bottom;
position = "{699, 0}";
},
{
name = center;
position = "{761, 294}";
},
{
name = stroke;
position = "{618, 294}";
},
{
name = top;
position = "{823, 587}";
}
);
paths = (
{
closed = 1;
nodes = (
"117 549 LINE",
"175 535 LINE",
"177 526 OFFCURVE",
"168 466 OFFCURVE",
"151 387 CURVE SMOOTH",
"111 199 LINE SMOOTH",
"96 127 OFFCURVE",
"79 64 OFFCURVE",
"73 52 CURVE",
"9 38 LINE",
"3 0 LINE",
"260 0 LINE SMOOTH",
"450 0 OFFCURVE",
"609 124 OFFCURVE",
"646 300 CURVE SMOOTH",
"684 481 OFFCURVE",
"583 587 OFFCURVE",
"371 587 CURVE SMOOTH",
"127 587 LINE"
);
},
{
closed = 1;
nodes = (
"299 538 OFFCURVE",
"325 540 OFFCURVE",
"350 540 CURVE SMOOTH",
"508 540 OFFCURVE",
"575 445 OFFCURVE",
"538 271 CURVE SMOOTH",
"508 128 OFFCURVE",
"417 52 OFFCURVE",
"277 52 CURVE SMOOTH",
"244 52 OFFCURVE",
"212 55 OFFCURVE",
"172 61 CURVE",
"175 89 OFFCURVE",
"183 139 OFFCURVE",
"196 199 CURVE SMOOTH",
"236 387 LINE SMOOTH",
"257 484 OFFCURVE",
"265 514 OFFCURVE",
"269 533 CURVE"
);
}
);
};
layerId = "720C727D-0ED9-429E-914E-55EB9E513E33";
paths = (
{
closed = 1;
nodes = (
"119 549 LINE",
"177 535 LINE",
"176 517 OFFCURVE",
"169 475 OFFCURVE",
"150 385 CURVE SMOOTH",
"110 197 LINE SMOOTH",
"95 125 OFFCURVE",
"82 71 OFFCURVE",
"76 52 CURVE",
"12 38 LINE",
"6 0 LINE",
"271 0 LINE SMOOTH",
"484 0 OFFCURVE",
"651 164 OFFCURVE",
"651 360 CURVE SMOOTH",
"651 509 OFFCURVE",
"542 587 OFFCURVE",
"355 587 CURVE SMOOTH",
"129 587 LINE"
);
},
{
closed = 1;
nodes = (
"300 538 OFFCURVE",
"322 540 OFFCURVE",
"345 540 CURVE SMOOTH",
"477 540 OFFCURVE",
"549 479 OFFCURVE",
"549 354 CURVE SMOOTH",
"549 171 OFFCURVE",
"446 52 OFFCURVE",
"284 52 CURVE SMOOTH",
"244 52 OFFCURVE",
"211 55 OFFCURVE",
"171 61 CURVE",
"174 89 OFFCURVE",
"182 137 OFFCURVE",
"195 197 CURVE SMOOTH",
"235 385 LINE SMOOTH",
"254 473 OFFCURVE",
"265 514 OFFCURVE",
"270 533 CURVE"
);
}
);
width = 685;
},
{
anchors = (
{
name = bottom;
position = "{292, 0}";
},
{
name = center;
position = "{374, 294}";
},
{
name = stroke;
position = "{230, 294}";
},
{
name = top;
position = "{416, 587}";
}
);
background = {
anchors = (
{
name = bottom;
position = "{712, 0}";
},
{
name = center;
position = "{774, 294}";
},
{
name = stroke;
position = "{630, 294}";
},
{
name = top;
position = "{836, 587}";
}
);
paths = (
{
closed = 1;
nodes = (
"102 537 LINE",
"162 520 LINE",
"165 513 OFFCURVE",
"153 448 OFFCURVE",
"136 366 CURVE SMOOTH",
"106 221 LINE SMOOTH",
"89 140 OFFCURVE",
"72 75 OFFCURVE",
"66 67 CURVE",
"-2 50 LINE",
"-9 0 LINE",
"279 0 LINE SMOOTH",
"473 0 OFFCURVE",
"638 126 OFFCURVE",
"676 301 CURVE SMOOTH",
"715 481 OFFCURVE",
"609 587 OFFCURVE",
"393 587 CURVE SMOOTH",
"115 587 LINE"
);
},
{
closed = 1;
nodes = (
"331 524 OFFCURVE",
"352 525 OFFCURVE",
"372 525 CURVE SMOOTH",
"476 525 OFFCURVE",
"556 458 OFFCURVE",
"516 270 CURVE SMOOTH",
"486 129 OFFCURVE",
"415 67 OFFCURVE",
"303 67 CURVE SMOOTH",
"276 67 OFFCURVE",
"244 70 OFFCURVE",
"217 76 CURVE",
"220 104 OFFCURVE",
"232 169 OFFCURVE",
"243 221 CURVE SMOOTH",
"273 366 LINE SMOOTH",
"291 455 OFFCURVE",
"305 507 OFFCURVE",
"308 521 CURVE"
);
}
);
};
layerId = "DEDDD934-E4FE-4A27-B966-8C21F8A9BC34";
paths = (
{
closed = 1;
nodes = (
"103 537 LINE",
"164 521 LINE",
"162 500 OFFCURVE",
"153 450 OFFCURVE",
"136 368 CURVE SMOOTH",
"105 221 LINE SMOOTH",
"88 141 OFFCURVE",
"73 85 OFFCURVE",
"67 67 CURVE",
"-1 50 LINE",
"-9 0 LINE",
"289 0 LINE SMOOTH",
"508 0 OFFCURVE",
"681 167 OFFCURVE",
"681 363 CURVE SMOOTH",
"681 509 OFFCURVE",
"574 587 OFFCURVE",
"383 587 CURVE SMOOTH",
"117 587 LINE"
);
},
{
closed = 1;
nodes = (
"328 524 OFFCURVE",
"346 525 OFFCURVE",
"367 525 CURVE SMOOTH",
"467 525 OFFCURVE",
"528 465 OFFCURVE",
"528 360 CURVE SMOOTH",
"528 180 OFFCURVE",
"442 67 OFFCURVE",
"305 67 CURVE SMOOTH",
"276 67 OFFCURVE",
"245 70 OFFCURVE",
"215 76 CURVE",
"217 90 OFFCURVE",
"231 169 OFFCURVE",
"242 221 CURVE SMOOTH",
"273 366 LINE SMOOTH",
"290 445 OFFCURVE",
"305 502 OFFCURVE",
"308 521 CURVE"
);
}
);
width = 706;
}
);
leftKerningGroup = H;
note = D;
rightKerningGroup = O;
unicode = 0044;
},
{
glyphname = E;
lastChange = "2018-08-22 12:32:02 +0000";
layers = (
{
anchors = (
{
name = bottom;
position = "{236, 0}";
},
{
name = ogonek;
position = "{444, 0}";
},
{
name = top;
position = "{360, 587}";
},
{
name = topleft;
position = "{105, 587}";
}
);
background = {
anchors = (
{
name = bottom;
position = "{636, 0}";
},
{
name = ogonek;
position = "{844, 0}";
},
{
name = top;
position = "{760, 587}";
},
{
name = topleft;
position = "{505, 587}";
}
);
paths = (
{
closed = 1;
nodes = (
"512 141 LINE",
"469 150 LINE",
"396 55 LINE",
"385 52 OFFCURVE",
"368 51 OFFCURVE",
"325 51 CURVE SMOOTH",
"229 51 LINE SMOOTH",
"203 51 OFFCURVE",
"184 52 OFFCURVE",
"165 54 CURVE",
"167 66 OFFCURVE",
"175 113 OFFCURVE",
"184 153 CURVE SMOOTH",
"242 423 LINE SMOOTH",
"252 470 OFFCURVE",
"265 527 OFFCURVE",
"268 536 CURVE",
"286 538 OFFCURVE",
"304 539 OFFCURVE",
"329 539 CURVE SMOOTH",
"443 539 LINE SMOOTH",
"458 539 OFFCURVE",
"471 538 OFFCURVE",
"481 536 CURVE",
"497 452 LINE",
"543 459 LINE",
"551 591 LINE",
"511 588 OFFCURVE",
"478 587 OFFCURVE",
"450 587 CURVE SMOOTH",
"126 587 LINE",
"116 549 LINE",
"175 534 LINE",
"178 526 OFFCURVE",
"169 476 OFFCURVE",
"150 387 CURVE SMOOTH",
"110 199 LINE SMOOTH",
"91 111 OFFCURVE",
"79 61 OFFCURVE",
"73 52 CURVE",
"8 38 LINE",
"2 0 LINE",
"348 0 LINE",
"374 0 OFFCURVE",
"402 -1 OFFCURVE",
"441 -5 CURVE"
);
},
{
closed = 1;
nodes = (
"416 205 LINE",
"458 399 LINE",
"416 399 LINE",
"389 330 LINE",
"380 328 OFFCURVE",
"364 327 OFFCURVE",
"342 327 CURVE SMOOTH",
"266 327 LINE SMOOTH",
"248 327 OFFCURVE",
"228 328 OFFCURVE",
"207 329 CURVE",
"195 275 LINE",
"217 276 OFFCURVE",
"238 277 OFFCURVE",
"256 277 CURVE SMOOTH",
"332 277 LINE SMOOTH",
"354 277 OFFCURVE",
"369 276 OFFCURVE",
"377 274 CURVE",
"374 205 LINE"
);
}
);
};
layerId = "720C727D-0ED9-429E-914E-55EB9E513E33";
paths = (
{
closed = 1;
nodes = (
"512 141 LINE",
"464 150 LINE",
"397 55 LINE",
"386 52 OFFCURVE",
"369 51 OFFCURVE",
"326 51 CURVE SMOOTH",
"229 51 LINE SMOOTH",
"203 51 OFFCURVE",
"184 52 OFFCURVE",
"165 54 CURVE",
"167 66 OFFCURVE",
"185 157 OFFCURVE",
"193 197 CURVE SMOOTH",
"233 385 LINE SMOOTH",
"243 432 OFFCURVE",
"265 527 OFFCURVE",
"268 536 CURVE",
"286 538 OFFCURVE",
"304 539 OFFCURVE",
"329 539 CURVE SMOOTH",
"442 539 LINE SMOOTH",
"457 539 OFFCURVE",
"470 538 OFFCURVE",
"480 536 CURVE",
"493 452 LINE",
"540 457 LINE",
"551 591 LINE",
"511 588 OFFCURVE",
"478 587 OFFCURVE",
"450 587 CURVE SMOOTH",
"128 587 LINE",
"118 549 LINE",
"176 535 LINE",
"175 517 OFFCURVE",
"168 475 OFFCURVE",
"149 385 CURVE SMOOTH",
"109 197 LINE SMOOTH",
"90 109 OFFCURVE",
"81 71 OFFCURVE",
"75 52 CURVE",
"11 38 LINE",
"5 0 LINE",
"353 0 LINE SMOOTH",
"379 0 OFFCURVE",
"407 -1 OFFCURVE",
"446 -5 CURVE"
);
},
{
closed = 1;
nodes = (
"416 205 LINE",
"457 399 LINE",
"414 399 LINE",
"387 330 LINE",
"378 328 OFFCURVE",
"362 327 OFFCURVE",
"340 327 CURVE SMOOTH",
"266 327 LINE SMOOTH",
"248 327 OFFCURVE",
"228 328 OFFCURVE",
"207 329 CURVE",
"195 275 LINE",
"217 276 OFFCURVE",
"238 277 OFFCURVE",
"256 277 CURVE SMOOTH",
"331 277 LINE SMOOTH",
"353 277 OFFCURVE",
"368 276 OFFCURVE",
"376 274 CURVE",
"373 205 LINE"
);
}
);
width = 558;
},
{
anchors = (
{
name = bottom;
position = "{246, 0}";
},
{
name = ogonek;
position = "{476, 0}";
},
{
name = top;
position = "{370, 587}";
},
{
name = topleft;
position = "{105, 587}";
}
);
background = {
anchors = (
{
name = bottom;
position = "{746, 0}";
},
{
name = ogonek;
position = "{976, 0}";
},
{
name = top;
position = "{870, 587}";
},
{
name = topleft;
position = "{605, 587}";
}
);
paths = (
{
closed = 1;
nodes = (
"552 157 LINE",
"497 168 LINE",
"421 68 LINE",
"404 64 OFFCURVE",
"400 64 OFFCURVE",
"349 64 CURVE SMOOTH",
"297 64 LINE SMOOTH",
"256 64 OFFCURVE",
"234 65 OFFCURVE",
"210 68 CURVE",
"212 86 OFFCURVE",
"220 128 OFFCURVE",
"234 194 CURVE SMOOTH",
"278 402 LINE SMOOTH",
"292 469 OFFCURVE",
"302 509 OFFCURVE",
"307 525 CURVE",
"322 527 OFFCURVE",
"347 528 OFFCURVE",
"373 528 CURVE SMOOTH",
"447 528 LINE SMOOTH",
"463 528 OFFCURVE",
"475 527 OFFCURVE",
"492 524 CURVE",
"511 435 LINE",
"571 443 LINE",
"576 592 LINE",
"540 591 OFFCURVE",
"462 587 OFFCURVE",
"420 587 CURVE SMOOTH",
"113 587 LINE",
"100 537 LINE",
"160 520 LINE",
"163 513 OFFCURVE",
"153 448 OFFCURVE",
"135 366 CURVE SMOOTH",
"104 221 LINE SMOOTH",
"87 140 OFFCURVE",
"70 75 OFFCURVE",
"64 67 CURVE",
"-4 50 LINE",
"-11 0 LINE",
"334 0 LINE",
"376 0 OFFCURVE",
"438 -4 OFFCURVE",
"472 -6 CURVE"
);
},
{
closed = 1;
nodes = (
"444 199 LINE",
"487 402 LINE",
"431 402 LINE",
"407 336 LINE",
"398 336 OFFCURVE",
"376 334 OFFCURVE",
"350 334 CURVE SMOOTH",
"298 334 LINE SMOOTH",
"274 334 OFFCURVE",
"253 336 OFFCURVE",
"242 337 CURVE",
"227 266 LINE",
"238 267 OFFCURVE",
"260 269 OFFCURVE",
"284 269 CURVE SMOOTH",
"336 269 LINE SMOOTH",
"362 269 OFFCURVE",
"383 267 OFFCURVE",
"392 267 CURVE",
"388 199 LINE"
);
}
);
};
layerId = "DEDDD934-E4FE-4A27-B966-8C21F8A9BC34";
paths = (
{
closed = 1;
nodes = (
"552 157 LINE",
"492 168 LINE",
"421 68 LINE",
"404 64 OFFCURVE",
"400 64 OFFCURVE",
"349 64 CURVE SMOOTH",
"297 64 LINE SMOOTH",
"256 64 OFFCURVE",
"234 65 OFFCURVE",
"210 68 CURVE",
"212 86 OFFCURVE",
"225 154 OFFCURVE",
"235 200 CURVE SMOOTH",
"275 388 LINE SMOOTH",
"285 435 OFFCURVE",
"302 509 OFFCURVE",
"307 525 CURVE",
"322 527 OFFCURVE",
"347 528 OFFCURVE",
"373 528 CURVE SMOOTH",
"447 528 LINE SMOOTH",
"463 528 OFFCURVE",
"475 527 OFFCURVE",
"492 524 CURVE",
"506 437 LINE",
"567 443 LINE",
"576 592 LINE",
"540 591 OFFCURVE",
"462 587 OFFCURVE",
"420 587 CURVE SMOOTH",
"116 587 LINE",
"102 537 LINE",
"163 521 LINE",
"161 500 OFFCURVE",
"152 450 OFFCURVE",
"135 368 CURVE SMOOTH",
"104 221 LINE SMOOTH",
"87 141 OFFCURVE",
"72 85 OFFCURVE",
"66 67 CURVE",
"-2 50 LINE",
"-11 0 LINE",
"339 0 LINE SMOOTH",
"381 0 OFFCURVE",
"443 -4 OFFCURVE",
"477 -6 CURVE"
);
},
{
closed = 1;
nodes = (
"444 199 LINE",
"487 402 LINE",
"430 402 LINE",
"406 336 LINE",
"397 336 OFFCURVE",
"375 334 OFFCURVE",
"349 334 CURVE SMOOTH",
"298 334 LINE SMOOTH",
"274 334 OFFCURVE",
"253 336 OFFCURVE",
"242 337 CURVE",
"227 266 LINE",
"238 267 OFFCURVE",
"260 269 OFFCURVE",
"284 269 CURVE SMOOTH",
"335 269 LINE SMOOTH",
"361 269 OFFCURVE",
"382 267 OFFCURVE",
"391 267 CURVE",
"387 199 LINE"
);
}
);
width = 581;
}
);
leftKerningGroup = H;
note = E;
rightKerningGroup = E;
unicode = 0045;
},
{
glyphname = Eogonek;
lastChange = "2018-08-22 12:32:02 +0000";
layers = (
{
anchors = (
{
name = top;
position = "{360, 587}";
},
{
name = topleft;
position = "{105, 587}";
}
);
background = {
anchors = (
{
name = bottom;
position = "{242, 0}";
},
{
name = top;
position = "{367, 587}";
},
{
name = topleft;
position = "{112, 587}";
}
);
paths = (
{
closed = 1;
nodes = (
"384 -223 OFFCURVE",
"425 -205 OFFCURVE",
"460 -173 CURVE",
"444 -146 LINE",
"415 -170 OFFCURVE",
"390 -181 OFFCURVE",
"367 -181 CURVE SMOOTH",
"332 -181 OFFCURVE",
"314 -158 OFFCURVE",
"322 -122 CURVE SMOOTH",
"332 -79 OFFCURVE",
"372 -38 OFFCURVE",
"443 0 CURVE",
"511 141 LINE",
"469 150 LINE",
"397 55 LINE",
"385 52 OFFCURVE",
"368 51 OFFCURVE",
"325 51 CURVE SMOOTH",
"228 51 LINE SMOOTH",
"202 51 OFFCURVE",
"183 52 OFFCURVE",
"164 54 CURVE",
"166 66 OFFCURVE",
"174 113 OFFCURVE",
"183 153 CURVE SMOOTH",
"241 423 LINE SMOOTH",
"251 470 OFFCURVE",
"264 527 OFFCURVE",
"267 536 CURVE",
"285 538 OFFCURVE",
"303 539 OFFCURVE",
"328 539 CURVE SMOOTH",
"442 539 LINE SMOOTH",
"457 539 OFFCURVE",
"470 538 OFFCURVE",
"480 536 CURVE",
"496 452 LINE",
"542 459 LINE",
"551 591 LINE",
"510 588 OFFCURVE",
"478 587 OFFCURVE",
"450 587 CURVE SMOOTH",
"127 587 LINE",
"117 549 LINE",
"175 535 LINE",
"177 527 OFFCURVE",
"168 476 OFFCURVE",
"149 387 CURVE SMOOTH",
"109 199 LINE SMOOTH",
"90 111 OFFCURVE",
"78 61 OFFCURVE",
"72 52 CURVE",
"8 38 LINE",
"2 0 LINE",
"383 0 LINE",
"309 -37 OFFCURVE",
"260 -83 OFFCURVE",
"250 -132 CURVE SMOOTH",
"239 -185 OFFCURVE",
"277 -223 OFFCURVE",
"344 -223 CURVE SMOOTH"
);
},
{
closed = 1;
nodes = (
"415 205 LINE",
"457 399 LINE",
"415 399 LINE",
"388 330 LINE",
"380 328 OFFCURVE",
"363 327 OFFCURVE",
"341 327 CURVE SMOOTH",
"265 327 LINE SMOOTH",
"247 327 OFFCURVE",
"228 328 OFFCURVE",
"206 329 CURVE",
"194 275 LINE",
"217 276 OFFCURVE",
"237 277 OFFCURVE",
"255 277 CURVE SMOOTH",
"331 277 LINE SMOOTH",
"353 277 OFFCURVE",
"369 276 OFFCURVE",
"376 274 CURVE",
"373 205 LINE"
);
}
);
};
layerId = "720C727D-0ED9-429E-914E-55EB9E513E33";
paths = (
{
closed = 1;
nodes = (
"416 205 LINE",
"457 399 LINE",
"414 399 LINE",
"387 330 LINE",
"378 328 OFFCURVE",
"362 327 OFFCURVE",
"340 327 CURVE SMOOTH",
"266 327 LINE SMOOTH",
"248 327 OFFCURVE",
"228 328 OFFCURVE",
"207 329 CURVE",
"195 275 LINE",
"217 276 OFFCURVE",
"238 277 OFFCURVE",
"256 277 CURVE SMOOTH",
"331 277 LINE SMOOTH",
"353 277 OFFCURVE",
"368 276 OFFCURVE",
"376 274 CURVE",
"373 205 LINE"
);
},
{
closed = 1;
nodes = (
"243 432 OFFCURVE",
"265 527 OFFCURVE",
"268 536 CURVE",
"286 538 OFFCURVE",
"304 539 OFFCURVE",
"329 539 CURVE SMOOTH",
"442 539 LINE SMOOTH",
"457 539 OFFCURVE",
"470 538 OFFCURVE",
"480 536 CURVE",
"493 452 LINE",
"540 457 LINE",
"551 591 LINE",
"511 588 OFFCURVE",
"478 587 OFFCURVE",
"450 587 CURVE SMOOTH",
"128 587 LINE",
"118 549 LINE",
"176 535 LINE",
"175 517 OFFCURVE",
"168 475 OFFCURVE",
"149 385 CURVE SMOOTH",
"109 197 LINE SMOOTH",
"90 109 OFFCURVE",
"81 71 OFFCURVE",
"75 52 CURVE",
"11 38 LINE",
"5 0 LINE",
"383 0 LINE",
"305 -38 OFFCURVE",
"249 -90 OFFCURVE",
"249 -147 CURVE SMOOTH",
"249 -190 OFFCURVE",
"283 -223 OFFCURVE",
"348 -223 CURVE SMOOTH",
"388 -223 OFFCURVE",
"429 -205 OFFCURVE",
"461 -173 CURVE",
"445 -146 LINE",
"419 -169 OFFCURVE",
"394 -181 OFFCURVE",
"370 -181 CURVE SMOOTH",
"339 -181 OFFCURVE",
"321 -165 OFFCURVE",
"321 -136 CURVE SMOOTH",
"321 -85 OFFCURVE",
"379 -33 OFFCURVE",
"448 0 CURVE",
"512 141 LINE",
"464 150 LINE",
"397 55 LINE",
"386 52 OFFCURVE",
"369 51 OFFCURVE",
"326 51 CURVE SMOOTH",
"229 51 LINE SMOOTH",
"203 51 OFFCURVE",
"184 52 OFFCURVE",
"165 54 CURVE",
"167 66 OFFCURVE",
"185 157 OFFCURVE",
"193 197 CURVE SMOOTH",
"233 385 LINE SMOOTH"
);
}
);
width = 558;
},
{
anchors = (
{
name = top;
position = "{370, 587}";
},
{
name = topleft;
position = "{105, 587}";
}
);
background = {
anchors = (
{
name = bottom;
position = "{293, 0}";
},
{
name = top;
position = "{293, 587}";
},
{
name = topleft;
position = "{28, 587}";
}
);
paths = (
{
closed = 1;
nodes = (
"420 -223 OFFCURVE",
"463 -206 OFFCURVE",
"500 -173 CURVE",
"480 -134 LINE",
"451 -157 OFFCURVE",
"427 -168 OFFCURVE",
"405 -168 CURVE SMOOTH",
"373 -168 OFFCURVE",
"358 -146 OFFCURVE",
"365 -113 CURVE SMOOTH",
"373 -75 OFFCURVE",
"410 -37 OFFCURVE",
"476 0 CURVE",
"552 157 LINE",
"497 168 LINE",
"421 68 LINE",
"404 64 OFFCURVE",
"400 64 OFFCURVE",
"349 64 CURVE SMOOTH",
"297 64 LINE SMOOTH",
"256 64 OFFCURVE",
"234 65 OFFCURVE",
"210 68 CURVE",
"212 86 OFFCURVE",
"220 128 OFFCURVE",
"234 194 CURVE SMOOTH",
"278 402 LINE SMOOTH",
"292 469 OFFCURVE",
"302 509 OFFCURVE",
"307 525 CURVE",
"322 527 OFFCURVE",
"347 528 OFFCURVE",
"373 528 CURVE SMOOTH",
"447 528 LINE SMOOTH",
"463 528 OFFCURVE",
"475 527 OFFCURVE",
"492 524 CURVE",
"511 435 LINE",
"571 443 LINE",
"576 592 LINE",
"540 591 OFFCURVE",
"463 587 OFFCURVE",
"421 587 CURVE SMOOTH",
"114 587 LINE",
"100 537 LINE",
"160 520 LINE",
"163 513 OFFCURVE",
"153 448 OFFCURVE",
"135 366 CURVE SMOOTH",
"104 221 LINE SMOOTH",
"87 140 OFFCURVE",
"70 75 OFFCURVE",
"64 67 CURVE",
"-4 50 LINE",
"-11 0 LINE",
"401 0 LINE",
"323 -34 OFFCURVE",
"275 -77 OFFCURVE",
"266 -122 CURVE SMOOTH",
"255 -179 OFFCURVE",
"300 -223 OFFCURVE",
"374 -223 CURVE SMOOTH"
);
},
{
closed = 1;
nodes = (
"444 199 LINE",
"487 402 LINE",
"431 402 LINE",
"407 336 LINE",
"398 336 OFFCURVE",
"376 334 OFFCURVE",
"350 334 CURVE SMOOTH",
"298 334 LINE SMOOTH",
"274 334 OFFCURVE",
"253 336 OFFCURVE",
"242 337 CURVE",
"227 266 LINE",
"239 267 OFFCURVE",
"260 269 OFFCURVE",
"284 269 CURVE SMOOTH",
"336 269 LINE SMOOTH",
"362 269 OFFCURVE",
"384 267 OFFCURVE",
"393 267 CURVE",
"388 199 LINE"
);
}
);
};
layerId = "DEDDD934-E4FE-4A27-B966-8C21F8A9BC34";
paths = (
{
closed = 1;
nodes = (
"444 199 LINE",
"487 402 LINE",
"430 402 LINE",
"406 336 LINE",
"397 336 OFFCURVE",
"375 334 OFFCURVE",
"349 334 CURVE SMOOTH",
"298 334 LINE SMOOTH",
"274 334 OFFCURVE",
"253 336 OFFCURVE",
"242 337 CURVE",
"227 266 LINE",
"238 267 OFFCURVE",
"260 269 OFFCURVE",
"284 269 CURVE SMOOTH",
"335 269 LINE SMOOTH",
"361 269 OFFCURVE",
"382 267 OFFCURVE",
"391 267 CURVE",
"387 199 LINE"
);
},
{
closed = 1;
nodes = (
"285 435 OFFCURVE",
"302 509 OFFCURVE",
"307 525 CURVE",
"322 527 OFFCURVE",
"347 528 OFFCURVE",
"373 528 CURVE SMOOTH",
"447 528 LINE SMOOTH",
"463 528 OFFCURVE",
"475 527 OFFCURVE",
"492 524 CURVE",
"506 437 LINE",
"567 443 LINE",
"576 592 LINE",
"540 591 OFFCURVE",
"462 587 OFFCURVE",
"420 587 CURVE SMOOTH",
"116 587 LINE",
"102 537 LINE",
"163 521 LINE",
"161 500 OFFCURVE",
"152 450 OFFCURVE",
"135 368 CURVE SMOOTH",
"104 221 LINE SMOOTH",
"87 141 OFFCURVE",
"72 85 OFFCURVE",
"66 67 CURVE",
"-2 50 LINE",
"-11 0 LINE",
"401 0 LINE",
"313 -39 OFFCURVE",
"264 -87 OFFCURVE",
"264 -137 CURVE SMOOTH",
"264 -189 OFFCURVE",
"315 -223 OFFCURVE",
"380 -223 CURVE SMOOTH",
"427 -223 OFFCURVE",
"468 -205 OFFCURVE",
"500 -173 CURVE",
"481 -134 LINE",
"456 -157 OFFCURVE",
"430 -168 OFFCURVE",
"408 -168 CURVE SMOOTH",
"383 -168 OFFCURVE",
"363 -154 OFFCURVE",
"363 -125 CURVE SMOOTH",
"363 -85 OFFCURVE",
"402 -42 OFFCURVE",
"480 0 CURVE",
"552 157 LINE",
"492 168 LINE",
"421 68 LINE",
"404 64 OFFCURVE",
"400 64 OFFCURVE",
"349 64 CURVE SMOOTH",
"297 64 LINE SMOOTH",
"256 64 OFFCURVE",
"234 65 OFFCURVE",
"210 68 CURVE",
"212 86 OFFCURVE",
"225 154 OFFCURVE",
"235 200 CURVE SMOOTH",
"275 388 LINE SMOOTH"
);
}
);
width = 581;
}
);
leftKerningGroup = H;
leftMetricsKey = E;
widthMetricsKey = E;
note = Eogonek;
rightKerningGroup = E;
unicode = 0118;
},
{
glyphname = F;
lastChange = "2018-08-22 12:32:02 +0000";
layers = (
{
anchors = (
{
name = bottom;
position = "{112, 0}";
},
{
name = top;
position = "{341, 587}";
}
);
background = {
paths = (
{
closed = 1;
nodes = (
"509 141 LINE",
"461 150 LINE",
"394 55 LINE",
"383 52 OFFCURVE",
"366 51 OFFCURVE",
"323 51 CURVE SMOOTH",
"226 51 LINE SMOOTH",
"200 51 OFFCURVE",
"181 52 OFFCURVE",
"162 54 CURVE",
"164 66 OFFCURVE",
"182 157 OFFCURVE",
"190 197 CURVE SMOOTH",
"230 385 LINE SMOOTH",
"240 432 OFFCURVE",
"262 527 OFFCURVE",
"265 536 CURVE",
"283 538 OFFCURVE",
"301 539 OFFCURVE",
"326 539 CURVE SMOOTH",
"439 539 LINE SMOOTH",
"454 539 OFFCURVE",
"467 538 OFFCURVE",
"477 536 CURVE",
"490 452 LINE",
"537 457 LINE",
"548 591 LINE",
"508 588 OFFCURVE",
"475 587 OFFCURVE",
"447 587 CURVE SMOOTH",
"125 587 LINE",
"115 549 LINE",
"173 535 LINE",
"172 517 OFFCURVE",
"165 475 OFFCURVE",
"146 385 CURVE SMOOTH",
"106 197 LINE SMOOTH",
"87 109 OFFCURVE",
"78 71 OFFCURVE",
"72 52 CURVE",
"8 38 LINE",
"2 0 LINE",
"350 0 LINE SMOOTH",
"376 0 OFFCURVE",
"404 -1 OFFCURVE",
"443 -5 CURVE"
);
},
{
closed = 1;
nodes = (
"413 205 LINE",
"454 399 LINE",
"411 399 LINE",
"384 330 LINE",
"375 328 OFFCURVE",
"359 327 OFFCURVE",
"337 327 CURVE SMOOTH",
"263 327 LINE SMOOTH",
"245 327 OFFCURVE",
"225 328 OFFCURVE",
"204 329 CURVE",
"192 275 LINE",
"214 276 OFFCURVE",
"235 277 OFFCURVE",
"253 277 CURVE SMOOTH",
"328 277 LINE SMOOTH",
"350 277 OFFCURVE",
"365 276 OFFCURVE",
"373 274 CURVE",
"370 205 LINE"
);
}
);
};
layerId = "720C727D-0ED9-429E-914E-55EB9E513E33";
paths = (
{
closed = 1;
nodes = (
"235 0 LINE",
"246 40 LINE",
"168 52 LINE",
"170 70 OFFCURVE",
"174 102 OFFCURVE",
"194 197 CURVE",
"233 385 LINE",
"243 432 OFFCURVE",
"265 527 OFFCURVE",
"268 536 CURVE",
"282 537 OFFCURVE",
"311 539 OFFCURVE",
"331 539 CURVE SMOOTH",
"441 539 LINE SMOOTH",
"456 539 OFFCURVE",
"469 538 OFFCURVE",
"477 536 CURVE",
"490 452 LINE",
"537 457 LINE",
"548 591 LINE",
"508 588 OFFCURVE",
"474 587 OFFCURVE",
"447 587 CURVE SMOOTH",
"129 587 LINE",
"119 549 LINE",
"177 535 LINE",
"176 517 OFFCURVE",
"169 475 OFFCURVE",
"150 385 CURVE",
"109 197 LINE",
"90 109 OFFCURVE",
"81 71 OFFCURVE",
"75 52 CURVE",
"15 38 LINE",
"9 0 LINE"
);
},
{
closed = 1;
nodes = (
"411 198 LINE",
"453 395 LINE",
"410 395 LINE",
"383 327 LINE",
"374 324 OFFCURVE",
"360 323 OFFCURVE",
"333 323 CURVE SMOOTH",
"251 323 LINE SMOOTH",
"233 323 OFFCURVE",
"215 325 OFFCURVE",
"199 326 CURVE",
"188 272 LINE",
"210 273 OFFCURVE",
"226 274 OFFCURVE",
"240 274 CURVE SMOOTH",
"322 274 LINE SMOOTH",
"351 274 OFFCURVE",
"364 273 OFFCURVE",
"371 270 CURVE",
"368 198 LINE"
);
}
);
width = 506;
},
{
anchors = (
{
name = bottom;
position = "{125, 0}";
},
{
name = top;
position = "{341, 587}";
}
);
background = {
paths = (
{
closed = 1;
nodes = (
"979 0 LINE",
"993 52 LINE",
"915 67 LINE",
"914 75 OFFCURVE",
"923 134 OFFCURVE",
"930 170 CURVE",
"979 402 LINE",
"999 499 OFFCURVE",
"1001 510 OFFCURVE",
"1005 523 CURVE",
"1020 526 OFFCURVE",
"1044 528 OFFCURVE",
"1067 528 CURVE SMOOTH",
"1141 528 LINE SMOOTH",
"1157 528 OFFCURVE",
"1168 527 OFFCURVE",
"1185 524 CURVE",
"1205 435 LINE",
"1265 443 LINE",
"1269 592 LINE",
"1231 589 OFFCURVE",
"1156 587 OFFCURVE",
"1114 587 CURVE SMOOTH",
"815 587 LINE",
"801 537 LINE",
"862 520 LINE",
"864 513 OFFCURVE",
"853 448 OFFCURVE",
"836 366 CURVE",
"804 221 LINE",
"787 140 OFFCURVE",
"770 75 OFFCURVE",
"764 67 CURVE",
"701 50 LINE",
"693 0 LINE"
);
},
{
closed = 1;
nodes = (
"1134 189 LINE",
"1178 396 LINE",
"1123 396 LINE",
"1098 331 LINE",
"1089 331 OFFCURVE",
"1068 328 OFFCURVE",
"1041 328 CURVE SMOOTH",
"985 328 LINE SMOOTH",
"961 328 OFFCURVE",
"940 331 OFFCURVE",
"927 332 CURVE",
"911 260 LINE",
"926 261 OFFCURVE",
"947 263 OFFCURVE",
"971 263 CURVE SMOOTH",
"1027 263 LINE SMOOTH",
"1047 263 OFFCURVE",
"1068 262 OFFCURVE",
"1083 260 CURVE",
"1079 189 LINE"
);
},
{
closed = 1;
nodes = (
"547 157 LINE",
"487 168 LINE",
"416 68 LINE",
"399 64 OFFCURVE",
"395 64 OFFCURVE",
"344 64 CURVE SMOOTH",
"292 64 LINE SMOOTH",
"251 64 OFFCURVE",
"229 65 OFFCURVE",
"205 68 CURVE",
"207 86 OFFCURVE",
"220 154 OFFCURVE",
"230 200 CURVE SMOOTH",
"270 388 LINE SMOOTH",
"280 435 OFFCURVE",
"297 509 OFFCURVE",
"302 525 CURVE",
"317 527 OFFCURVE",
"342 528 OFFCURVE",
"368 528 CURVE SMOOTH",
"442 528 LINE SMOOTH",
"458 528 OFFCURVE",
"470 527 OFFCURVE",
"487 524 CURVE",
"501 437 LINE",
"562 443 LINE",
"571 592 LINE",
"535 591 OFFCURVE",
"457 587 OFFCURVE",
"415 587 CURVE SMOOTH",
"111 587 LINE",
"97 537 LINE",
"158 521 LINE",
"156 500 OFFCURVE",
"147 450 OFFCURVE",
"130 368 CURVE SMOOTH",
"99 221 LINE SMOOTH",
"82 141 OFFCURVE",
"67 85 OFFCURVE",
"61 67 CURVE",
"-7 50 LINE",
"-16 0 LINE",
"334 0 LINE SMOOTH",
"376 0 OFFCURVE",
"438 -4 OFFCURVE",
"472 -6 CURVE"
);
},
{
closed = 1;
nodes = (
"439 199 LINE",
"482 402 LINE",
"425 402 LINE",
"401 336 LINE",
"392 336 OFFCURVE",
"370 334 OFFCURVE",
"344 334 CURVE SMOOTH",
"293 334 LINE SMOOTH",
"269 334 OFFCURVE",
"248 336 OFFCURVE",
"237 337 CURVE",
"222 266 LINE",
"233 267 OFFCURVE",
"255 269 OFFCURVE",
"279 269 CURVE SMOOTH",
"330 269 LINE SMOOTH",
"356 269 OFFCURVE",
"377 267 OFFCURVE",
"386 267 CURVE",
"382 199 LINE"
);
}
);
};
layerId = "DEDDD934-E4FE-4A27-B966-8C21F8A9BC34";
paths = (
{
closed = 1;
nodes = (
"277 0 LINE",
"291 52 LINE",
"213 67 LINE",
"215 85 OFFCURVE",
"223 134 OFFCURVE",
"230 170 CURVE",
"278 402 LINE",
"298 499 OFFCURVE",
"300 510 OFFCURVE",
"304 523 CURVE",
"319 526 OFFCURVE",
"343 528 OFFCURVE",
"366 528 CURVE SMOOTH",
"442 528 LINE SMOOTH",
"458 528 OFFCURVE",
"470 527 OFFCURVE",
"487 524 CURVE",
"501 437 LINE",
"562 443 LINE",
"571 592 LINE",
"535 591 OFFCURVE",
"457 587 OFFCURVE",
"415 587 CURVE SMOOTH",
"118 587 LINE",
"104 537 LINE",
"165 521 LINE",
"167 514 OFFCURVE",
"154 450 OFFCURVE",
"137 368 CURVE",
"105 221 LINE",
"88 141 OFFCURVE",
"73 85 OFFCURVE",
"67 67 CURVE",
"-1 50 LINE",
"-10 0 LINE"
);
},
{
closed = 1;
nodes = (
"437 189 LINE",
"481 396 LINE",
"424 396 LINE",
"399 331 LINE",
"390 331 OFFCURVE",
"369 328 OFFCURVE",
"342 328 CURVE SMOOTH",
"286 328 LINE SMOOTH",
"262 328 OFFCURVE",
"241 331 OFFCURVE",
"228 332 CURVE",
"212 260 LINE",
"227 261 OFFCURVE",
"248 263 OFFCURVE",
"272 263 CURVE SMOOTH",
"328 263 LINE SMOOTH",
"348 263 OFFCURVE",
"369 262 OFFCURVE",
"384 260 CURVE",
"380 189 LINE"
);
}
);
width = 539;
}
);
leftKerningGroup = H;
note = F;
rightKerningGroup = F;
unicode = 0046;
},
{
glyphname = G;
lastChange = "2018-08-22 12:32:02 +0000";
layers = (
{
anchors = (
{
name = bottom;
position = "{307, 0}";
},
{
name = top;
position = "{431, 587}";
}
);
background = {
anchors = (
{
name = bottom;
position = "{369, 0}";
},
{
name = top;
position = "{369, 587}";
}
);
paths = (
{
closed = 1;
nodes = (
"1156 -9 OFFCURVE",
"1236 12 OFFCURVE",
"1288 46 CURVE",
"1286 81 OFFCURVE",
"1285 109 OFFCURVE",
"1285 155 CURVE SMOOTH",
"1285 191 OFFCURVE",
"1285 218 OFFCURVE",
"1286 225 CURVE",
"1330 237 LINE",
"1328 275 LINE",
"1132 275 LINE",
"1130 235 LINE",
"1198 224 LINE",
"1200 207 OFFCURVE",
"1202 171 OFFCURVE",
"1202 128 CURVE SMOOTH",
"1202 23 LINE",
"1226 79 LINE",
"1190 54 OFFCURVE",
"1140 44 OFFCURVE",
"1103 44 CURVE SMOOTH",
"972 44 OFFCURVE",
"873 136 OFFCURVE",
"873 307 CURVE SMOOTH",
"873 436 OFFCURVE",
"938 545 OFFCURVE",
"1092 545 CURVE SMOOTH",
"1129 545 OFFCURVE",
"1176 537 OFFCURVE",
"1202 519 CURVE",
"1231 430 LINE",
"1276 434 LINE",
"1269 565 LINE",
"1223 585 OFFCURVE",
"1155 596 OFFCURVE",
"1101 596 CURVE SMOOTH",
"890 596 OFFCURVE",
"768 456 OFFCURVE",
"768 288 CURVE SMOOTH",
"768 92 OFFCURVE",
"910 -9 OFFCURVE",
"1092 -9 CURVE SMOOTH"
);
},
{
closed = 1;
nodes = (
"387 -9 OFFCURVE",
"447 5 OFFCURVE",
"513 35 CURVE",
"565 161 LINE",
"513 166 LINE",
"454 72 LINE",
"425 53 OFFCURVE",
"387 44 OFFCURVE",
"348 44 CURVE SMOOTH",
"236 44 OFFCURVE",
"168 116 OFFCURVE",
"168 237 CURVE SMOOTH",
"168 398 OFFCURVE",
"268 545 OFFCURVE",
"431 545 CURVE SMOOTH",
"480 545 OFFCURVE",
"523 535 OFFCURVE",
"544 519 CURVE",
"552 426 LINE",
"597 428 LINE",
"621 565 LINE",
"577 585 OFFCURVE",
"512 596 OFFCURVE",
"446 596 CURVE SMOOTH",
"232 596 OFFCURVE",
"62 432 OFFCURVE",
"62 227 CURVE SMOOTH",
"62 81 OFFCURVE",
"164 -9 OFFCURVE",
"331 -9 CURVE SMOOTH"
);
}
);
};
layerId = "720C727D-0ED9-429E-914E-55EB9E513E33";
paths = (
{
closed = 1;
nodes = (
"395 -9 OFFCURVE",
"480 12 OFFCURVE",
"535 46 CURVE",
"541 81 OFFCURVE",
"546 109 OFFCURVE",
"556 155 CURVE SMOOTH",
"563 191 OFFCURVE",
"569 218 OFFCURVE",
"571 225 CURVE",
"618 237 LINE",
"624 275 LINE",
"428 275 LINE",
"418 235 LINE",
"483 224 LINE",
"482 207 OFFCURVE",
"476 171 OFFCURVE",
"467 128 CURVE SMOOTH",
"445 23 LINE",
"480 80 LINE",
"441 53 OFFCURVE",
"385 43 OFFCURVE",
"352 43 CURVE SMOOTH",
"236 43 OFFCURVE",
"168 116 OFFCURVE",
"168 237 CURVE SMOOTH",
"168 398 OFFCURVE",
"268 545 OFFCURVE",
"433 545 CURVE SMOOTH",
"479 545 OFFCURVE",
"523 535 OFFCURVE",
"548 518 CURVE",
"555 431 LINE",
"602 433 LINE",
"625 564 LINE",
"577 585 OFFCURVE",
"512 596 OFFCURVE",
"449 596 CURVE SMOOTH",
"232 596 OFFCURVE",
"62 432 OFFCURVE",
"62 227 CURVE SMOOTH",
"62 81 OFFCURVE",
"164 -9 OFFCURVE",
"340 -9 CURVE SMOOTH"
);
}
);
width = 650;
},
{
anchors = (
{
name = bottom;
position = "{303, 0}";
},
{
name = top;
position = "{427, 587}";
}
);
background = {
anchors = (
{
name = bottom;
position = "{365, 0}";
},
{
name = top;
position = "{365, 587}";
}
);
paths = (
{
closed = 1;
nodes = (
"1257 -9 OFFCURVE",
"1335 9 OFFCURVE",
"1393 45 CURVE",
"1391 93 OFFCURVE",
"1390 119 OFFCURVE",
"1390 135 CURVE SMOOTH",
"1390 165 OFFCURVE",
"1389 201 OFFCURVE",
"1392 210 CURVE",
"1442 227 LINE",
"1439 277 LINE",
"1184 277 LINE",
"1181 225 LINE",
"1252 209 LINE",
"1254 191 OFFCURVE",
"1257 155 OFFCURVE",
"1257 128 CURVE SMOOTH",
"1257 22 LINE",
"1274 76 LINE",
"1253 66 OFFCURVE",
"1228 60 OFFCURVE",
"1211 60 CURVE SMOOTH",
"1104 60 OFFCURVE",
"1019 154 OFFCURVE",
"1019 308 CURVE SMOOTH",
"1019 444 OFFCURVE",
"1085 529 OFFCURVE",
"1201 529 CURVE SMOOTH",
"1224 529 OFFCURVE",
"1257 525 OFFCURVE",
"1287 510 CURVE",
"1319 417 LINE",
"1382 420 LINE",
"1377 562 LINE",
"1337 582 OFFCURVE",
"1271 596 OFFCURVE",
"1212 596 CURVE SMOOTH",
"1006 596 OFFCURVE",
"857 478 OFFCURVE",
"857 280 CURVE SMOOTH",
"857 98 OFFCURVE",
"992 -9 OFFCURVE",
"1185 -9 CURVE SMOOTH"
);
},
{
closed = 1;
nodes = (
"397 -9 OFFCURVE",
"482 12 OFFCURVE",
"535 42 CURVE",
"586 176 LINE",
"515 183 LINE",
"467 94 LINE",
"446 76 OFFCURVE",
"401 61 OFFCURVE",
"367 61 CURVE SMOOTH",
"274 61 OFFCURVE",
"215 130 OFFCURVE",
"215 239 CURVE SMOOTH",
"215 365 OFFCURVE",
"287 529 OFFCURVE",
"441 529 CURVE SMOOTH",
"479 529 OFFCURVE",
"508 523 OFFCURVE",
"533 510 CURVE",
"540 406 LINE",
"603 408 LINE",
"635 562 LINE",
"593 583 OFFCURVE",
"525 596 OFFCURVE",
"454 596 CURVE SMOOTH",
"227 596 OFFCURVE",
"51 434 OFFCURVE",
"51 224 CURVE SMOOTH",
"51 78 OFFCURVE",
"157 -9 OFFCURVE",
"334 -9 CURVE SMOOTH"
);
}
);
};
layerId = "DEDDD934-E4FE-4A27-B966-8C21F8A9BC34";
paths = (
{
closed = 1;
nodes = (
"399 -9 OFFCURVE",
"475 9 OFFCURVE",
"540 42 CURVE",
"548 93 OFFCURVE",
"553 119 OFFCURVE",
"556 135 CURVE SMOOTH",
"563 165 OFFCURVE",
"569 196 OFFCURVE",
"574 210 CURVE",
"628 227 LINE",
"636 277 LINE",
"380 277 LINE",
"366 225 LINE",
"434 209 LINE",
"432 191 OFFCURVE",
"425 148 OFFCURVE",
"419 121 CURVE SMOOTH",
"398 22 LINE",
"430 75 LINE",
"407 65 OFFCURVE",
"384 60 OFFCURVE",
"367 60 CURVE SMOOTH",
"273 60 OFFCURVE",
"213 130 OFFCURVE",
"213 239 CURVE SMOOTH",
"213 365 OFFCURVE",
"286 529 OFFCURVE",
"441 529 CURVE SMOOTH",
"479 529 OFFCURVE",
"508 523 OFFCURVE",
"533 510 CURVE",
"539 417 LINE",
"603 420 LINE",
"635 562 LINE",
"593 583 OFFCURVE",
"525 596 OFFCURVE",
"454 596 CURVE SMOOTH",
"227 596 OFFCURVE",
"51 434 OFFCURVE",
"51 224 CURVE SMOOTH",
"51 78 OFFCURVE",
"157 -9 OFFCURVE",
"334 -9 CURVE SMOOTH"
);
}
);
width = 660;
}
);
leftKerningGroup = O;
note = G;
rightKerningGroup = G;
unicode = 0047;
},
{
glyphname = H;
lastChange = "2018-08-22 12:32:02 +0000";
layers = (
{
anchors = (
{
name = bottom;
position = "{292, 0}";
},
{
name = center;
position = "{383, 434}";
},
{
name = top;
position = "{416, 587}";
},
{
name = topleft;
position = "{105, 587}";
}
);
background = {
paths = (
{
closed = 1;
nodes = (
"581 0 LINE",
"591 38 LINE",
"533 52 LINE",
"529 60 OFFCURVE",
"537 103 OFFCURVE",
"557 199 CURVE SMOOTH",
"597 387 LINE SMOOTH",
"618 485 OFFCURVE",
"629 528 OFFCURVE",
"635 535 CURVE",
"699 549 LINE",
"705 587 LINE",
"488 587 LINE",
"478 549 LINE",
"536 535 LINE",
"540 528 OFFCURVE",
"533 485 OFFCURVE",
"512 387 CURVE SMOOTH",
"472 199 LINE SMOOTH",
"452 103 OFFCURVE",
"440 60 OFFCURVE",
"434 52 CURVE",
"370 38 LINE",
"364 0 LINE"
);
},
{
closed = 1;
nodes = (
"219 0 LINE",
"229 38 LINE",
"171 52 LINE",
"167 60 OFFCURVE",
"175 103 OFFCURVE",
"195 199 CURVE SMOOTH",
"235 387 LINE SMOOTH",
"256 485 OFFCURVE",
"267 528 OFFCURVE",
"273 535 CURVE",
"337 549 LINE",
"343 587 LINE",
"127 587 LINE",
"117 549 LINE",
"175 535 LINE",
"178 527 OFFCURVE",
"169 477 OFFCURVE",
"150 387 CURVE SMOOTH",
"110 199 LINE SMOOTH",
"91 111 OFFCURVE",
"79 61 OFFCURVE",
"73 52 CURVE",
"9 38 LINE",
"3 0 LINE"
);
},
{
closed = 1;
nodes = (
"230 275 OFFCURVE",
"274 276 OFFCURVE",
"350 276 CURVE SMOOTH",
"426 276 OFFCURVE",
"467 275 OFFCURVE",
"497 272 CURVE",
"510 331 LINE",
"484 329 OFFCURVE",
"434 328 OFFCURVE",
"361 328 CURVE SMOOTH",
"288 328 OFFCURVE",
"239 329 OFFCURVE",
"213 331 CURVE",
"200 272 LINE"
);
}
);
};
layerId = "720C727D-0ED9-429E-914E-55EB9E513E33";
paths = (
{
closed = 1;
nodes = (
"230 275 OFFCURVE",
"274 276 OFFCURVE",
"350 276 CURVE SMOOTH",
"426 276 OFFCURVE",
"467 275 OFFCURVE",
"497 272 CURVE",
"510 331 LINE",
"484 329 OFFCURVE",
"434 328 OFFCURVE",
"361 328 CURVE SMOOTH",
"288 328 OFFCURVE",
"239 329 OFFCURVE",
"213 331 CURVE",
"200 272 LINE"
);
},
{
closed = 1;
nodes = (
"216 0 LINE",
"226 38 LINE",
"168 52 LINE",
"169 70 OFFCURVE",
"173 101 OFFCURVE",
"193 197 CURVE SMOOTH",
"233 385 LINE SMOOTH",
"252 473 OFFCURVE",
"265 518 OFFCURVE",
"270 535 CURVE",
"334 549 LINE",
"340 587 LINE",
"128 587 LINE",
"118 549 LINE",
"176 535 LINE",
"175 517 OFFCURVE",
"168 475 OFFCURVE",
"149 385 CURVE SMOOTH",
"109 197 LINE SMOOTH",
"90 109 OFFCURVE",
"81 71 OFFCURVE",
"75 52 CURVE",
"11 38 LINE",
"5 0 LINE"
);
},
{
closed = 1;
nodes = (
"580 0 LINE",
"590 38 LINE",
"532 52 LINE",
"533 70 OFFCURVE",
"537 101 OFFCURVE",
"557 197 CURVE SMOOTH",
"597 385 LINE SMOOTH",
"616 473 OFFCURVE",
"629 518 OFFCURVE",
"634 535 CURVE",
"698 549 LINE",
"704 587 LINE",
"492 587 LINE",
"482 549 LINE",
"540 535 LINE",
"539 517 OFFCURVE",
"532 475 OFFCURVE",
"513 385 CURVE SMOOTH",
"473 197 LINE SMOOTH",
"454 109 OFFCURVE",
"445 71 OFFCURVE",
"439 52 CURVE",
"375 38 LINE",
"369 0 LINE"
);
}
);
width = 673;
},
{
anchors = (
{
name = bottom;
position = "{305, 0}";
},
{
name = center;
position = "{396, 434}";
},
{
name = top;
position = "{429, 587}";
},
{
name = topleft;
position = "{106, 587}";
}
);
background = {
anchors = (
{
name = bottom;
position = "{305, 0}";
},
{
name = center;
position = "{397, 434}";
},
{
name = top;
position = "{429, 587}";
},
{
name = topleft;
position = "{106, 587}";
}
);
paths = (
{
closed = 1;
nodes = (
"621 0 LINE",
"634 50 LINE",
"574 67 LINE",
"572 77 OFFCURVE",
"584 153 OFFCURVE",
"599 221 CURVE SMOOTH",
"629 366 LINE SMOOTH",
"644 436 OFFCURVE",
"664 512 OFFCURVE",
"670 521 CURVE",
"738 537 LINE",
"745 587 LINE",
"473 587 LINE",
"460 537 LINE",
"518 521 LINE",
"520 512 OFFCURVE",
"509 445 OFFCURVE",
"492 366 CURVE SMOOTH",
"462 221 LINE SMOOTH",
"445 144 OFFCURVE",
"428 77 OFFCURVE",
"422 67 CURVE",
"356 50 LINE",
"349 0 LINE"
);
},
{
closed = 1;
nodes = (
"261 0 LINE",
"274 50 LINE",
"216 67 LINE",
"214 77 OFFCURVE",
"225 144 OFFCURVE",
"242 221 CURVE SMOOTH",
"272 366 LINE SMOOTH",
"289 445 OFFCURVE",
"306 512 OFFCURVE",
"312 521 CURVE",
"378 537 LINE",
"385 587 LINE",
"114 587 LINE",
"101 537 LINE",
"161 521 LINE",
"164 514 OFFCURVE",
"153 448 OFFCURVE",
"135 366 CURVE SMOOTH",
"105 221 LINE SMOOTH",
"88 141 OFFCURVE",
"71 75 OFFCURVE",
"65 67 CURVE",
"-3 50 LINE",
"-10 0 LINE"
);
},
{
closed = 1;
nodes = (
"255 262 OFFCURVE",
"295 265 OFFCURVE",
"361 265 CURVE SMOOTH",
"427 265 OFFCURVE",
"465 262 OFFCURVE",
"493 261 CURVE",
"509 338 LINE",
"476 335 OFFCURVE",
"438 334 OFFCURVE",
"376 334 CURVE SMOOTH",
"314 334 OFFCURVE",
"276 335 OFFCURVE",
"243 338 CURVE",
"227 261 LINE"
);
}
);
};
layerId = "DEDDD934-E4FE-4A27-B966-8C21F8A9BC34";
paths = (
{
closed = 1;
nodes = (
"255 262 OFFCURVE",
"295 265 OFFCURVE",
"361 265 CURVE SMOOTH",
"427 265 OFFCURVE",
"465 262 OFFCURVE",
"493 261 CURVE",
"509 338 LINE",
"476 335 OFFCURVE",
"438 334 OFFCURVE",
"376 334 CURVE SMOOTH",
"314 334 OFFCURVE",
"276 335 OFFCURVE",
"243 338 CURVE",
"227 261 LINE"
);
},
{
closed = 1;
nodes = (
"259 0 LINE",
"273 50 LINE",
"213 67 LINE",
"216 90 OFFCURVE",
"225 144 OFFCURVE",
"241 221 CURVE SMOOTH",
"272 368 LINE SMOOTH",
"289 448 OFFCURVE",
"304 506 OFFCURVE",
"310 521 CURVE",
"377 537 LINE",
"385 587 LINE",
"116 587 LINE",
"102 537 LINE",
"163 521 LINE",
"161 500 OFFCURVE",
"152 450 OFFCURVE",
"135 368 CURVE SMOOTH",
"104 221 LINE SMOOTH",
"87 141 OFFCURVE",
"72 85 OFFCURVE",
"66 67 CURVE",
"-2 50 LINE",
"-10 0 LINE"
);
},
{
closed = 1;
nodes = (
"617 0 LINE",
"631 50 LINE",
"571 67 LINE",
"574 90 OFFCURVE",
"583 144 OFFCURVE",
"599 221 CURVE SMOOTH",
"630 368 LINE SMOOTH",
"647 447 OFFCURVE",
"662 502 OFFCURVE",
"668 521 CURVE",
"735 537 LINE",
"743 587 LINE",
"474 587 LINE",
"460 537 LINE",
"521 521 LINE",
"519 500 OFFCURVE",
"510 450 OFFCURVE",
"493 368 CURVE SMOOTH",
"462 221 LINE SMOOTH",
"445 141 OFFCURVE",
"430 85 OFFCURVE",
"424 67 CURVE",
"356 50 LINE",
"348 0 LINE"
);
}
);
width = 702;
}
);
leftKerningGroup = H;
note = H;
rightKerningGroup = H;
unicode = 0048;
},
{
glyphname = I;
lastChange = "2018-08-22 12:32:02 +0000";
layers = (
{
anchors = (
{
name = bottom;
position = "{109, 0}";
},
{
name = ogonek;
position = "{216, 0}";
},
{
name = top;
position = "{234, 587}";
},
{
name = topleft;
position = "{105, 587}";
}
);
background = {
anchors = (
{
name = bottom;
position = "{657, 0}";
},
{
name = ogonek;
position = "{714, 0}";
},
{
name = top;
position = "{657, 587}";
},
{
name = topleft;
position = "{527, 587}";
}
);
paths = (
{
closed = 1;
nodes = (
"765 0 LINE",
"767 38 LINE",
"706 52 LINE",
"701 60 OFFCURVE",
"699 103 OFFCURVE",
"699 199 CURVE SMOOTH",
"699 387 LINE SMOOTH",
"699 485 OFFCURVE",
"701 528 OFFCURVE",
"706 535 CURVE",
"767 549 LINE",
"765 587 LINE",
"549 587 LINE",
"547 549 LINE",
"608 535 LINE",
"612 527 OFFCURVE",
"614 477 OFFCURVE",
"614 387 CURVE SMOOTH",
"614 199 LINE SMOOTH",
"614 111 OFFCURVE",
"612 61 OFFCURVE",
"608 52 CURVE",
"547 38 LINE",
"549 0 LINE"
);
},
{
closed = 1;
nodes = (
"623 0 LINE",
"632 38 LINE",
"574 52 LINE",
"571 60 OFFCURVE",
"578 103 OFFCURVE",
"596 199 CURVE SMOOTH",
"632 387 LINE SMOOTH",
"651 485 OFFCURVE",
"662 528 OFFCURVE",
"668 535 CURVE",
"732 549 LINE",
"737 587 LINE",
"521 587 LINE",
"512 549 LINE",
"570 535 LINE",
"572 527 OFFCURVE",
"564 477 OFFCURVE",
"547 387 CURVE SMOOTH",
"511 199 LINE SMOOTH",
"494 111 OFFCURVE",
"482 61 OFFCURVE",
"476 52 CURVE",
"412 38 LINE",
"407 0 LINE"
);
},
{
closed = 1;
nodes = (
"216 0 LINE",
"226 38 LINE",
"168 52 LINE",
"169 70 OFFCURVE",
"173 101 OFFCURVE",
"193 197 CURVE SMOOTH",
"234 387 LINE SMOOTH",
"252 475 OFFCURVE",
"265 518 OFFCURVE",
"270 535 CURVE",
"334 549 LINE",
"340 587 LINE",
"127 587 LINE",
"117 549 LINE",
"175 535 LINE",
"174 517 OFFCURVE",
"168 477 OFFCURVE",
"149 387 CURVE SMOOTH",
"108 197 LINE SMOOTH",
"90 109 OFFCURVE",
"80 71 OFFCURVE",
"74 52 CURVE",
"10 38 LINE",
"4 0 LINE"
);
}
);
};
layerId = "720C727D-0ED9-429E-914E-55EB9E513E33";
paths = (
{
closed = 1;
nodes = (
"216 0 LINE",
"226 38 LINE",
"168 52 LINE",
"169 70 OFFCURVE",
"173 101 OFFCURVE",
"193 197 CURVE SMOOTH",
"233 385 LINE SMOOTH",
"252 473 OFFCURVE",
"265 518 OFFCURVE",
"270 535 CURVE",
"334 549 LINE",
"340 587 LINE",
"128 587 LINE",
"118 549 LINE",
"176 535 LINE",
"175 517 OFFCURVE",
"168 475 OFFCURVE",
"149 385 CURVE SMOOTH",
"109 197 LINE SMOOTH",
"90 109 OFFCURVE",
"81 71 OFFCURVE",
"75 52 CURVE",
"11 38 LINE",
"5 0 LINE"
);
}
);
width = 310;
},
{
anchors = (
{
name = bottom;
position = "{126, 0}";
},
{
name = ogonek;
position = "{259, 0}";
},
{
name = top;
position = "{249, 587}";
},
{
name = topleft;
position = "{108, 587}";
}
);
background = {
anchors = (
{
name = bottom;
position = "{188, 0}";
},
{
name = ogonek;
position = "{262, 0}";
},
{
name = top;
position = "{188, 587}";
},
{
name = topleft;
position = "{43, 587}";
}
);
paths = (
{
closed = 1;
nodes = (
"324 0 LINE",
"327 50 LINE",
"263 67 LINE",
"259 77 OFFCURVE",
"256 144 OFFCURVE",
"256 221 CURVE SMOOTH",
"256 366 LINE SMOOTH",
"256 445 OFFCURVE",
"259 512 OFFCURVE",
"263 521 CURVE",
"327 537 LINE",
"324 587 LINE",
"51 587 LINE",
"48 537 LINE",
"112 521 LINE",
"116 514 OFFCURVE",
"119 448 OFFCURVE",
"119 366 CURVE SMOOTH",
"119 221 LINE SMOOTH",
"119 141 OFFCURVE",
"116 75 OFFCURVE",
"112 67 CURVE",
"48 50 LINE",
"51 0 LINE"
);
}
);
};
layerId = "DEDDD934-E4FE-4A27-B966-8C21F8A9BC34";
paths = (
{
closed = 1;
nodes = (
"259 0 LINE",
"273 50 LINE",
"213 67 LINE",
"216 90 OFFCURVE",
"225 144 OFFCURVE",
"241 221 CURVE SMOOTH",
"272 368 LINE SMOOTH",
"289 447 OFFCURVE",
"304 502 OFFCURVE",
"310 521 CURVE",
"377 537 LINE",
"385 587 LINE",
"116 587 LINE",
"102 537 LINE",
"163 521 LINE",
"161 500 OFFCURVE",
"152 450 OFFCURVE",
"135 368 CURVE SMOOTH",
"104 221 LINE SMOOTH",
"87 141 OFFCURVE",
"72 85 OFFCURVE",
"66 67 CURVE",
"-2 50 LINE",
"-10 0 LINE"
);
}
);
width = 345;
}
);
leftKerningGroup = H;
note = I;
rightKerningGroup = H;
unicode = 0049;
},
{
glyphname = Iogonek;
lastChange = "2018-08-22 12:32:02 +0000";
layers = (
{
anchors = (
{
name = top;
position = "{234, 587}";
}
);
background = {
paths = (
{
closed = 1;
nodes = (
"216 0 LINE",
"226 38 LINE",
"168 52 LINE",
"169 70 OFFCURVE",
"173 101 OFFCURVE",
"193 197 CURVE SMOOTH",
"233 385 LINE SMOOTH",
"252 473 OFFCURVE",
"265 518 OFFCURVE",
"270 535 CURVE",
"334 549 LINE",
"340 587 LINE",
"128 587 LINE",
"118 549 LINE",
"176 535 LINE",
"175 517 OFFCURVE",
"168 475 OFFCURVE",
"149 385 CURVE SMOOTH",
"109 197 LINE SMOOTH",
"90 109 OFFCURVE",
"81 71 OFFCURVE",
"75 52 CURVE",
"11 38 LINE",
"5 0 LINE"
);
},
{
closed = 1;
nodes = (
"108 -223 OFFCURVE",
"149 -205 OFFCURVE",
"181 -173 CURVE",
"165 -146 LINE",
"139 -169 OFFCURVE",
"114 -181 OFFCURVE",
"92 -181 CURVE SMOOTH",
"63 -181 OFFCURVE",
"45 -165 OFFCURVE",
"45 -136 CURVE SMOOTH",
"45 -85 OFFCURVE",
"99 -33 OFFCURVE",
"216 0 CURVE",
"182 19 LINE",
"47 -20 OFFCURVE",
"-27 -80 OFFCURVE",
"-27 -147 CURVE SMOOTH",
"-27 -190 OFFCURVE",
"7 -223 OFFCURVE",
"70 -223 CURVE SMOOTH"
);
}
);
};
layerId = "720C727D-0ED9-429E-914E-55EB9E513E33";
paths = (
{
closed = 1;
nodes = (
"118 549 LINE",
"176 535 LINE",
"175 517 OFFCURVE",
"168 475 OFFCURVE",
"149 385 CURVE SMOOTH",
"109 197 LINE SMOOTH",
"90 109 OFFCURVE",
"81 71 OFFCURVE",
"75 52 CURVE",
"11 38 LINE",
"5 0 LINE",
"181 0 LINE",
"182 15 LINE",
"47 -20 OFFCURVE",
"-27 -80 OFFCURVE",
"-27 -147 CURVE SMOOTH",
"-27 -190 OFFCURVE",
"7 -223 OFFCURVE",
"70 -223 CURVE SMOOTH",
"108 -223 OFFCURVE",
"149 -205 OFFCURVE",
"181 -173 CURVE",
"165 -146 LINE",
"139 -169 OFFCURVE",
"114 -181 OFFCURVE",
"92 -181 CURVE SMOOTH",
"63 -181 OFFCURVE",
"45 -165 OFFCURVE",
"45 -136 CURVE SMOOTH",
"45 -85 OFFCURVE",
"99 -33 OFFCURVE",
"216 0 CURVE",
"226 38 LINE",
"168 52 LINE",
"169 70 OFFCURVE",
"173 101 OFFCURVE",
"193 197 CURVE SMOOTH",
"233 385 LINE SMOOTH",
"252 473 OFFCURVE",
"265 518 OFFCURVE",
"270 535 CURVE",
"334 549 LINE",
"340 587 LINE",
"128 587 LINE"
);
}
);
width = 310;
},
{
anchors = (
{
name = top;
position = "{249, 587}";
}
);
background = {
paths = (
{
closed = 1;
nodes = (
"259 0 LINE",
"273 50 LINE",
"213 67 LINE",
"216 90 OFFCURVE",
"225 144 OFFCURVE",
"241 221 CURVE SMOOTH",
"272 368 LINE SMOOTH",
"289 447 OFFCURVE",
"304 502 OFFCURVE",
"310 521 CURVE",
"377 537 LINE",
"385 587 LINE",
"116 587 LINE",
"102 537 LINE",
"163 521 LINE",
"161 500 OFFCURVE",
"152 450 OFFCURVE",
"135 368 CURVE SMOOTH",
"104 221 LINE SMOOTH",
"87 141 OFFCURVE",
"72 85 OFFCURVE",
"66 67 CURVE",
"-2 50 LINE",
"-10 0 LINE"
);
},
{
closed = 1;
nodes = (
"133 -223 OFFCURVE",
"174 -205 OFFCURVE",
"206 -173 CURVE",
"187 -134 LINE",
"162 -157 OFFCURVE",
"136 -168 OFFCURVE",
"114 -168 CURVE SMOOTH",
"89 -168 OFFCURVE",
"69 -154 OFFCURVE",
"69 -125 CURVE SMOOTH",
"69 -85 OFFCURVE",
"108 -32 OFFCURVE",
"259 0 CURVE",
"195 13 LINE",
"43 -11 OFFCURVE",
"-30 -76 OFFCURVE",
"-30 -137 CURVE SMOOTH",
"-30 -189 OFFCURVE",
"21 -223 OFFCURVE",
"86 -223 CURVE SMOOTH"
);
}
);
};
layerId = "DEDDD934-E4FE-4A27-B966-8C21F8A9BC34";
paths = (
{
closed = 1;
nodes = (
"102 537 LINE",
"163 521 LINE",
"161 500 OFFCURVE",
"152 450 OFFCURVE",
"135 368 CURVE SMOOTH",
"104 221 LINE SMOOTH",
"87 141 OFFCURVE",
"72 85 OFFCURVE",
"66 67 CURVE",
"-2 50 LINE",
"-10 0 LINE",
"195 0 LINE",
"195 13 LINE",
"43 -11 OFFCURVE",
"-30 -76 OFFCURVE",
"-30 -137 CURVE SMOOTH",
"-30 -189 OFFCURVE",
"21 -223 OFFCURVE",
"86 -223 CURVE SMOOTH",
"133 -223 OFFCURVE",
"174 -205 OFFCURVE",
"206 -173 CURVE",
"187 -134 LINE",
"162 -157 OFFCURVE",
"136 -168 OFFCURVE",
"114 -168 CURVE SMOOTH",
"89 -168 OFFCURVE",
"69 -154 OFFCURVE",
"69 -125 CURVE SMOOTH",
"69 -85 OFFCURVE",
"108 -32 OFFCURVE",
"259 0 CURVE",
"273 50 LINE",
"213 67 LINE",
"216 90 OFFCURVE",
"225 144 OFFCURVE",
"241 221 CURVE SMOOTH",
"272 368 LINE SMOOTH",
"289 447 OFFCURVE",
"304 502 OFFCURVE",
"310 521 CURVE",
"377 537 LINE",
"385 587 LINE",
"116 587 LINE"
);
}
);
width = 345;
}
);
leftKerningGroup = H;
widthMetricsKey = I;
note = Iogonek;
rightKerningGroup = H;
rightMetricsKey = I;
unicode = 012E;
},
{
glyphname = J;
lastChange = "2018-08-22 12:32:02 +0000";
layers = (
{
anchors = (
{
name = top;
position = "{236, 587}";
}
);
background = {
paths = (
{
closed = 1;
nodes = (
"335 549 LINE",
"341 587 LINE",
"121 587 LINE",
"111 549 LINE",
"176 535 LINE",
"175 518 OFFCURVE",
"168 475 OFFCURVE",
"149 385 CURVE SMOOTH",
"61 -27 LINE",
"39 -131 OFFCURVE",
"7 -171 OFFCURVE",
"-47 -161 CURVE",
"-15 -173 LINE",
"-56 -121 LINE SMOOTH",
"-70 -103 OFFCURVE",
"-84 -95 OFFCURVE",
"-102 -95 CURVE SMOOTH",
"-126 -95 OFFCURVE",
"-144 -110 OFFCURVE",
"-149 -132 CURVE SMOOTH",
"-157 -170 OFFCURVE",
"-112 -203 OFFCURVE",
"-51 -203 CURVE SMOOTH",
"49 -203 OFFCURVE",
"128 -119 OFFCURVE",
"157 16 CURVE",
"234 385 LINE SMOOTH",
"252 473 OFFCURVE",
"266 518 OFFCURVE",
"271 535 CURVE"
);
}
);
};
layerId = "720C727D-0ED9-429E-914E-55EB9E513E33";
paths = (
{
closed = 1;
nodes = (
"234 385 LINE SMOOTH",
"252 473 OFFCURVE",
"266 518 OFFCURVE",
"271 535 CURVE",
"335 549 LINE",
"341 587 LINE",
"121 587 LINE",
"111 549 LINE",
"176 535 LINE",
"175 518 OFFCURVE",
"168 475 OFFCURVE",
"149 385 CURVE SMOOTH",
"66 -5 LINE SMOOTH",
"46 -98 OFFCURVE",
"21 -129 OFFCURVE",
"-37 -129 CURVE SMOOTH",
"-70 -129 OFFCURVE",
"-100 -118 OFFCURVE",
"-120 -101 CURVE",
"-138 -118 OFFCURVE",
"-147 -135 OFFCURVE",
"-147 -153 CURVE SMOOTH",
"-147 -184 OFFCURVE",
"-115 -202 OFFCURVE",
"-74 -202 CURVE SMOOTH",
"26 -202 OFFCURVE",
"132 -100 OFFCURVE",
"167 65 CURVE SMOOTH"
);
}
);
width = 311;
},
{
anchors = (
{
name = top;
position = "{251, 587}";
}
);
background = {
anchors = (
{
name = top;
position = "{167, 587}";
}
);
paths = (
{
closed = 1;
nodes = (
"115 271 LINE",
"55 -18 LINE SMOOTH",
"41 -87 OFFCURVE",
"15 -99 OFFCURVE",
"-20 -99 CURVE SMOOTH",
"-57 -99 OFFCURVE",
"-83 -84 OFFCURVE",
"-107 -62 CURVE",
"-137 -82 OFFCURVE",
"-158 -110 OFFCURVE",
"-158 -139 CURVE SMOOTH",
"-158 -178 OFFCURVE",
"-122 -203 OFFCURVE",
"-71 -203 CURVE SMOOTH",
"50 -203 OFFCURVE",
"186 -53 OFFCURVE",
"219 109 CURVE SMOOTH",
"259 304 LINE"
);
}
);
};
layerId = "DEDDD934-E4FE-4A27-B966-8C21F8A9BC34";
paths = (
{
closed = 1;
nodes = (
"272 368 LINE",
"290 449 OFFCURVE",
"306 513 OFFCURVE",
"312 521 CURVE",
"379 537 LINE",
"387 587 LINE",
"107 587 LINE",
"93 537 LINE",
"161 522 LINE",
"163 511 OFFCURVE",
"151 443 OFFCURVE",
"136 370 CURVE",
"55 -18 LINE SMOOTH",
"43 -77 OFFCURVE",
"22 -99 OFFCURVE",
"-20 -99 CURVE SMOOTH",
"-57 -99 OFFCURVE",
"-83 -84 OFFCURVE",
"-107 -62 CURVE",
"-137 -82 OFFCURVE",
"-158 -110 OFFCURVE",
"-158 -139 CURVE SMOOTH",
"-158 -178 OFFCURVE",
"-122 -203 OFFCURVE",
"-71 -203 CURVE SMOOTH",
"50 -203 OFFCURVE",
"184 -63 OFFCURVE",
"217 99 CURVE SMOOTH"
);
}
);
width = 345;
}
);
leftKerningGroup = J;
note = J;
rightKerningGroup = J;
unicode = 004A;
},
{
glyphname = K;
lastChange = "2018-08-22 12:32:02 +0000";
layers = (
{
anchors = (
{
name = bottom;
position = "{271, 0}";
},
{
name = top;
position = "{395, 587}";
}
);
background = {
anchors = (
{
name = bottom;
position = "{271, 0}";
},
{
name = top;
position = "{395, 587}";
}
);
paths = (
{
closed = 1;
nodes = (
"552 0 LINE",
"560 39 LINE",
"512 51 LINE",
"500 64 OFFCURVE",
"485 89 OFFCURVE",
"459 126 CURVE SMOOTH",
"314 339 LINE",
"304 309 LINE",
"594 537 LINE",
"654 547 LINE",
"660 587 LINE",
"467 587 LINE",
"457 549 LINE",
"516 536 LINE",
"264 323 LINE",
"208 309 LINE",
"200 272 LINE",
"241 272 LINE",
"357 98 LINE SMOOTH",
"370 79 OFFCURVE",
"380 62 OFFCURVE",
"387 48 CURVE",
"324 38 LINE",
"318 0 LINE"
);
},
{
closed = 1;
nodes = (
"219 0 LINE",
"229 38 LINE",
"171 52 LINE",
"170 61 OFFCURVE",
"178 111 OFFCURVE",
"197 199 CURVE SMOOTH",
"237 387 LINE SMOOTH",
"257 483 OFFCURVE",
"269 528 OFFCURVE",
"275 535 CURVE",
"339 549 LINE",
"345 587 LINE",
"128 587 LINE",
"118 549 LINE",
"176 535 LINE",
"179 527 OFFCURVE",
"170 477 OFFCURVE",
"151 387 CURVE SMOOTH",
"111 199 LINE SMOOTH",
"92 111 OFFCURVE",
"80 61 OFFCURVE",
"74 52 CURVE",
"10 38 LINE",
"4 0 LINE"
);
}
);
};
layerId = "720C727D-0ED9-429E-914E-55EB9E513E33";
paths = (
{
closed = 1;
nodes = (
"544 0 LINE",
"552 39 LINE",
"504 51 LINE",
"492 64 OFFCURVE",
"476 89 OFFCURVE",
"451 126 CURVE SMOOTH",
"306 339 LINE",
"307 309 LINE",
"597 537 LINE",
"657 547 LINE",
"663 587 LINE",
"461 587 LINE",
"451 549 LINE",
"510 536 LINE",
"260 323 LINE",
"208 309 LINE",
"200 272 LINE",
"246 272 LINE",
"362 98 LINE SMOOTH",
"375 79 OFFCURVE",
"385 62 OFFCURVE",
"392 48 CURVE",
"329 38 LINE",
"323 0 LINE"
);
},
{
closed = 1;
nodes = (
"217 0 LINE",
"227 38 LINE",
"169 52 LINE",
"170 70 OFFCURVE",
"174 101 OFFCURVE",
"194 197 CURVE SMOOTH",
"234 385 LINE SMOOTH",
"253 473 OFFCURVE",
"266 518 OFFCURVE",
"271 535 CURVE",
"335 549 LINE",
"341 587 LINE",
"129 587 LINE",
"119 549 LINE",
"177 535 LINE",
"176 517 OFFCURVE",
"169 475 OFFCURVE",
"150 385 CURVE SMOOTH",
"110 197 LINE SMOOTH",
"91 109 OFFCURVE",
"82 71 OFFCURVE",
"76 52 CURVE",
"12 38 LINE",
"6 0 LINE"
);
}
);
width = 591;
},
{
anchors = (
{
name = bottom;
position = "{286, 0}";
},
{
name = top;
position = "{410, 587}";
}
);
background = {
anchors = (
{
name = bottom;
position = "{686, 0}";
},
{
name = top;
position = "{810, 587}";
}
);
paths = (
{
closed = 1;
nodes = (
"625 0 LINE",
"635 51 LINE",
"585 59 LINE",
"577 69 OFFCURVE",
"565 85 OFFCURVE",
"530 142 CURVE SMOOTH",
"386 373 LINE",
"381 329 LINE",
"640 524 LINE",
"710 535 LINE",
"718 587 LINE",
"489 587 LINE",
"476 537 LINE",
"537 525 LINE",
"286 314 LINE",
"243 305 LINE",
"233 258 LINE",
"271 258 LINE",
"362 109 LINE SMOOTH",
"376 85 OFFCURVE",
"381 75 OFFCURVE",
"385 60 CURVE",
"331 50 LINE",
"324 0 LINE"
);
},
{
closed = 1;
nodes = (
"250 0 LINE",
"263 50 LINE",
"215 67 LINE",
"214 75 OFFCURVE",
"226 137 OFFCURVE",
"243 221 CURVE SMOOTH",
"273 366 LINE SMOOTH",
"289 445 OFFCURVE",
"307 511 OFFCURVE",
"313 520 CURVE",
"381 537 LINE",
"388 587 LINE",
"115 587 LINE",
"102 537 LINE",
"162 520 LINE",
"165 513 OFFCURVE",
"153 448 OFFCURVE",
"136 366 CURVE SMOOTH",
"106 221 LINE SMOOTH",
"89 137 OFFCURVE",
"73 75 OFFCURVE",
"68 67 CURVE",
"0 50 LINE",
"-7 0 LINE"
);
}
);
};
layerId = "DEDDD934-E4FE-4A27-B966-8C21F8A9BC34";
paths = (
{
closed = 1;
nodes = (
"617 0 LINE",
"628 51 LINE",
"578 59 LINE",
"570 69 OFFCURVE",
"559 85 OFFCURVE",
"523 142 CURVE SMOOTH",
"379 373 LINE",
"385 329 LINE",
"643 524 LINE",
"713 535 LINE",
"721 587 LINE",
"485 587 LINE",
"471 537 LINE",
"532 525 LINE",
"283 314 LINE",
"243 305 LINE",
"233 258 LINE",
"277 258 LINE",
"368 109 LINE SMOOTH",
"382 85 OFFCURVE",
"387 75 OFFCURVE",
"391 60 CURVE",
"337 50 LINE",
"329 0 LINE"
);
},
{
closed = 1;
nodes = (
"250 0 LINE",
"263 50 LINE",
"215 67 LINE",
"217 90 OFFCURVE",
"226 144 OFFCURVE",
"242 221 CURVE SMOOTH",
"273 368 LINE SMOOTH",
"290 447 OFFCURVE",
"305 502 OFFCURVE",
"311 521 CURVE",
"378 537 LINE",
"386 587 LINE",
"117 587 LINE",
"103 537 LINE",
"164 521 LINE",
"162 500 OFFCURVE",
"153 450 OFFCURVE",
"136 368 CURVE SMOOTH",
"105 221 LINE SMOOTH",
"88 141 OFFCURVE",
"73 85 OFFCURVE",
"68 67 CURVE",
"-1 50 LINE",
"-9 0 LINE"
);
}
);
width = 657;
}
);
leftKerningGroup = H;
note = K;
rightKerningGroup = K;
unicode = 004B;
},
{
glyphname = L;
lastChange = "2018-08-22 12:32:02 +0000";
layers = (
{
anchors = (
{
name = bottom;
position = "{236, 0}";
},
{
name = center;
position = "{214, 303}";
},
{
name = dotacc;
position = "{371, 320}";
},
{
name = top;
position = "{238, 587}";
},
{
name = topright;
position = "{447, 587}";
}
);
background = {
paths = (
{
closed = 1;
nodes = (
"497 148 LINE",
"454 158 LINE",
"426 116 OFFCURVE",
"404 88 OFFCURVE",
"381 60 CURVE",
"359 57 OFFCURVE",
"344 56 OFFCURVE",
"308 56 CURVE SMOOTH",
"234 56 LINE SMOOTH",
"208 56 OFFCURVE",
"189 57 OFFCURVE",
"172 59 CURVE",
"173 73 OFFCURVE",
"183 130 OFFCURVE",
"198 199 CURVE SMOOTH",
"238 387 LINE SMOOTH",
"258 483 OFFCURVE",
"270 527 OFFCURVE",
"277 534 CURVE",
"362 547 LINE",
"369 587 LINE",
"130 587 LINE",
"120 549 LINE",
"178 534 LINE",
"180 526 OFFCURVE",
"171 476 OFFCURVE",
"152 387 CURVE SMOOTH",
"112 199 LINE SMOOTH",
"93 111 OFFCURVE",
"81 61 OFFCURVE",
"75 52 CURVE",
"11 38 LINE",
"5 0 LINE",
"327 0 LINE",
"354 0 OFFCURVE",
"386 -2 OFFCURVE",
"423 -5 CURVE"
);
}
);
};
layerId = "720C727D-0ED9-429E-914E-55EB9E513E33";
paths = (
{
closed = 1;
nodes = (
"498 148 LINE",
"448 159 LINE",
"381 60 LINE",
"359 57 OFFCURVE",
"344 56 OFFCURVE",
"308 56 CURVE SMOOTH",
"234 56 LINE SMOOTH",
"208 56 OFFCURVE",
"189 57 OFFCURVE",
"172 59 CURVE",
"172 70 OFFCURVE",
"176 101 OFFCURVE",
"196 197 CURVE SMOOTH",
"236 385 LINE SMOOTH",
"255 473 OFFCURVE",
"268 518 OFFCURVE",
"273 535 CURVE",
"359 547 LINE",
"366 587 LINE",
"130 587 LINE",
"120 549 LINE",
"178 535 LINE",
"177 517 OFFCURVE",
"170 475 OFFCURVE",
"151 385 CURVE SMOOTH",
"111 197 LINE SMOOTH",
"92 109 OFFCURVE",
"83 71 OFFCURVE",
"77 52 CURVE",
"13 38 LINE",
"7 0 LINE",
"329 0 LINE",
"356 0 OFFCURVE",
"388 -2 OFFCURVE",
"425 -5 CURVE"
);
}
);
width = 513;
},
{
anchors = (
{
name = bottom;
position = "{251, 0}";
},
{
name = center;
position = "{220, 303}";
},
{
name = dotacc;
position = "{409, 320}";
},
{
name = top;
position = "{251, 587}";
},
{
name = topright;
position = "{460, 587}";
}
);
background = {
paths = (
{
closed = 1;
nodes = (
"938 174 LINE",
"880 189 LINE",
"800 80 LINE",
"786 77 OFFCURVE",
"778 74 OFFCURVE",
"728 74 CURVE SMOOTH",
"701 74 LINE SMOOTH",
"661 74 OFFCURVE",
"639 75 OFFCURVE",
"617 78 CURVE",
"618 96 OFFCURVE",
"626 142 OFFCURVE",
"643 221 CURVE SMOOTH",
"674 366 LINE SMOOTH",
"692 448 OFFCURVE",
"708 512 OFFCURVE",
"714 519 CURVE",
"805 535 LINE",
"813 587 LINE",
"515 587 LINE",
"502 537 LINE",
"562 520 LINE",
"564 511 OFFCURVE",
"552 442 OFFCURVE",
"536 366 CURVE SMOOTH",
"505 221 LINE SMOOTH",
"489 147 OFFCURVE",
"472 77 OFFCURVE",
"466 67 CURVE",
"398 50 LINE",
"390 0 LINE",
"693 0 LINE",
"726 0 OFFCURVE",
"805 -3 OFFCURVE",
"851 -7 CURVE"
);
},
{
closed = 1;
nodes = (
"261 0 LINE",
"275 50 LINE",
"215 67 LINE",
"218 90 OFFCURVE",
"227 144 OFFCURVE",
"243 221 CURVE SMOOTH",
"274 368 LINE SMOOTH",
"291 448 OFFCURVE",
"306 506 OFFCURVE",
"312 521 CURVE",
"379 537 LINE",
"387 587 LINE",
"117 587 LINE",
"103 537 LINE",
"164 521 LINE",
"162 500 OFFCURVE",
"153 450 OFFCURVE",
"136 368 CURVE SMOOTH",
"105 221 LINE SMOOTH",
"88 141 OFFCURVE",
"73 85 OFFCURVE",
"67 67 CURVE",
"-1 50 LINE",
"-9 0 LINE"
);
}
);
};
layerId = "DEDDD934-E4FE-4A27-B966-8C21F8A9BC34";
paths = (
{
closed = 1;
nodes = (
"538 174 LINE",
"480 189 LINE",
"400 80 LINE",
"386 77 OFFCURVE",
"378 74 OFFCURVE",
"328 74 CURVE SMOOTH",
"301 74 LINE SMOOTH",
"261 74 OFFCURVE",
"239 75 OFFCURVE",
"217 78 CURVE",
"218 90 OFFCURVE",
"227 144 OFFCURVE",
"243 221 CURVE SMOOTH",
"274 368 LINE SMOOTH",
"291 448 OFFCURVE",
"306 506 OFFCURVE",
"312 521 CURVE",
"398 535 LINE",
"406 587 LINE",
"117 587 LINE",
"103 537 LINE",
"164 521 LINE",
"162 500 OFFCURVE",
"153 450 OFFCURVE",
"136 368 CURVE SMOOTH",
"105 221 LINE SMOOTH",
"88 141 OFFCURVE",
"73 85 OFFCURVE",
"67 67 CURVE",
"-1 50 LINE",
"-9 0 LINE",
"293 0 LINE",
"326 0 OFFCURVE",
"405 -3 OFFCURVE",
"451 -7 CURVE"
);
}
);
width = 551;
}
);
leftKerningGroup = H;
note = L;
rightKerningGroup = L;
unicode = 004C;
},
{
glyphname = M;
lastChange = "2018-08-22 12:32:02 +0000";
layers = (
{
anchors = (
{
name = bottom;
position = "{367, 0}";
},
{
name = top;
position = "{492, 587}";
}
);
background = {
anchors = (
{
name = bottom;
position = "{367, 0}";
},
{
name = top;
position = "{492, 587}";
}
);
paths = (
{
closed = 1;
nodes = (
"125 549 LINE",
"183 535 LINE",
"178 507 OFFCURVE",
"168 456 OFFCURVE",
"155 401 CURVE SMOOTH",
"110 203 LINE SMOOTH",
"91 116 OFFCURVE",
"78 66 OFFCURVE",
"73 52 CURVE",
"2 38 LINE",
"-4 0 LINE",
"195 0 LINE",
"205 38 LINE",
"140 52 LINE",
"141 64 OFFCURVE",
"149 108 OFFCURVE",
"172 219 CURVE SMOOTH",
"244 558 LINE",
"220 558 LINE",
"346 -3 LINE",
"381 -3 LINE",
"743 558 LINE",
"717 558 LINE",
"644 203 LINE SMOOTH",
"621 91 OFFCURVE",
"615 63 OFFCURVE",
"611 51 CURVE",
"547 38 LINE",
"541 0 LINE",
"755 0 LINE",
"765 38 LINE",
"707 51 LINE",
"708 71 OFFCURVE",
"719 118 OFFCURVE",
"737 218 CURVE SMOOTH",
"770 401 LINE SMOOTH",
"781 462 OFFCURVE",
"794 522 OFFCURVE",
"799 536 CURVE",
"863 549 LINE",
"869 587 LINE",
"707 587 LINE",
"398 109 LINE",
"416 109 LINE",
"309 587 LINE",
"135 587 LINE"
);
}
);
};
layerId = "720C727D-0ED9-429E-914E-55EB9E513E33";
paths = (
{
closed = 1;
nodes = (
"125 549 LINE",
"183 535 LINE",
"178 507 OFFCURVE",
"167 458 OFFCURVE",
"155 403 CURVE SMOOTH",
"110 203 LINE SMOOTH",
"90 116 OFFCURVE",
"78 67 OFFCURVE",
"75 52 CURVE",
"4 38 LINE",
"-2 0 LINE",
"195 0 LINE",
"205 38 LINE",
"140 52 LINE",
"141 64 OFFCURVE",
"149 108 OFFCURVE",
"172 219 CURVE SMOOTH",
"244 558 LINE",
"220 558 LINE",
"346 -3 LINE",
"381 -3 LINE",
"743 558 LINE",
"717 558 LINE",
"644 203 LINE SMOOTH",
"621 91 OFFCURVE",
"618 67 OFFCURVE",
"614 51 CURVE",
"550 38 LINE",
"544 0 LINE",
"755 0 LINE",
"765 38 LINE",
"707 51 LINE",
"709 71 OFFCURVE",
"719 118 OFFCURVE",
"737 218 CURVE SMOOTH",
"770 401 LINE SMOOTH",
"781 462 OFFCURVE",
"794 522 OFFCURVE",
"799 536 CURVE",
"863 549 LINE",
"869 587 LINE",
"702 587 LINE",
"395 109 LINE",
"412 109 LINE",
"306 587 LINE",
"135 587 LINE"
);
}
);
width = 851;
},
{
anchors = (
{
name = bottom;
position = "{369, 0}";
},
{
name = top;
position = "{494, 587}";
}
);
background = {
paths = (
{
closed = 1;
nodes = (
"109 537 LINE",
"169 520 LINE",
"168 513 OFFCURVE",
"164 486 OFFCURVE",
"143 394 CURVE SMOOTH",
"100 203 LINE SMOOTH",
"87 144 OFFCURVE",
"70 78 OFFCURVE",
"65 67 CURVE",
"-8 50 LINE",
"-16 0 LINE",
"205 0 LINE",
"219 50 LINE",
"152 67 LINE",
"152 74 OFFCURVE",
"159 112 OFFCURVE",
"180 213 CURVE SMOOTH",
"253 558 LINE",
"189 558 LINE",
"337 -3 LINE",
"401 -3 LINE",
"759 558 LINE",
"712 558 LINE",
"644 221 LINE SMOOTH",
"626 132 OFFCURVE",
"613 75 OFFCURVE",
"608 67 CURVE",
"541 50 LINE",
"533 0 LINE",
"809 0 LINE",
"823 50 LINE",
"762 67 LINE",
"762 75 OFFCURVE",
"771 138 OFFCURVE",
"785 221 CURVE SMOOTH",
"815 396 LINE SMOOTH",
"829 479 OFFCURVE",
"837 511 OFFCURVE",
"841 521 CURVE",
"908 537 LINE",
"917 587 LINE",
"703 587 LINE",
"420 145 LINE",
"450 145 LINE",
"335 587 LINE",
"123 587 LINE"
);
}
);
};
layerId = "DEDDD934-E4FE-4A27-B966-8C21F8A9BC34";
paths = (
{
closed = 1;
nodes = (
"109 537 LINE",
"169 520 LINE",
"168 513 OFFCURVE",
"163 486 OFFCURVE",
"143 394 CURVE SMOOTH",
"100 203 LINE SMOOTH",
"86 141 OFFCURVE",
"72 85 OFFCURVE",
"65 67 CURVE",
"-9 50 LINE",
"-17 0 LINE",
"205 0 LINE",
"219 50 LINE",
"154 67 LINE",
"157 90 OFFCURVE",
"166 144 OFFCURVE",
"182 221 CURVE SMOOTH",
"253 558 LINE",
"189 558 LINE",
"337 -3 LINE",
"401 -3 LINE",
"759 558 LINE",
"712 558 LINE",
"648 241 LINE SMOOTH",
"632 161 OFFCURVE",
"613 85 OFFCURVE",
"610 67 CURVE",
"542 50 LINE",
"534 0 LINE",
"808 0 LINE",
"822 50 LINE",
"762 67 LINE",
"765 90 OFFCURVE",
"771 138 OFFCURVE",
"785 221 CURVE SMOOTH",
"814 386 LINE SMOOTH",
"828 469 OFFCURVE",
"836 501 OFFCURVE",
"840 521 CURVE",
"907 537 LINE",
"916 587 LINE",
"697 587 LINE",
"415 145 LINE",
"445 145 LINE",
"329 587 LINE",
"123 587 LINE"
);
}
);
width = 890;
}
);
leftKerningGroup = H;
note = M;
rightKerningGroup = H;
unicode = 004D;
},
{
glyphname = N;
lastChange = "2018-08-30 19:57:23 +0000";
layers = (
{
anchors = (
{
name = bottom;
position = "{292, 0}";
},
{
name = top;
position = "{417, 587}";
}
);
background = {
anchors = (
{
name = bottom;
position = "{292, 0}";
},
{
name = top;
position = "{417, 587}";
}
);
paths = (
{
closed = 1;
nodes = (
"509 146 LINE",
"266 587 LINE",
"127 587 LINE",
"117 549 LINE",
"175 535 LINE",
"176 523 OFFCURVE",
"173 496 OFFCURVE",
"152 394 CURVE SMOOTH",
"115 223 LINE SMOOTH",
"90 103 OFFCURVE",
"77 59 OFFCURVE",
"72 52 CURVE",
"8 38 LINE",
"2 0 LINE",
"199 0 LINE",
"209 38 LINE",
"144 52 LINE",
"142 59 OFFCURVE",
"147 103 OFFCURVE",
"172 223 CURVE SMOOTH",
"229 488 LINE",
"207 488 LINE",
"471 -4 LINE",
"515 -4 LINE",
"525 43 OFFCURVE",
"534 87 OFFCURVE",
"542 129 CURVE SMOOTH",
"593 367 LINE SMOOTH",
"618 484 OFFCURVE",
"631 529 OFFCURVE",
"636 535 CURVE",
"700 549 LINE",
"706 587 LINE",
"512 587 LINE",
"502 549 LINE",
"567 535 LINE",
"568 529 OFFCURVE",
"563 484 OFFCURVE",
"538 367 CURVE SMOOTH",
"491 146 LINE"
);
}
);
};
layerId = "720C727D-0ED9-429E-914E-55EB9E513E33";
paths = (
{
closed = 1;
nodes = (
"503 146 LINE",
"263 587 LINE",
"129 587 LINE",
"119 549 LINE",
"177 535 LINE",
"176 523 OFFCURVE",
"169 476 OFFCURVE",
"152 394 CURVE SMOOTH",
"118 233 LINE SMOOTH",
"97 133 OFFCURVE",
"82 70 OFFCURVE",
"76 52 CURVE",
"12 38 LINE",
"6 0 LINE",
"196 0 LINE",
"206 38 LINE",
"141 52 LINE",
"144 79 OFFCURVE",
"160 165 OFFCURVE",
"174 230 CURVE SMOOTH",
"229 488 LINE",
"208 488 LINE",
"473 -4 LINE",
"515 -4 LINE",
"525 43 OFFCURVE",
"534 87 OFFCURVE",
"542 129 CURVE SMOOTH",
"593 367 LINE SMOOTH",
"616 474 OFFCURVE",
"626 513 OFFCURVE",
"632 535 CURVE",
"696 549 LINE",
"702 587 LINE",
"514 587 LINE",
"504 549 LINE",
"569 535 LINE",
"567 515 OFFCURVE",
"561 474 OFFCURVE",
"538 367 CURVE SMOOTH",
"491 146 LINE"
);
}
);
width = 675;
},
{
anchors = (
{
name = bottom;
position = "{301, 0}";
},
{
name = top;
position = "{426, 587}";
}
);
background = {
anchors = (
{
name = bottom;
position = "{301, 0}";
},
{
name = top;
position = "{426, 587}";
}
);
paths = (
{
closed = 1;
nodes = (
"553 187 LINE",
"275 587 LINE",
"115 587 LINE",
"101 537 LINE",
"162 520 LINE",
"164 517 OFFCURVE",
"153 446 OFFCURVE",
"142 394 CURVE SMOOTH",
"114 263 LINE SMOOTH",
"93 162 OFFCURVE",
"72 78 OFFCURVE",
"65 67 CURVE",
"-2 50 LINE",
"-10 0 LINE",
"210 0 LINE",
"224 50 LINE",
"157 67 LINE",
"154 79 OFFCURVE",
"167 155 OFFCURVE",
"191 263 CURVE SMOOTH",
"234 459 LINE",
"178 459 LINE",
"483 -5 LINE",
"544 -5 LINE",
"554 42 OFFCURVE",
"563 86 OFFCURVE",
"577 148 CURVE SMOOTH",
"617 337 LINE SMOOTH",
"637 434 OFFCURVE",
"657 511 OFFCURVE",
"663 520 CURVE",
"730 537 LINE",
"738 587 LINE",
"523 587 LINE",
"509 537 LINE",
"576 520 LINE",
"578 511 OFFCURVE",
"564 433 OFFCURVE",
"544 337 CURVE SMOOTH",
"512 187 LINE"
);
}
);
};
layerId = "DEDDD934-E4FE-4A27-B966-8C21F8A9BC34";
paths = (
{
closed = 1;
nodes = (
"544 187 LINE",
"271 587 LINE",
"117 587 LINE",
"103 537 LINE",
"163 520 LINE",
"161 497 OFFCURVE",
"153 446 OFFCURVE",
"142 394 CURVE SMOOTH",
"114 263 LINE SMOOTH",
"93 162 OFFCURVE",
"75 91 OFFCURVE",
"68 67 CURVE",
"0 50 LINE",
"-8 0 LINE",
"208 0 LINE",
"222 50 LINE",
"156 67 LINE",
"158 90 OFFCURVE",
"168 155 OFFCURVE",
"191 263 CURVE SMOOTH",
"233 459 LINE",
"182 459 LINE",
"488 -5 LINE",
"544 -5 LINE",
"554 42 OFFCURVE",
"563 86 OFFCURVE",
"577 148 CURVE SMOOTH",
"617 337 LINE SMOOTH",
"635 424 OFFCURVE",
"651 491 OFFCURVE",
"661 520 CURVE",
"729 537 LINE",
"737 587 LINE",
"524 587 LINE",
"510 537 LINE",
"576 520 LINE",
"574 491 OFFCURVE",
"564 433 OFFCURVE",
"544 337 CURVE SMOOTH",
"512 187 LINE"
);
}
);
width = 697;
}
);
leftKerningGroup = H;
note = N;
rightKerningGroup = N;
unicode = 004E;
},
{
glyphname = Eng;
lastChange = "2018-08-22 12:32:02 +0000";
layers = (
{
background = {
paths = (
{
closed = 1;
nodes = (
"410 -228 OFFCURVE",
"486 -141 OFFCURVE",
"519 16 CURVE SMOOTH",
"593 367 LINE SMOOTH",
"616 474 OFFCURVE",
"626 513 OFFCURVE",
"632 535 CURVE",
"696 549 LINE",
"702 587 LINE",
"514 587 LINE",
"504 549 LINE",
"569 535 LINE",
"567 515 OFFCURVE",
"561 474 OFFCURVE",
"538 367 CURVE SMOOTH",
"491 146 LINE",
"503 146 LINE",
"263 587 LINE",
"129 587 LINE",
"119 549 LINE",
"177 535 LINE",
"176 523 OFFCURVE",
"169 476 OFFCURVE",
"152 394 CURVE SMOOTH",
"118 233 LINE SMOOTH",
"97 133 OFFCURVE",
"82 70 OFFCURVE",
"76 52 CURVE",
"12 38 LINE",
"6 0 LINE",
"196 0 LINE",
"206 38 LINE",
"141 52 LINE",
"144 79 OFFCURVE",
"160 165 OFFCURVE",
"174 230 CURVE SMOOTH",
"229 488 LINE",
"208 488 LINE",
"473 -4 LINE",
"470 55 LINE",
"453 -22 LINE SMOOTH",
"430 -127 OFFCURVE",
"371 -194 OFFCURVE",
"309 -183 CURVE",
"350 -196 LINE",
"306 -143 LINE SMOOTH",
"290 -124 OFFCURVE",
"275 -116 OFFCURVE",
"257 -116 CURVE SMOOTH",
"232 -116 OFFCURVE",
"213 -130 OFFCURVE",
"208 -153 CURVE SMOOTH",
"200 -192 OFFCURVE",
"249 -228 OFFCURVE",
"309 -228 CURVE SMOOTH"
);
}
);
};
layerId = "720C727D-0ED9-429E-914E-55EB9E513E33";
paths = (
{
closed = 1;
nodes = (
"461 15 LINE SMOOTH",
"437 -98 OFFCURVE",
"395 -129 OFFCURVE",
"337 -129 CURVE SMOOTH",
"304 -129 OFFCURVE",
"274 -118 OFFCURVE",
"254 -101 CURVE",
"236 -118 OFFCURVE",
"227 -135 OFFCURVE",
"227 -153 CURVE SMOOTH",
"227 -184 OFFCURVE",
"259 -202 OFFCURVE",
"300 -202 CURVE SMOOTH",
"405 -202 OFFCURVE",
"494 -99 OFFCURVE",
"527 56 CURVE SMOOTH",
"593 367 LINE SMOOTH",
"616 474 OFFCURVE",
"626 513 OFFCURVE",
"632 535 CURVE",
"696 549 LINE",
"702 587 LINE",
"514 587 LINE",
"504 549 LINE",
"569 535 LINE",
"567 515 OFFCURVE",
"561 474 OFFCURVE",
"538 367 CURVE SMOOTH",
"491 146 LINE",
"503 146 LINE",
"263 587 LINE",
"129 587 LINE",
"119 549 LINE",
"177 535 LINE",
"176 523 OFFCURVE",
"169 476 OFFCURVE",
"152 394 CURVE SMOOTH",
"118 233 LINE SMOOTH",
"97 133 OFFCURVE",
"82 70 OFFCURVE",
"76 52 CURVE",
"12 38 LINE",
"6 0 LINE",
"196 0 LINE",
"206 38 LINE",
"141 52 LINE",
"144 79 OFFCURVE",
"160 165 OFFCURVE",
"174 230 CURVE SMOOTH",
"229 488 LINE",
"208 488 LINE",
"473 -4 LINE",
"470 55 LINE"
);
}
);
width = 675;
},
{
background = {
paths = (
{
closed = 1;
nodes = (
"438 -228 OFFCURVE",
"515 -144 OFFCURVE",
"550 22 CURVE SMOOTH",
"617 337 LINE SMOOTH",
"635 424 OFFCURVE",
"651 491 OFFCURVE",
"661 520 CURVE",
"729 537 LINE",
"737 587 LINE",
"524 587 LINE",
"510 537 LINE",
"576 520 LINE",
"574 491 OFFCURVE",
"564 433 OFFCURVE",
"544 337 CURVE SMOOTH",
"512 187 LINE",
"544 187 LINE",
"271 587 LINE",
"117 587 LINE",
"103 537 LINE",
"161 520 LINE",
"164 517 OFFCURVE",
"153 447 OFFCURVE",
"142 394 CURVE SMOOTH",
"114 263 LINE SMOOTH",
"92 162 OFFCURVE",
"75 91 OFFCURVE",
"68 67 CURVE",
"0 50 LINE",
"-7 0 LINE",
"208 0 LINE",
"222 50 LINE",
"156 67 LINE",
"158 90 OFFCURVE",
"168 155 OFFCURVE",
"191 263 CURVE SMOOTH",
"233 459 LINE",
"182 459 LINE",
"488 -5 LINE",
"484 61 LINE",
"464 -30 LINE SMOOTH",
"444 -123 OFFCURVE",
"392 -178 OFFCURVE",
"332 -168 CURVE",
"384 -190 LINE",
"324 -122 LINE SMOOTH",
"302 -97 OFFCURVE",
"283 -87 OFFCURVE",
"258 -87 CURVE SMOOTH",
"227 -87 OFFCURVE",
"202 -107 OFFCURVE",
"196 -138 CURVE SMOOTH",
"186 -189 OFFCURVE",
"240 -228 OFFCURVE",
"322 -228 CURVE SMOOTH"
);
}
);
};
layerId = "DEDDD934-E4FE-4A27-B966-8C21F8A9BC34";
paths = (
{
closed = 1;
nodes = (
"474 17 LINE SMOOTH",
"453 -78 OFFCURVE",
"413 -99 OFFCURVE",
"374 -99 CURVE SMOOTH",
"334 -99 OFFCURVE",
"307 -84 OFFCURVE",
"283 -62 CURVE",
"253 -82 OFFCURVE",
"232 -110 OFFCURVE",
"232 -139 CURVE SMOOTH",
"232 -178 OFFCURVE",
"268 -203 OFFCURVE",
"319 -203 CURVE SMOOTH",
"440 -203 OFFCURVE",
"532 -62 OFFCURVE",
"562 78 CURVE SMOOTH",
"617 337 LINE SMOOTH",
"635 424 OFFCURVE",
"651 491 OFFCURVE",
"661 520 CURVE",
"729 537 LINE",
"737 587 LINE",
"524 587 LINE",
"510 537 LINE",
"576 520 LINE",
"574 491 OFFCURVE",
"564 433 OFFCURVE",
"544 337 CURVE SMOOTH",
"512 187 LINE",
"544 187 LINE",
"271 587 LINE",
"117 587 LINE",
"103 537 LINE",
"161 520 LINE",
"164 517 OFFCURVE",
"153 447 OFFCURVE",
"142 394 CURVE SMOOTH",
"114 263 LINE SMOOTH",
"92 162 OFFCURVE",
"75 91 OFFCURVE",
"68 67 CURVE",
"0 50 LINE",
"-7 0 LINE",
"208 0 LINE",
"222 50 LINE",
"156 67 LINE",
"158 90 OFFCURVE",
"168 155 OFFCURVE",
"191 263 CURVE SMOOTH",
"233 459 LINE",
"182 459 LINE",
"488 -5 LINE",
"484 61 LINE"
);
}
);
width = 697;
}
);
leftKerningGroup = H;
leftMetricsKey = N;
widthMetricsKey = N;
note = Eng;
rightKerningGroup = J;
unicode = 014A;
},
{
glyphname = O;
lastChange = "2018-08-22 12:32:02 +0000";
layers = (
{
anchors = (
{
name = bottom;
position = "{298, 0}";
},
{
name = center;
position = "{360, 294}";
},
{
name = ogonek;
position = "{372, 0}";
},
{
name = top;
position = "{422, 587}";
},
{
name = topleft;
position = "{97, 587}";
},
{
name = topright;
position = "{748, 587}";
}
);
background = {
anchors = (
{
name = bottom;
position = "{360, 0}";
},
{
name = center;
position = "{360, 294}";
},
{
name = ogonek;
position = "{434, 0}";
},
{
name = top;
position = "{360, 587}";
},
{
name = topleft;
position = "{35, 587}";
},
{
name = topright;
position = "{686, 587}";
}
);
paths = (
{
closed = 1;
nodes = (
"456 -9 OFFCURVE",
"616 119 OFFCURVE",
"654 298 CURVE SMOOTH",
"691 474 OFFCURVE",
"600 596 OFFCURVE",
"433 596 CURVE SMOOTH",
"260 596 OFFCURVE",
"105 466 OFFCURVE",
"67 291 CURVE SMOOTH",
"29 114 OFFCURVE",
"127 -9 OFFCURVE",
"302 -9 CURVE SMOOTH"
);
},
{
closed = 1;
nodes = (
"204 45 OFFCURVE",
"143 155 OFFCURVE",
"176 310 CURVE SMOOTH",
"207 456 OFFCURVE",
"296 546 OFFCURVE",
"411 546 CURVE SMOOTH",
"527 546 OFFCURVE",
"582 435 OFFCURVE",
"548 274 CURVE SMOOTH",
"518 134 OFFCURVE",
"430 45 OFFCURVE",
"323 45 CURVE SMOOTH"
);
},
{
closed = 1;
nodes = (
"-344 -12 OFFCURVE",
"-184 110 OFFCURVE",
"-146 288 CURVE SMOOTH",
"-109 462 OFFCURVE",
"-200 588 OFFCURVE",
"-367 593 CURVE SMOOTH",
"-540 598 OFFCURVE",
"-695 475 OFFCURVE",
"-733 301 CURVE SMOOTH",
"-771 126 OFFCURVE",
"-673 -1 OFFCURVE",
"-498 -7 CURVE SMOOTH"
);
},
{
closed = 1;
nodes = (
"-596 49 OFFCURVE",
"-657 163 OFFCURVE",
"-624 316 CURVE SMOOTH",
"-593 461 OFFCURVE",
"-504 548 OFFCURVE",
"-389 544 CURVE SMOOTH",
"-273 540 OFFCURVE",
"-218 427 OFFCURVE",
"-252 267 CURVE SMOOTH",
"-281 129 OFFCURVE",
"-370 43 OFFCURVE",
"-477 46 CURVE SMOOTH"
);
}
);
};
layerId = "720C727D-0ED9-429E-914E-55EB9E513E33";
paths = (
{
closed = 1;
nodes = (
"495 -9 OFFCURVE",
"659 166 OFFCURVE",
"659 362 CURVE SMOOTH",
"659 505 OFFCURVE",
"568 596 OFFCURVE",
"419 596 CURVE SMOOTH",
"226 596 OFFCURVE",
"62 426 OFFCURVE",
"62 229 CURVE SMOOTH",
"62 85 OFFCURVE",
"158 -9 OFFCURVE",
"311 -9 CURVE SMOOTH"
);
},
{
closed = 1;
nodes = (
"229 45 OFFCURVE",
"166 120 OFFCURVE",
"166 236 CURVE SMOOTH",
"166 410 OFFCURVE",
"270 546 OFFCURVE",
"403 546 CURVE SMOOTH",
"501 546 OFFCURVE",
"559 474 OFFCURVE",
"559 356 CURVE SMOOTH",
"559 181 OFFCURVE",
"458 45 OFFCURVE",
"328 45 CURVE SMOOTH"
);
}
);
width = 687;
},
{
anchors = (
{
name = bottom;
position = "{307, 0}";
},
{
name = center;
position = "{369, 294}";
},
{
name = ogonek;
position = "{382, 0}";
},
{
name = top;
position = "{431, 587}";
},
{
name = topleft;
position = "{93, 587}";
},
{
name = topright;
position = "{769, 587}";
}
);
background = {
paths = (
{
closed = 1;
nodes = (
"1244 -9 OFFCURVE",
"1438 94 OFFCURVE",
"1482 302 CURVE SMOOTH",
"1519 475 OFFCURVE",
"1419 596 OFFCURVE",
"1240 596 CURVE SMOOTH",
"1056 596 OFFCURVE",
"893 465 OFFCURVE",
"856 286 CURVE SMOOTH",
"820 114 OFFCURVE",
"927 -9 OFFCURVE",
"1112 -9 CURVE SMOOTH"
);
},
{
closed = 1;
nodes = (
"1038 66 OFFCURVE",
"993 169 OFFCURVE",
"1024 316 CURVE SMOOTH",
"1052 449 OFFCURVE",
"1124 529 OFFCURVE",
"1214 529 CURVE SMOOTH",
"1309 529 OFFCURVE",
"1350 429 OFFCURVE",
"1317 276 CURVE SMOOTH",
"1288 142 OFFCURVE",
"1226 66 OFFCURVE",
"1135 66 CURVE SMOOTH"
);
},
{
closed = 1;
nodes = (
"515 -9 OFFCURVE",
"688 166 OFFCURVE",
"688 360 CURVE SMOOTH",
"688 503 OFFCURVE",
"589 594 OFFCURVE",
"427 594 CURVE SMOOTH",
"222 594 OFFCURVE",
"51 429 OFFCURVE",
"51 233 CURVE SMOOTH",
"51 87 OFFCURVE",
"157 -9 OFFCURVE",
"322 -9 CURVE SMOOTH"
);
},
{
closed = 1;
nodes = (
"262 67 OFFCURVE",
"216 131 OFFCURVE",
"216 234 CURVE SMOOTH",
"216 397 OFFCURVE",
"301 527 OFFCURVE",
"408 527 CURVE SMOOTH",
"484 527 OFFCURVE",
"526 469 OFFCURVE",
"526 367 CURVE SMOOTH",
"526 196 OFFCURVE",
"446 67 OFFCURVE",
"339 67 CURVE SMOOTH"
);
}
);
};
layerId = "DEDDD934-E4FE-4A27-B966-8C21F8A9BC34";
paths = (
{
closed = 1;
nodes = (
"514 -9 OFFCURVE",
"687 166 OFFCURVE",
"687 364 CURVE SMOOTH",
"687 505 OFFCURVE",
"588 596 OFFCURVE",
"427 596 CURVE SMOOTH",
"223 596 OFFCURVE",
"52 431 OFFCURVE",
"52 232 CURVE SMOOTH",
"52 87 OFFCURVE",
"158 -9 OFFCURVE",
"322 -9 CURVE SMOOTH"
);
},
{
closed = 1;
nodes = (
"262 67 OFFCURVE",
"213 131 OFFCURVE",
"213 234 CURVE SMOOTH",
"213 399 OFFCURVE",
"301 529 OFFCURVE",
"409 529 CURVE SMOOTH",
"484 529 OFFCURVE",
"529 471 OFFCURVE",
"529 363 CURVE SMOOTH",
"529 196 OFFCURVE",
"446 67 OFFCURVE",
"339 67 CURVE SMOOTH"
);
}
);
width = 706;
}
);
leftKerningGroup = O;
note = O;
rightKerningGroup = O;
unicode = 004F;
},
{
glyphname = Ohorn;
lastChange = "2018-08-22 12:32:02 +0000";
layers = (
{
anchors = (
{
name = bottom;
position = "{297, 0}";
},
{
name = center;
position = "{360, 294}";
},
{
name = top;
position = "{422, 587}";
},
{
name = topleft;
position = "{97, 587}";
}
);
background = {
paths = (
{
closed = 1;
nodes = (
"542 534 LINE",
"664 513 OFFCURVE",
"746 593 OFFCURVE",
"759 651 CURVE SMOOTH",
"770 703 OFFCURVE",
"733 719 OFFCURVE",
"681 710 CURVE",
"668 659 LINE SMOOTH",
"654 600 OFFCURVE",
"622 579 OFFCURVE",
"578 579 CURVE SMOOTH",
"540 579 OFFCURVE",
"497 596 OFFCURVE",
"418 596 CURVE"
);
},
{
closed = 1;
nodes = (
"495 -9 OFFCURVE",
"659 166 OFFCURVE",
"659 362 CURVE SMOOTH",
"659 505 OFFCURVE",
"568 596 OFFCURVE",
"419 596 CURVE SMOOTH",
"226 596 OFFCURVE",
"62 426 OFFCURVE",
"62 229 CURVE SMOOTH",
"62 85 OFFCURVE",
"158 -9 OFFCURVE",
"311 -9 CURVE SMOOTH"
);
},
{
closed = 1;
nodes = (
"229 45 OFFCURVE",
"166 120 OFFCURVE",
"166 236 CURVE SMOOTH",
"166 410 OFFCURVE",
"270 546 OFFCURVE",
"403 546 CURVE SMOOTH",
"501 546 OFFCURVE",
"559 474 OFFCURVE",
"559 356 CURVE SMOOTH",
"559 181 OFFCURVE",
"458 45 OFFCURVE",
"328 45 CURVE SMOOTH"
);
}
);
};
layerId = "720C727D-0ED9-429E-914E-55EB9E513E33";
paths = (
{
closed = 1;
nodes = (
"668 659 LINE SMOOTH",
"654 600 OFFCURVE",
"622 579 OFFCURVE",
"578 579 CURVE SMOOTH",
"530 579 OFFCURVE",
"477 596 OFFCURVE",
"419 596 CURVE SMOOTH",
"226 596 OFFCURVE",
"62 426 OFFCURVE",
"62 229 CURVE SMOOTH",
"62 85 OFFCURVE",
"158 -9 OFFCURVE",
"311 -9 CURVE SMOOTH",
"495 -9 OFFCURVE",
"659 166 OFFCURVE",
"659 362 CURVE SMOOTH",
"659 444 OFFCURVE",
"629 509 OFFCURVE",
"575 549 CURVE",
"575 531 LINE",
"693 531 OFFCURVE",
"761 613 OFFCURVE",
"761 668 CURVE SMOOTH",
"761 706 OFFCURVE",
"727 718 OFFCURVE",
"681 710 CURVE"
);
},
{
closed = 1;
nodes = (
"229 45 OFFCURVE",
"166 120 OFFCURVE",
"166 236 CURVE SMOOTH",
"166 410 OFFCURVE",
"270 546 OFFCURVE",
"403 546 CURVE SMOOTH",
"501 546 OFFCURVE",
"559 474 OFFCURVE",
"559 356 CURVE SMOOTH",
"559 181 OFFCURVE",
"458 45 OFFCURVE",
"328 45 CURVE SMOOTH"
);
}
);
width = 687;
},
{
anchors = (
{
name = bottom;
position = "{306, 0}";
},
{
name = center;
position = "{369, 294}";
},
{
name = top;
position = "{431, 587}";
},
{
name = topleft;
position = "{93, 587}";
}
);
background = {
paths = (
{
closed = 1;
nodes = (
"805 717 OFFCURVE",
"754 726 OFFCURVE",
"690 718 CURVE",
"675 658 LINE SMOOTH",
"663 612 OFFCURVE",
"629 580 OFFCURVE",
"584 580 CURVE SMOOTH",
"552 580 OFFCURVE",
"507 596 OFFCURVE",
"427 596 CURVE",
"534 531 LINE",
"665 498 OFFCURVE",
"775 576 OFFCURVE",
"791 654 CURVE SMOOTH"
);
},
{
closed = 1;
nodes = (
"514 -9 OFFCURVE",
"687 166 OFFCURVE",
"687 364 CURVE SMOOTH",
"687 505 OFFCURVE",
"588 596 OFFCURVE",
"427 596 CURVE SMOOTH",
"223 596 OFFCURVE",
"52 431 OFFCURVE",
"52 232 CURVE SMOOTH",
"52 87 OFFCURVE",
"158 -9 OFFCURVE",
"322 -9 CURVE SMOOTH"
);
},
{
closed = 1;
nodes = (
"262 67 OFFCURVE",
"213 131 OFFCURVE",
"213 234 CURVE SMOOTH",
"213 399 OFFCURVE",
"301 529 OFFCURVE",
"409 529 CURVE SMOOTH",
"484 529 OFFCURVE",
"529 471 OFFCURVE",
"529 363 CURVE SMOOTH",
"529 196 OFFCURVE",
"446 67 OFFCURVE",
"339 67 CURVE SMOOTH"
);
}
);
};
layerId = "DEDDD934-E4FE-4A27-B966-8C21F8A9BC34";
paths = (
{
closed = 1;
nodes = (
"675 658 LINE SMOOTH",
"663 612 OFFCURVE",
"629 580 OFFCURVE",
"584 580 CURVE SMOOTH",
"532 580 OFFCURVE",
"487 596 OFFCURVE",
"427 596 CURVE SMOOTH",
"223 596 OFFCURVE",
"52 431 OFFCURVE",
"52 232 CURVE SMOOTH",
"52 87 OFFCURVE",
"158 -9 OFFCURVE",
"322 -9 CURVE SMOOTH",
"514 -9 OFFCURVE",
"687 166 OFFCURVE",
"687 364 CURVE SMOOTH",
"687 441 OFFCURVE",
"657 503 OFFCURVE",
"605 544 CURVE",
"595 523 LINE",
"710 523 OFFCURVE",
"793 605 OFFCURVE",
"793 673 CURVE SMOOTH",
"793 719 OFFCURVE",
"747 725 OFFCURVE",
"690 718 CURVE"
);
},
{
closed = 1;
nodes = (
"262 67 OFFCURVE",
"213 131 OFFCURVE",
"213 234 CURVE SMOOTH",
"213 399 OFFCURVE",
"301 529 OFFCURVE",
"409 529 CURVE SMOOTH",
"484 529 OFFCURVE",
"529 471 OFFCURVE",
"529 363 CURVE SMOOTH",
"529 196 OFFCURVE",
"446 67 OFFCURVE",
"339 67 CURVE SMOOTH"
);
}
);
width = 706;
}
);
leftKerningGroup = O;
leftMetricsKey = O;
widthMetricsKey = O;
note = Ohorn;
rightKerningGroup = O;
unicode = 01A0;
},
{
glyphname = Oogonek;
lastChange = "2018-08-22 12:32:02 +0000";
layers = (
{
anchors = (
{
name = center;
position = "{360, 294}";
},
{
name = top;
position = "{422, 587}";
},
{
name = topleft;
position = "{97, 587}";
},
{
name = topright;
position = "{748, 587}";
}
);
background = {
paths = (
{
closed = 1;
nodes = (
"495 -9 OFFCURVE",
"659 166 OFFCURVE",
"659 362 CURVE SMOOTH",
"659 505 OFFCURVE",
"568 596 OFFCURVE",
"419 596 CURVE SMOOTH",
"226 596 OFFCURVE",
"62 426 OFFCURVE",
"62 229 CURVE SMOOTH",
"62 85 OFFCURVE",
"158 -9 OFFCURVE",
"311 -9 CURVE SMOOTH"
);
},
{
closed = 1;
nodes = (
"229 45 OFFCURVE",
"166 120 OFFCURVE",
"166 236 CURVE SMOOTH",
"166 410 OFFCURVE",
"270 546 OFFCURVE",
"403 546 CURVE SMOOTH",
"501 546 OFFCURVE",
"559 474 OFFCURVE",
"559 356 CURVE SMOOTH",
"559 181 OFFCURVE",
"458 45 OFFCURVE",
"328 45 CURVE SMOOTH"
);
},
{
closed = 1;
nodes = (
"325 -223 OFFCURVE",
"366 -205 OFFCURVE",
"398 -173 CURVE",
"382 -146 LINE",
"356 -169 OFFCURVE",
"331 -181 OFFCURVE",
"307 -181 CURVE SMOOTH",
"276 -181 OFFCURVE",
"258 -165 OFFCURVE",
"258 -136 CURVE SMOOTH",
"258 -85 OFFCURVE",
"314 -25 OFFCURVE",
"416 10 CURVE",
"377 19 LINE",
"263 -20 OFFCURVE",
"186 -80 OFFCURVE",
"186 -147 CURVE SMOOTH",
"186 -190 OFFCURVE",
"220 -223 OFFCURVE",
"285 -223 CURVE SMOOTH"
);
}
);
};
layerId = "720C727D-0ED9-429E-914E-55EB9E513E33";
paths = (
{
closed = 1;
nodes = (
"325 -223 OFFCURVE",
"366 -205 OFFCURVE",
"398 -173 CURVE",
"382 -146 LINE",
"356 -169 OFFCURVE",
"331 -181 OFFCURVE",
"307 -181 CURVE SMOOTH",
"276 -181 OFFCURVE",
"258 -165 OFFCURVE",
"258 -136 CURVE SMOOTH",
"258 -84 OFFCURVE",
"315 -27 OFFCURVE",
"416 10 CURVE SMOOTH",
"552 60 OFFCURVE",
"659 204 OFFCURVE",
"659 362 CURVE SMOOTH",
"659 505 OFFCURVE",
"568 596 OFFCURVE",
"419 596 CURVE SMOOTH",
"226 596 OFFCURVE",
"62 426 OFFCURVE",
"62 229 CURVE SMOOTH",
"62 85 OFFCURVE",
"158 -9 OFFCURVE",
"313 -9 CURVE SMOOTH",
"345 -9 LINE",
"342 7 LINE",
"249 -31 OFFCURVE",
"186 -86 OFFCURVE",
"186 -147 CURVE SMOOTH",
"186 -190 OFFCURVE",
"220 -223 OFFCURVE",
"285 -223 CURVE SMOOTH"
);
},
{
closed = 1;
nodes = (
"229 45 OFFCURVE",
"166 120 OFFCURVE",
"166 236 CURVE SMOOTH",
"166 410 OFFCURVE",
"270 546 OFFCURVE",
"403 546 CURVE SMOOTH",
"501 546 OFFCURVE",
"559 474 OFFCURVE",
"559 356 CURVE SMOOTH",
"559 181 OFFCURVE",
"458 45 OFFCURVE",
"328 45 CURVE SMOOTH"
);
}
);
width = 687;
},
{
anchors = (
{
name = center;
position = "{369, 294}";
},
{
name = top;
position = "{431, 587}";
},
{
name = topleft;
position = "{93, 587}";
},
{
name = topright;
position = "{769, 587}";
}
);
background = {
paths = (
{
closed = 1;
nodes = (
"514 -9 OFFCURVE",
"687 166 OFFCURVE",
"687 364 CURVE SMOOTH",
"687 505 OFFCURVE",
"588 596 OFFCURVE",
"427 596 CURVE SMOOTH",
"223 596 OFFCURVE",
"52 431 OFFCURVE",
"52 232 CURVE SMOOTH",
"52 87 OFFCURVE",
"158 -9 OFFCURVE",
"322 -9 CURVE SMOOTH"
);
},
{
closed = 1;
nodes = (
"262 67 OFFCURVE",
"213 131 OFFCURVE",
"213 234 CURVE SMOOTH",
"213 399 OFFCURVE",
"301 529 OFFCURVE",
"409 529 CURVE SMOOTH",
"484 529 OFFCURVE",
"529 471 OFFCURVE",
"529 363 CURVE SMOOTH",
"529 196 OFFCURVE",
"446 67 OFFCURVE",
"339 67 CURVE SMOOTH"
);
},
{
closed = 1;
nodes = (
"342 -223 OFFCURVE",
"383 -205 OFFCURVE",
"415 -173 CURVE",
"396 -134 LINE",
"371 -157 OFFCURVE",
"345 -168 OFFCURVE",
"323 -168 CURVE SMOOTH",
"298 -168 OFFCURVE",
"278 -154 OFFCURVE",
"278 -125 CURVE SMOOTH",
"278 -85 OFFCURVE",
"314 -39 OFFCURVE",
"442 14 CURVE",
"384 17 LINE",
"253 -16 OFFCURVE",
"179 -76 OFFCURVE",
"179 -137 CURVE SMOOTH",
"179 -189 OFFCURVE",
"230 -223 OFFCURVE",
"295 -223 CURVE SMOOTH"
);
}
);
};
layerId = "DEDDD934-E4FE-4A27-B966-8C21F8A9BC34";
paths = (
{
closed = 1;
nodes = (
"342 -223 OFFCURVE",
"383 -205 OFFCURVE",
"415 -173 CURVE",
"396 -134 LINE",
"371 -157 OFFCURVE",
"345 -168 OFFCURVE",
"323 -168 CURVE SMOOTH",
"298 -168 OFFCURVE",
"278 -154 OFFCURVE",
"278 -125 CURVE SMOOTH",
"278 -85 OFFCURVE",
"311 -39 OFFCURVE",
"448 16 CURVE SMOOTH",
"579 69 OFFCURVE",
"687 207 OFFCURVE",
"687 364 CURVE SMOOTH",
"687 505 OFFCURVE",
"588 596 OFFCURVE",
"427 596 CURVE SMOOTH",
"223 596 OFFCURVE",
"52 431 OFFCURVE",
"52 232 CURVE SMOOTH",
"52 87 OFFCURVE",
"158 -9 OFFCURVE",
"322 -9 CURVE SMOOTH",
"343 -9 LINE",
"343 6 LINE",
"235 -29 OFFCURVE",
"179 -83 OFFCURVE",
"179 -137 CURVE SMOOTH",
"179 -189 OFFCURVE",
"230 -223 OFFCURVE",
"295 -223 CURVE SMOOTH"
);
},
{
closed = 1;
nodes = (
"262 67 OFFCURVE",
"213 131 OFFCURVE",
"213 234 CURVE SMOOTH",
"213 399 OFFCURVE",
"301 529 OFFCURVE",
"409 529 CURVE SMOOTH",
"484 529 OFFCURVE",
"529 471 OFFCURVE",
"529 363 CURVE SMOOTH",
"529 196 OFFCURVE",
"446 67 OFFCURVE",
"339 67 CURVE SMOOTH"
);
}
);
width = 706;
}
);
leftKerningGroup = O;
leftMetricsKey = O;
widthMetricsKey = O;
rightKerningGroup = O;
unicode = 01EA;
},
{
glyphname = OE;
lastChange = "2018-08-22 12:32:02 +0000";
layers = (
{
anchors = (
{
name = bottom;
position = "{478, 0}";
},
{
name = top;
position = "{603, 587}";
}
);
background = {
paths = (
{
closed = 1;
nodes = (
"873 141 LINE",
"825 150 LINE",
"758 55 LINE",
"747 52 OFFCURVE",
"730 51 OFFCURVE",
"687 51 CURVE SMOOTH",
"598 51 LINE SMOOTH",
"572 51 OFFCURVE",
"553 52 OFFCURVE",
"534 54 CURVE",
"536 66 OFFCURVE",
"554 157 OFFCURVE",
"562 197 CURVE SMOOTH",
"602 385 LINE SMOOTH",
"612 432 OFFCURVE",
"634 527 OFFCURVE",
"637 536 CURVE",
"655 538 OFFCURVE",
"665 539 OFFCURVE",
"690 539 CURVE SMOOTH",
"803 539 LINE SMOOTH",
"818 539 OFFCURVE",
"831 538 OFFCURVE",
"841 536 CURVE",
"854 452 LINE",
"901 457 LINE",
"912 591 LINE",
"872 588 OFFCURVE",
"839 587 OFFCURVE",
"811 587 CURVE SMOOTH",
"497 587 LINE",
"487 549 LINE",
"545 535 LINE",
"544 517 OFFCURVE",
"537 475 OFFCURVE",
"518 385 CURVE SMOOTH",
"478 197 LINE SMOOTH",
"459 109 OFFCURVE",
"450 71 OFFCURVE",
"444 52 CURVE",
"380 38 LINE",
"374 0 LINE",
"714 0 LINE SMOOTH",
"740 0 OFFCURVE",
"768 -1 OFFCURVE",
"807 -5 CURVE"
);
},
{
closed = 1;
nodes = (
"777 205 LINE",
"818 399 LINE",
"775 399 LINE",
"748 330 LINE",
"739 328 OFFCURVE",
"723 327 OFFCURVE",
"701 327 CURVE SMOOTH",
"635 327 LINE SMOOTH",
"617 327 OFFCURVE",
"597 328 OFFCURVE",
"576 329 CURVE",
"564 275 LINE",
"586 276 OFFCURVE",
"607 277 OFFCURVE",
"625 277 CURVE SMOOTH",
"692 277 LINE SMOOTH",
"714 277 OFFCURVE",
"729 276 OFFCURVE",
"737 274 CURVE",
"734 205 LINE"
);
}
);
};
layerId = "720C727D-0ED9-429E-914E-55EB9E513E33";
paths = (
{
closed = 1;
nodes = (
"393 -9 OFFCURVE",
"444 0 OFFCURVE",
"482 0 CURVE SMOOTH",
"714 0 LINE SMOOTH",
"740 0 OFFCURVE",
"768 -1 OFFCURVE",
"807 -5 CURVE",
"873 141 LINE",
"825 150 LINE",
"758 55 LINE",
"747 52 OFFCURVE",
"730 51 OFFCURVE",
"687 51 CURVE SMOOTH",
"597 51 LINE SMOOTH",
"575 51 OFFCURVE",
"557 52 OFFCURVE",
"534 55 CURVE",
"535 67 OFFCURVE",
"544 113 OFFCURVE",
"552 153 CURVE SMOOTH",
"610 423 LINE SMOOTH",
"620 470 OFFCURVE",
"634 527 OFFCURVE",
"637 536 CURVE",
"655 538 OFFCURVE",
"665 539 OFFCURVE",
"690 539 CURVE SMOOTH",
"803 539 LINE SMOOTH",
"818 539 OFFCURVE",
"831 538 OFFCURVE",
"841 536 CURVE",
"854 452 LINE",
"901 457 LINE",
"912 591 LINE",
"872 588 OFFCURVE",
"839 587 OFFCURVE",
"811 587 CURVE SMOOTH",
"594 587 LINE SMOOTH",
"540 587 OFFCURVE",
"505 594 OFFCURVE",
"457 594 CURVE SMOOTH",
"240 594 OFFCURVE",
"62 438 OFFCURVE",
"62 224 CURVE SMOOTH",
"62 77 OFFCURVE",
"169 -9 OFFCURVE",
"342 -9 CURVE SMOOTH"
);
},
{
closed = 1;
nodes = (
"237 45 OFFCURVE",
"166 115 OFFCURVE",
"166 236 CURVE SMOOTH",
"166 389 OFFCURVE",
"259 542 OFFCURVE",
"443 542 CURVE SMOOTH",
"485 542 OFFCURVE",
"514 538 OFFCURVE",
"545 530 CURVE",
"541 504 OFFCURVE",
"537 475 OFFCURVE",
"518 385 CURVE SMOOTH",
"478 197 LINE SMOOTH",
"459 109 OFFCURVE",
"451 78 OFFCURVE",
"445 57 CURVE",
"420 50 OFFCURVE",
"388 45 OFFCURVE",
"362 45 CURVE SMOOTH"
);
},
{
closed = 1;
nodes = (
"777 205 LINE",
"818 399 LINE",
"775 399 LINE",
"748 330 LINE",
"739 328 OFFCURVE",
"723 327 OFFCURVE",
"701 327 CURVE SMOOTH",
"635 327 LINE SMOOTH",
"617 327 OFFCURVE",
"597 328 OFFCURVE",
"576 329 CURVE",
"564 275 LINE",
"586 276 OFFCURVE",
"607 277 OFFCURVE",
"625 277 CURVE SMOOTH",
"692 277 LINE SMOOTH",
"714 277 OFFCURVE",
"729 276 OFFCURVE",
"737 274 CURVE",
"734 205 LINE"
);
}
);
width = 919;
},
{
anchors = (
{
name = bottom;
position = "{481, 0}";
},
{
name = top;
position = "{606, 587}";
}
);
background = {
paths = (
{
closed = 1;
nodes = (
"897 157 LINE",
"837 168 LINE",
"766 68 LINE",
"749 64 OFFCURVE",
"745 64 OFFCURVE",
"694 64 CURVE SMOOTH",
"655 64 LINE SMOOTH",
"614 64 OFFCURVE",
"592 65 OFFCURVE",
"568 68 CURVE",
"570 86 OFFCURVE",
"583 154 OFFCURVE",
"593 200 CURVE SMOOTH",
"633 388 LINE SMOOTH",
"643 435 OFFCURVE",
"660 509 OFFCURVE",
"665 525 CURVE",
"680 527 OFFCURVE",
"705 528 OFFCURVE",
"731 528 CURVE SMOOTH",
"792 528 LINE SMOOTH",
"808 528 OFFCURVE",
"820 527 OFFCURVE",
"837 524 CURVE",
"851 437 LINE",
"912 443 LINE",
"921 592 LINE",
"885 591 OFFCURVE",
"807 587 OFFCURVE",
"765 587 CURVE SMOOTH",
"474 587 LINE",
"460 537 LINE",
"521 521 LINE",
"519 500 OFFCURVE",
"510 450 OFFCURVE",
"493 368 CURVE SMOOTH",
"462 221 LINE SMOOTH",
"445 141 OFFCURVE",
"430 85 OFFCURVE",
"424 67 CURVE",
"356 50 LINE",
"347 0 LINE",
"684 0 LINE SMOOTH",
"726 0 OFFCURVE",
"788 -4 OFFCURVE",
"822 -6 CURVE"
);
},
{
closed = 1;
nodes = (
"789 199 LINE",
"832 402 LINE",
"775 402 LINE",
"751 336 LINE",
"742 336 OFFCURVE",
"720 334 OFFCURVE",
"694 334 CURVE SMOOTH",
"656 334 LINE SMOOTH",
"632 334 OFFCURVE",
"611 336 OFFCURVE",
"600 337 CURVE",
"585 266 LINE",
"596 267 OFFCURVE",
"618 269 OFFCURVE",
"642 269 CURVE SMOOTH",
"680 269 LINE SMOOTH",
"706 269 OFFCURVE",
"727 267 OFFCURVE",
"736 267 CURVE",
"732 199 LINE"
);
}
);
};
layerId = "DEDDD934-E4FE-4A27-B966-8C21F8A9BC34";
paths = (
{
closed = 1;
nodes = (
"376 -9 OFFCURVE",
"419 0 OFFCURVE",
"473 0 CURVE SMOOTH",
"682 0 LINE SMOOTH",
"724 0 OFFCURVE",
"786 -4 OFFCURVE",
"820 -6 CURVE",
"895 157 LINE",
"835 168 LINE",
"764 68 LINE",
"747 64 OFFCURVE",
"743 64 OFFCURVE",
"692 64 CURVE SMOOTH",
"654 64 LINE SMOOTH",
"616 64 OFFCURVE",
"593 65 OFFCURVE",
"567 69 CURVE",
"568 86 OFFCURVE",
"576 127 OFFCURVE",
"590 194 CURVE SMOOTH",
"634 402 LINE SMOOTH",
"648 469 OFFCURVE",
"658 509 OFFCURVE",
"663 524 CURVE",
"677 527 OFFCURVE",
"699 528 OFFCURVE",
"729 528 CURVE SMOOTH",
"790 528 LINE SMOOTH",
"806 528 OFFCURVE",
"818 527 OFFCURVE",
"835 524 CURVE",
"849 437 LINE",
"910 443 LINE",
"919 592 LINE",
"883 591 OFFCURVE",
"805 587 OFFCURVE",
"763 587 CURVE SMOOTH",
"600 587 LINE SMOOTH",
"551 587 OFFCURVE",
"511 593 OFFCURVE",
"462 593 CURVE SMOOTH",
"225 593 OFFCURVE",
"52 431 OFFCURVE",
"52 222 CURVE SMOOTH",
"52 87 OFFCURVE",
"158 -9 OFFCURVE",
"333 -9 CURVE SMOOTH"
);
},
{
closed = 1;
nodes = (
"276 65 OFFCURVE",
"217 126 OFFCURVE",
"217 234 CURVE SMOOTH",
"217 381 OFFCURVE",
"301 526 OFFCURVE",
"451 526 CURVE SMOOTH",
"478 526 OFFCURVE",
"502 523 OFFCURVE",
"517 518 CURVE",
"516 500 OFFCURVE",
"504 430 OFFCURVE",
"492 373 CURVE SMOOTH",
"461 225 LINE SMOOTH",
"450 171 OFFCURVE",
"432 98 OFFCURVE",
"425 74 CURVE",
"405 69 OFFCURVE",
"378 65 OFFCURVE",
"363 65 CURVE SMOOTH"
);
},
{
closed = 1;
nodes = (
"787 199 LINE",
"830 402 LINE",
"773 402 LINE",
"749 336 LINE",
"740 336 OFFCURVE",
"718 334 OFFCURVE",
"692 334 CURVE SMOOTH",
"654 334 LINE SMOOTH",
"630 334 OFFCURVE",
"609 336 OFFCURVE",
"598 337 CURVE",
"583 266 LINE",
"594 267 OFFCURVE",
"616 269 OFFCURVE",
"640 269 CURVE SMOOTH",
"678 269 LINE SMOOTH",
"704 269 OFFCURVE",
"725 267 OFFCURVE",
"734 267 CURVE",
"730 199 LINE"
);
}
);
width = 924;
}
);
leftKerningGroup = O;
note = OE;
rightKerningGroup = E;
unicode = 0152;
},
{
glyphname = P;
lastChange = "2018-08-22 12:32:02 +0000";
layers = (
{
anchors = (
{
name = bottom;
position = "{112, 0}";
},
{
name = top;
position = "{334, 587}";
}
);
background = {
anchors = (
{
name = bottom;
position = "{512, 0}";
},
{
name = top;
position = "{734, 587}";
}
);
paths = (
{
closed = 1;
nodes = (
"241 0 LINE",
"251 40 LINE",
"173 53 LINE",
"170 59 OFFCURVE",
"174 91 OFFCURVE",
"196 194 CURVE",
"238 397 LINE",
"253 466 OFFCURVE",
"267 530 OFFCURVE",
"271 543 CURVE",
"322 543 LINE SMOOTH",
"396 543 OFFCURVE",
"444 500 OFFCURVE",
"424 405 CURVE SMOOTH",
"407 323 OFFCURVE",
"351 284 OFFCURVE",
"273 284 CURVE SMOOTH",
"249 284 OFFCURVE",
"228 289 OFFCURVE",
"201 297 CURVE",
"189 243 LINE",
"210 239 OFFCURVE",
"235 235 OFFCURVE",
"265 235 CURVE SMOOTH",
"383 235 OFFCURVE",
"493 306 OFFCURVE",
"516 418 CURVE SMOOTH",
"538 527 OFFCURVE",
"474 587 OFFCURVE",
"342 587 CURVE SMOOTH",
"128 587 LINE",
"118 549 LINE",
"176 534 LINE",
"178 528 OFFCURVE",
"174 496 OFFCURVE",
"153 397 CURVE",
"109 194 LINE",
"87 91 OFFCURVE",
"77 59 OFFCURVE",
"73 52 CURVE",
"13 38 LINE",
"7 0 LINE"
);
}
);
};
layerId = "720C727D-0ED9-429E-914E-55EB9E513E33";
paths = (
{
closed = 1;
nodes = (
"237 0 LINE",
"247 40 LINE",
"169 52 LINE",
"170 72 OFFCURVE",
"177 111 OFFCURVE",
"195 197 CURVE",
"235 385 LINE",
"250 454 OFFCURVE",
"268 530 OFFCURVE",
"270 543 CURVE",
"312 543 LINE SMOOTH",
"388 543 OFFCURVE",
"428 507 OFFCURVE",
"428 439 CURVE SMOOTH",
"428 341 OFFCURVE",
"371 284 OFFCURVE",
"273 284 CURVE SMOOTH",
"249 284 OFFCURVE",
"229 287 OFFCURVE",
"201 296 CURVE",
"189 246 LINE",
"217 238 OFFCURVE",
"242 235 OFFCURVE",
"268 235 CURVE SMOOTH",
"409 235 OFFCURVE",
"518 327 OFFCURVE",
"518 447 CURVE SMOOTH",
"518 536 OFFCURVE",
"450 587 OFFCURVE",
"329 587 CURVE SMOOTH",
"129 587 LINE",
"119 549 LINE",
"178 535 LINE",
"177 516 OFFCURVE",
"169 469 OFFCURVE",
"151 385 CURVE",
"110 197 LINE",
"96 128 OFFCURVE",
"84 79 OFFCURVE",
"76 52 CURVE",
"16 38 LINE",
"10 0 LINE"
);
}
);
width = 516;
},
{
anchors = (
{
name = bottom;
position = "{128, 0}";
},
{
name = top;
position = "{367, 587}";
}
);
background = {
anchors = (
{
name = bottom;
position = "{528, 0}";
},
{
name = top;
position = "{767, 587}";
}
);
paths = (
{
closed = 1;
nodes = (
"282 0 LINE",
"296 52 LINE",
"218 67 LINE",
"217 75 OFFCURVE",
"226 137 OFFCURVE",
"243 216 CURVE",
"275 375 LINE",
"295 467 OFFCURVE",
"305 515 OFFCURVE",
"309 531 CURVE",
"336 531 LINE SMOOTH",
"413 531 OFFCURVE",
"451 491 OFFCURVE",
"432 401 CURVE SMOOTH",
"416 326 OFFCURVE",
"371 285 OFFCURVE",
"308 285 CURVE SMOOTH",
"279 285 OFFCURVE",
"258 291 OFFCURVE",
"245 299 CURVE",
"230 227 LINE",
"249 223 OFFCURVE",
"272 220 OFFCURVE",
"294 220 CURVE SMOOTH",
"449 220 OFFCURVE",
"557 304 OFFCURVE",
"581 415 CURVE SMOOTH",
"605 526 OFFCURVE",
"536 587 OFFCURVE",
"371 587 CURVE SMOOTH",
"115 587 LINE",
"102 537 LINE",
"163 523 LINE",
"165 516 OFFCURVE",
"154 451 OFFCURVE",
"138 375 CURVE",
"104 216 LINE",
"87 137 OFFCURVE",
"71 75 OFFCURVE",
"65 67 CURVE",
"1 50 LINE",
"-6 0 LINE"
);
}
);
};
layerId = "DEDDD934-E4FE-4A27-B966-8C21F8A9BC34";
paths = (
{
closed = 1;
nodes = (
"278 0 LINE",
"292 52 LINE",
"214 67 LINE",
"217 89 OFFCURVE",
"226 140 OFFCURVE",
"243 221 CURVE",
"274 368 LINE",
"294 460 OFFCURVE",
"305 515 OFFCURVE",
"309 531 CURVE",
"331 531 LINE SMOOTH",
"400 531 OFFCURVE",
"435 499 OFFCURVE",
"435 436 CURVE SMOOTH",
"435 341 OFFCURVE",
"388 285 OFFCURVE",
"309 285 CURVE SMOOTH",
"285 285 OFFCURVE",
"260 290 OFFCURVE",
"245 298 CURVE",
"230 228 LINE",
"247 223 OFFCURVE",
"278 220 OFFCURVE",
"306 220 CURVE SMOOTH",
"459 220 OFFCURVE",
"581 317 OFFCURVE",
"581 438 CURVE SMOOTH",
"581 538 OFFCURVE",
"511 587 OFFCURVE",
"368 587 CURVE SMOOTH",
"118 587 LINE",
"104 537 LINE",
"165 521 LINE",
"163 502 OFFCURVE",
"156 459 OFFCURVE",
"137 368 CURVE",
"105 221 LINE",
"94 167 OFFCURVE",
"77 97 OFFCURVE",
"67 67 CURVE",
"3 50 LINE",
"-5 0 LINE"
);
}
);
width = 572;
}
);
leftKerningGroup = H;
note = P;
rightKerningGroup = P;
unicode = 0050;
},
{
glyphname = Thorn;
lastChange = "2018-08-22 12:32:02 +0000";
layers = (
{
background = {
paths = (
{
closed = 1;
nodes = (
"836 0 LINE",
"846 40 LINE",
"768 52 LINE",
"768 62 OFFCURVE",
"771 89 OFFCURVE",
"777 117 CURVE SMOOTH",
"846 437 LINE",
"899 437 LINE SMOOTH",
"973 437 OFFCURVE",
"1020 394 OFFCURVE",
"1000 299 CURVE SMOOTH",
"983 217 OFFCURVE",
"927 175 OFFCURVE",
"849 175 CURVE SMOOTH",
"825 175 OFFCURVE",
"804 180 OFFCURVE",
"777 188 CURVE",
"766 137 LINE",
"787 133 OFFCURVE",
"811 129 OFFCURVE",
"841 129 CURVE SMOOTH",
"959 129 OFFCURVE",
"1069 200 OFFCURVE",
"1093 312 CURVE SMOOTH",
"1116 421 OFFCURVE",
"1051 481 OFFCURVE",
"919 481 CURVE SMOOTH",
"839 481 LINE",
"849 451 LINE",
"858 492 LINE SMOOTH",
"863 513 OFFCURVE",
"867 527 OFFCURVE",
"869 534 CURVE",
"933 549 LINE",
"939 587 LINE",
"727 587 LINE",
"717 549 LINE",
"775 534 LINE",
"777 526 OFFCURVE",
"769 476 OFFCURVE",
"750 387 CURVE SMOOTH",
"710 199 LINE SMOOTH",
"691 111 OFFCURVE",
"679 61 OFFCURVE",
"675 52 CURVE",
"615 38 LINE",
"609 0 LINE"
);
},
{
closed = 1;
nodes = (
"216 0 LINE",
"226 38 LINE",
"168 52 LINE",
"169 70 OFFCURVE",
"173 101 OFFCURVE",
"193 197 CURVE SMOOTH",
"233 385 LINE SMOOTH",
"252 473 OFFCURVE",
"265 518 OFFCURVE",
"270 535 CURVE",
"334 549 LINE",
"340 587 LINE",
"128 587 LINE",
"118 549 LINE",
"176 535 LINE",
"175 517 OFFCURVE",
"168 475 OFFCURVE",
"149 385 CURVE SMOOTH",
"109 197 LINE SMOOTH",
"90 109 OFFCURVE",
"81 71 OFFCURVE",
"75 52 CURVE",
"11 38 LINE",
"5 0 LINE"
);
}
);
};
layerId = "720C727D-0ED9-429E-914E-55EB9E513E33";
paths = (
{
closed = 1;
nodes = (
"232 0 LINE",
"242 40 LINE",
"164 52 LINE",
"167 72 OFFCURVE",
"172 101 OFFCURVE",
"178 127 CURVE SMOOTH",
"244 437 LINE",
"288 437 LINE SMOOTH",
"366 437 OFFCURVE",
"404 401 OFFCURVE",
"404 333 CURVE SMOOTH",
"404 235 OFFCURVE",
"347 176 OFFCURVE",
"249 176 CURVE SMOOTH",
"225 176 OFFCURVE",
"205 179 OFFCURVE",
"177 188 CURVE",
"165 140 LINE",
"193 132 OFFCURVE",
"218 129 OFFCURVE",
"244 129 CURVE SMOOTH",
"385 129 OFFCURVE",
"494 221 OFFCURVE",
"494 341 CURVE SMOOTH",
"494 430 OFFCURVE",
"426 481 OFFCURVE",
"305 481 CURVE SMOOTH",
"238 481 LINE",
"248 451 LINE",
"257 492 LINE SMOOTH",
"262 513 OFFCURVE",
"266 528 OFFCURVE",
"268 535 CURVE",
"332 549 LINE",
"338 587 LINE",
"128 587 LINE",
"118 549 LINE",
"176 535 LINE",
"175 517 OFFCURVE",
"168 475 OFFCURVE",
"149 385 CURVE SMOOTH",
"109 197 LINE SMOOTH",
"90 109 OFFCURVE",
"81 71 OFFCURVE",
"75 52 CURVE",
"15 38 LINE",
"9 0 LINE"
);
}
);
width = 515;
},
{
background = {
paths = (
{
closed = 1;
nodes = (
"875 0 LINE",
"889 52 LINE",
"811 67 LINE",
"813 75 OFFCURVE",
"815 99 OFFCURVE",
"822 130 CURVE SMOOTH",
"887 434 LINE",
"915 434 LINE SMOOTH",
"992 434 OFFCURVE",
"1029 394 OFFCURVE",
"1010 304 CURVE SMOOTH",
"994 229 OFFCURVE",
"949 185 OFFCURVE",
"886 185 CURVE SMOOTH",
"857 185 OFFCURVE",
"836 191 OFFCURVE",
"823 199 CURVE",
"808 131 LINE",
"828 127 OFFCURVE",
"851 124 OFFCURVE",
"873 124 CURVE SMOOTH",
"1028 124 OFFCURVE",
"1136 207 OFFCURVE",
"1159 318 CURVE SMOOTH",
"1182 429 OFFCURVE",
"1115 490 OFFCURVE",
"950 490 CURVE SMOOTH",
"865 490 LINE",
"891 454 LINE",
"897 484 LINE SMOOTH",
"900 499 OFFCURVE",
"905 514 OFFCURVE",
"907 520 CURVE",
"975 537 LINE",
"982 587 LINE",
"714 587 LINE",
"701 537 LINE",
"761 520 LINE",
"764 513 OFFCURVE",
"753 451 OFFCURVE",
"735 366 CURVE SMOOTH",
"705 221 LINE SMOOTH",
"688 137 OFFCURVE",
"671 75 OFFCURVE",
"665 67 CURVE",
"601 50 LINE",
"594 0 LINE"
);
},
{
closed = 1;
nodes = (
"259 0 LINE",
"273 50 LINE",
"213 67 LINE",
"216 90 OFFCURVE",
"225 144 OFFCURVE",
"241 221 CURVE SMOOTH",
"272 368 LINE SMOOTH",
"289 448 OFFCURVE",
"304 506 OFFCURVE",
"310 521 CURVE",
"377 537 LINE",
"385 587 LINE",
"116 587 LINE",
"102 537 LINE",
"163 521 LINE",
"161 500 OFFCURVE",
"152 450 OFFCURVE",
"135 368 CURVE SMOOTH",
"104 221 LINE SMOOTH",
"87 141 OFFCURVE",
"72 85 OFFCURVE",
"66 67 CURVE",
"-2 50 LINE",
"-10 0 LINE"
);
}
);
};
layerId = "DEDDD934-E4FE-4A27-B966-8C21F8A9BC34";
paths = (
{
closed = 1;
nodes = (
"275 0 LINE",
"289 52 LINE",
"211 67 LINE",
"212 75 OFFCURVE",
"217 108 OFFCURVE",
"224 139 CURVE SMOOTH",
"287 434 LINE",
"308 434 LINE SMOOTH",
"377 434 OFFCURVE",
"412 402 OFFCURVE",
"412 339 CURVE SMOOTH",
"412 244 OFFCURVE",
"365 186 OFFCURVE",
"286 186 CURVE SMOOTH",
"262 186 OFFCURVE",
"237 191 OFFCURVE",
"222 199 CURVE",
"207 131 LINE",
"224 126 OFFCURVE",
"255 123 OFFCURVE",
"283 123 CURVE SMOOTH",
"436 123 OFFCURVE",
"558 220 OFFCURVE",
"558 341 CURVE SMOOTH",
"558 441 OFFCURVE",
"488 490 OFFCURVE",
"345 490 CURVE SMOOTH",
"265 490 LINE",
"291 454 LINE",
"299 485 LINE SMOOTH",
"303 500 OFFCURVE",
"307 515 OFFCURVE",
"309 521 CURVE",
"377 537 LINE",
"385 587 LINE",
"116 587 LINE",
"102 537 LINE",
"163 521 LINE",
"161 500 OFFCURVE",
"152 450 OFFCURVE",
"135 368 CURVE SMOOTH",
"104 221 LINE SMOOTH",
"87 141 OFFCURVE",
"72 85 OFFCURVE",
"66 67 CURVE",
"2 50 LINE",
"-6 0 LINE"
);
}
);
width = 571;
}
);
leftKerningGroup = H;
note = Thorn;
rightKerningGroup = Thorn;
unicode = 00DE;
},
{
glyphname = Q;
lastChange = "2018-08-22 12:32:02 +0000";
layers = (
{
anchors = (
{
name = top;
position = "{422, 587}";
}
);
background = {
paths = (
{
closed = 1;
nodes = (
"314 -6 LINE",
"496 -5 OFFCURVE",
"659 166 OFFCURVE",
"659 362 CURVE SMOOTH",
"659 505 OFFCURVE",
"568 596 OFFCURVE",
"419 596 CURVE SMOOTH",
"226 596 OFFCURVE",
"62 426 OFFCURVE",
"62 229 CURVE SMOOTH",
"62 85 OFFCURVE",
"158 -8 OFFCURVE",
"309 -8 CURVE"
);
},
{
closed = 1;
nodes = (
"229 45 OFFCURVE",
"166 120 OFFCURVE",
"166 236 CURVE SMOOTH",
"166 410 OFFCURVE",
"270 546 OFFCURVE",
"403 546 CURVE SMOOTH",
"501 546 OFFCURVE",
"559 474 OFFCURVE",
"559 356 CURVE SMOOTH",
"559 181 OFFCURVE",
"458 45 OFFCURVE",
"328 45 CURVE SMOOTH"
);
},
{
closed = 1;
nodes = (
"604 -135 OFFCURVE",
"650 -123 OFFCURVE",
"684 -103 CURVE",
"675 -63 LINE",
"654 -69 OFFCURVE",
"633 -72 OFFCURVE",
"613 -72 CURVE SMOOTH",
"571 -72 OFFCURVE",
"533 -61 OFFCURVE",
"484 -33 CURVE SMOOTH",
"445 -11 OFFCURVE",
"411 2 OFFCURVE",
"363 7 CURVE",
"231 7 LINE",
"275 -5 OFFCURVE",
"345 -58 OFFCURVE",
"389 -83 CURVE SMOOTH",
"459 -123 OFFCURVE",
"501 -135 OFFCURVE",
"556 -135 CURVE SMOOTH"
);
}
);
};
layerId = "720C727D-0ED9-429E-914E-55EB9E513E33";
paths = (
{
closed = 1;
nodes = (
"584 -135 OFFCURVE",
"630 -123 OFFCURVE",
"664 -103 CURVE",
"655 -63 LINE",
"634 -69 OFFCURVE",
"613 -72 OFFCURVE",
"593 -72 CURVE SMOOTH",
"551 -72 OFFCURVE",
"513 -61 OFFCURVE",
"464 -33 CURVE SMOOTH",
"426 -12 OFFCURVE",
"393 0 OFFCURVE",
"316 3 CURVE",
"317 -6 LINE",
"496 -5 OFFCURVE",
"659 166 OFFCURVE",
"659 362 CURVE SMOOTH",
"659 505 OFFCURVE",
"568 596 OFFCURVE",
"419 596 CURVE SMOOTH",
"226 596 OFFCURVE",
"62 426 OFFCURVE",
"62 229 CURVE SMOOTH",
"62 119 OFFCURVE",
"118 39 OFFCURVE",
"211 7 CURVE SMOOTH",
"264 -11 OFFCURVE",
"325 -58 OFFCURVE",
"369 -83 CURVE SMOOTH",
"439 -123 OFFCURVE",
"481 -135 OFFCURVE",
"536 -135 CURVE SMOOTH"
);
},
{
closed = 1;
nodes = (
"229 45 OFFCURVE",
"166 120 OFFCURVE",
"166 236 CURVE SMOOTH",
"166 410 OFFCURVE",
"270 546 OFFCURVE",
"403 546 CURVE SMOOTH",
"501 546 OFFCURVE",
"559 474 OFFCURVE",
"559 356 CURVE SMOOTH",
"559 181 OFFCURVE",
"458 45 OFFCURVE",
"328 45 CURVE SMOOTH"
);
}
);
width = 687;
},
{
anchors = (
{
name = top;
position = "{431, 587}";
}
);
background = {
paths = (
{
closed = 1;
nodes = (
"326 -4 LINE",
"515 -3 OFFCURVE",
"687 167 OFFCURVE",
"687 364 CURVE SMOOTH",
"687 505 OFFCURVE",
"588 596 OFFCURVE",
"427 596 CURVE SMOOTH",
"223 596 OFFCURVE",
"52 431 OFFCURVE",
"52 232 CURVE SMOOTH",
"52 87 OFFCURVE",
"158 -7 OFFCURVE",
"322 -7 CURVE"
);
},
{
closed = 1;
nodes = (
"262 67 OFFCURVE",
"213 131 OFFCURVE",
"213 234 CURVE SMOOTH",
"213 399 OFFCURVE",
"301 529 OFFCURVE",
"409 529 CURVE SMOOTH",
"484 529 OFFCURVE",
"529 471 OFFCURVE",
"529 363 CURVE SMOOTH",
"529 196 OFFCURVE",
"446 67 OFFCURVE",
"339 67 CURVE SMOOTH"
);
},
{
closed = 1;
nodes = (
"618 -148 OFFCURVE",
"669 -131 OFFCURVE",
"704 -108 CURVE",
"690 -54 LINE",
"665 -61 OFFCURVE",
"642 -63 OFFCURVE",
"625 -63 CURVE SMOOTH",
"585 -63 OFFCURVE",
"560 -54 OFFCURVE",
"510 -23 CURVE SMOOTH",
"472 1 OFFCURVE",
"425 12 OFFCURVE",
"356 14 CURVE",
"209 14 LINE",
"251 -1 OFFCURVE",
"276 -23 OFFCURVE",
"327 -66 CURVE SMOOTH",
"381 -111 OFFCURVE",
"448 -148 OFFCURVE",
"560 -148 CURVE SMOOTH"
);
}
);
};
layerId = "DEDDD934-E4FE-4A27-B966-8C21F8A9BC34";
paths = (
{
closed = 1;
nodes = (
"601 -148 OFFCURVE",
"652 -131 OFFCURVE",
"687 -108 CURVE",
"673 -54 LINE",
"648 -61 OFFCURVE",
"625 -63 OFFCURVE",
"608 -63 CURVE SMOOTH",
"568 -63 OFFCURVE",
"543 -54 OFFCURVE",
"493 -23 CURVE SMOOTH",
"462 -3 OFFCURVE",
"424 6 OFFCURVE",
"344 8 CURVE",
"336 -4 LINE",
"515 -3 OFFCURVE",
"687 167 OFFCURVE",
"687 364 CURVE SMOOTH",
"687 505 OFFCURVE",
"588 596 OFFCURVE",
"427 596 CURVE SMOOTH",
"223 596 OFFCURVE",
"52 431 OFFCURVE",
"52 232 CURVE SMOOTH",
"52 138 OFFCURVE",
"96 60 OFFCURVE",
"188 19 CURVE SMOOTH",
"238 -3 OFFCURVE",
"263 -26 OFFCURVE",
"310 -66 CURVE SMOOTH",
"364 -111 OFFCURVE",
"431 -148 OFFCURVE",
"543 -148 CURVE SMOOTH"
);
},
{
closed = 1;
nodes = (
"262 67 OFFCURVE",
"213 131 OFFCURVE",
"213 234 CURVE SMOOTH",
"213 399 OFFCURVE",
"301 529 OFFCURVE",
"409 529 CURVE SMOOTH",
"484 529 OFFCURVE",
"529 471 OFFCURVE",
"529 363 CURVE SMOOTH",
"529 196 OFFCURVE",
"446 67 OFFCURVE",
"339 67 CURVE SMOOTH"
);
}
);
width = 706;
}
);
leftKerningGroup = O;
leftMetricsKey = O;
widthMetricsKey = O;
note = Q;
rightKerningGroup = O;
unicode = 0051;
},
{
glyphname = R;
lastChange = "2018-08-22 12:32:02 +0000";
layers = (
{
anchors = (
{
name = bottom;
position = "{267, 0}";
},
{
name = top;
position = "{348, 587}";
}
);
background = {
paths = (
{
closed = 1;
nodes = (
"218 0 LINE",
"228 38 LINE",
"170 53 LINE",
"168 62 OFFCURVE",
"176 111 OFFCURVE",
"195 199 CURVE SMOOTH",
"238 402 LINE SMOOTH",
"264 523 OFFCURVE",
"267 536 OFFCURVE",
"270 543 CURVE",
"328 543 LINE SMOOTH",
"403 543 OFFCURVE",
"435 506 OFFCURVE",
"420 435 CURVE SMOOTH",
"405 362 OFFCURVE",
"347 318 OFFCURVE",
"265 318 CURVE SMOOTH",
"208 318 LINE",
"199 273 LINE",
"262 273 LINE SMOOTH",
"387 273 OFFCURVE",
"491 344 OFFCURVE",
"512 444 CURVE SMOOTH",
"532 538 OFFCURVE",
"476 587 OFFCURVE",
"348 587 CURVE SMOOTH",
"128 587 LINE",
"118 549 LINE",
"177 537 LINE",
"179 529 OFFCURVE",
"170 478 OFFCURVE",
"151 387 CURVE SMOOTH",
"111 199 LINE SMOOTH",
"98 136 OFFCURVE",
"82 71 OFFCURVE",
"76 53 CURVE",
"12 38 LINE",
"6 0 LINE"
);
},
{
closed = 1;
nodes = (
"494 -10 OFFCURVE",
"510 -9 OFFCURVE",
"523 -6 CURVE",
"532 30 LINE",
"483 39 OFFCURVE",
"454 64 OFFCURVE",
"415 148 CURVE SMOOTH",
"341 307 LINE",
"262 290 LINE",
"304 166 LINE SMOOTH",
"349 33 OFFCURVE",
"391 -10 OFFCURVE",
"480 -10 CURVE SMOOTH"
);
}
);
};
layerId = "720C727D-0ED9-429E-914E-55EB9E513E33";
paths = (
{
closed = 1;
nodes = (
"216 0 LINE",
"226 38 LINE",
"168 52 LINE",
"169 70 OFFCURVE",
"174 109 OFFCURVE",
"193 197 CURVE SMOOTH",
"233 385 LINE SMOOTH",
"259 506 OFFCURVE",
"267 536 OFFCURVE",
"269 543 CURVE",
"318 543 LINE SMOOTH",
"388 543 OFFCURVE",
"424 517 OFFCURVE",
"424 457 CURVE SMOOTH",
"424 377 OFFCURVE",
"362 318 OFFCURVE",
"275 318 CURVE SMOOTH",
"208 318 LINE",
"199 273 LINE",
"274 273 LINE SMOOTH",
"402 273 OFFCURVE",
"516 363 OFFCURVE",
"516 465 CURVE SMOOTH",
"516 549 OFFCURVE",
"458 587 OFFCURVE",
"338 587 CURVE SMOOTH",
"129 587 LINE",
"119 549 LINE",
"177 535 LINE",
"176 517 OFFCURVE",
"169 475 OFFCURVE",
"150 385 CURVE SMOOTH",
"110 197 LINE SMOOTH",
"91 109 OFFCURVE",
"82 71 OFFCURVE",
"76 52 CURVE",
"12 38 LINE",
"6 0 LINE"
);
},
{
closed = 1;
nodes = (
"495 -10 OFFCURVE",
"510 -9 OFFCURVE",
"523 -6 CURVE",
"532 30 LINE",
"480 37 OFFCURVE",
"452 64 OFFCURVE",
"413 148 CURVE SMOOTH",
"339 307 LINE",
"263 290 LINE",
"303 175 LINE SMOOTH",
"352 33 OFFCURVE",
"393 -10 OFFCURVE",
"475 -10 CURVE SMOOTH"
);
}
);
width = 569;
},
{
anchors = (
{
name = bottom;
position = "{289, 0}";
},
{
name = top;
position = "{381, 587}";
}
);
background = {
anchors = (
{
name = bottom;
position = "{689, 0}";
},
{
name = top;
position = "{781, 587}";
}
);
paths = (
{
closed = 1;
nodes = (
"251 0 LINE",
"265 50 LINE",
"212 67 LINE",
"216 93 OFFCURVE",
"230 168 OFFCURVE",
"241 221 CURVE SMOOTH",
"273 373 LINE SMOOTH",
"289 449 OFFCURVE",
"306 522 OFFCURVE",
"309 531 CURVE",
"347 531 LINE SMOOTH",
"411 531 OFFCURVE",
"439 497 OFFCURVE",
"425 435 CURVE SMOOTH",
"410 368 OFFCURVE",
"358 323 OFFCURVE",
"292 323 CURVE SMOOTH",
"255 323 LINE",
"242 265 LINE",
"299 265 LINE SMOOTH",
"435 265 OFFCURVE",
"548 336 OFFCURVE",
"569 435 CURVE SMOOTH",
"591 539 OFFCURVE",
"530 587 OFFCURVE",
"375 587 CURVE SMOOTH",
"115 587 LINE",
"101 537 LINE",
"161 520 LINE",
"164 513 OFFCURVE",
"154 448 OFFCURVE",
"136 366 CURVE SMOOTH",
"105 221 LINE SMOOTH",
"94 169 OFFCURVE",
"74 83 OFFCURVE",
"69 67 CURVE",
"2 50 LINE",
"-6 0 LINE"
);
},
{
closed = 1;
nodes = (
"536 -12 OFFCURVE",
"558 -10 OFFCURVE",
"581 -6 CURVE",
"592 41 LINE",
"544 54 OFFCURVE",
"512 84 OFFCURVE",
"483 141 CURVE SMOOTH",
"399 307 LINE",
"282 281 LINE",
"311 158 LINE SMOOTH",
"339 40 OFFCURVE",
"402 -12 OFFCURVE",
"515 -12 CURVE SMOOTH"
);
}
);
};
layerId = "DEDDD934-E4FE-4A27-B966-8C21F8A9BC34";
paths = (
{
closed = 1;
nodes = (
"251 0 LINE",
"265 50 LINE",
"213 67 LINE",
"216 90 OFFCURVE",
"230 168 OFFCURVE",
"241 221 CURVE SMOOTH",
"272 368 LINE SMOOTH",
"288 444 OFFCURVE",
"307 522 OFFCURVE",
"310 531 CURVE",
"337 531 LINE SMOOTH",
"400 531 OFFCURVE",
"429 505 OFFCURVE",
"429 460 CURVE SMOOTH",
"429 379 OFFCURVE",
"377 323 OFFCURVE",
"298 323 CURVE SMOOTH",
"255 323 LINE",
"242 265 LINE",
"311 265 LINE SMOOTH",
"466 265 OFFCURVE",
"573 355 OFFCURVE",
"573 462 CURVE SMOOTH",
"573 548 OFFCURVE",
"506 587 OFFCURVE",
"365 587 CURVE SMOOTH",
"117 587 LINE",
"103 537 LINE",
"164 521 LINE",
"162 500 OFFCURVE",
"153 450 OFFCURVE",
"136 368 CURVE SMOOTH",
"105 221 LINE SMOOTH",
"88 141 OFFCURVE",
"73 85 OFFCURVE",
"67 67 CURVE",
"-1 50 LINE",
"-9 0 LINE"
);
},
{
closed = 1;
nodes = (
"536 -12 OFFCURVE",
"558 -10 OFFCURVE",
"581 -6 CURVE",
"592 41 LINE",
"538 54 OFFCURVE",
"509 84 OFFCURVE",
"480 141 CURVE SMOOTH",
"396 307 LINE",
"284 281 LINE",
"311 166 LINE SMOOTH",
"339 45 OFFCURVE",
"402 -12 OFFCURVE",
"515 -12 CURVE SMOOTH"
);
}
);
width = 618;
}
);
leftKerningGroup = H;
note = R;
rightKerningGroup = R;
unicode = 0052;
},
{
glyphname = S;
lastChange = "2018-08-22 12:32:02 +0000";
layers = (
{
anchors = (
{
name = bottom;
position = "{198, 0}";
},
{
name = top;
position = "{322, 587}";
}
);
background = {
paths = (
{
closed = 1;
nodes = (
"304 -9 OFFCURVE",
"408 61 OFFCURVE",
"429 157 CURVE SMOOTH",
"469 338 OFFCURVE",
"167 314 OFFCURVE",
"199 459 CURVE SMOOTH",
"211 513 OFFCURVE",
"262 549 OFFCURVE",
"329 549 CURVE SMOOTH",
"363 549 OFFCURVE",
"388 543 OFFCURVE",
"407 529 CURVE",
"417 445 LINE",
"461 449 LINE",
"480 574 LINE",
"449 589 OFFCURVE",
"402 597 OFFCURVE",
"349 597 CURVE SMOOTH",
"225 597 OFFCURVE",
"123 530 OFFCURVE",
"103 433 CURVE SMOOTH",
"64 243 OFFCURVE",
"362 272 OFFCURVE",
"331 130 CURVE SMOOTH",
"319 75 OFFCURVE",
"268 41 OFFCURVE",
"203 41 CURVE SMOOTH",
"160 41 OFFCURVE",
"123 53 OFFCURVE",
"95 74 CURVE",
"87 165 LINE",
"42 159 LINE",
"20 30 LINE",
"54 7 OFFCURVE",
"120 -9 OFFCURVE",
"179 -9 CURVE SMOOTH"
);
},
{
closed = 1;
nodes = (
"-293 -9 OFFCURVE",
"-170 63 OFFCURVE",
"-170 176 CURVE SMOOTH",
"-170 327 OFFCURVE",
"-408 325 OFFCURVE",
"-408 439 CURVE SMOOTH",
"-408 511 OFFCURVE",
"-345 549 OFFCURVE",
"-271 549 CURVE SMOOTH",
"-237 549 OFFCURVE",
"-212 544 OFFCURVE",
"-193 533 CURVE",
"-183 445 LINE",
"-140 447 LINE",
"-119 572 LINE",
"-154 588 OFFCURVE",
"-202 597 OFFCURVE",
"-258 597 CURVE SMOOTH",
"-382 597 OFFCURVE",
"-499 528 OFFCURVE",
"-499 413 CURVE SMOOTH",
"-499 253 OFFCURVE",
"-262 264 OFFCURVE",
"-262 147 CURVE SMOOTH",
"-262 78 OFFCURVE",
"-324 41 OFFCURVE",
"-397 41 CURVE SMOOTH",
"-440 41 OFFCURVE",
"-477 52 OFFCURVE",
"-505 71 CURVE",
"-510 161 LINE",
"-555 159 LINE",
"-580 30 LINE",
"-536 7 OFFCURVE",
"-470 -9 OFFCURVE",
"-411 -9 CURVE SMOOTH"
);
}
);
};
layerId = "720C727D-0ED9-429E-914E-55EB9E513E33";
paths = (
{
closed = 1;
nodes = (
"307 -9 OFFCURVE",
"430 63 OFFCURVE",
"430 176 CURVE SMOOTH",
"430 327 OFFCURVE",
"191 325 OFFCURVE",
"191 439 CURVE SMOOTH",
"191 511 OFFCURVE",
"254 549 OFFCURVE",
"329 549 CURVE SMOOTH",
"363 549 OFFCURVE",
"388 544 OFFCURVE",
"407 533 CURVE",
"417 445 LINE",
"460 447 LINE",
"481 572 LINE",
"446 588 OFFCURVE",
"398 597 OFFCURVE",
"342 597 CURVE SMOOTH",
"217 597 OFFCURVE",
"100 528 OFFCURVE",
"100 413 CURVE SMOOTH",
"100 253 OFFCURVE",
"338 264 OFFCURVE",
"338 147 CURVE SMOOTH",
"338 78 OFFCURVE",
"276 41 OFFCURVE",
"205 41 CURVE SMOOTH",
"165 41 OFFCURVE",
"128 52 OFFCURVE",
"100 71 CURVE",
"95 161 LINE",
"49 159 LINE",
"24 30 LINE",
"69 7 OFFCURVE",
"135 -9 OFFCURVE",
"191 -9 CURVE SMOOTH"
);
}
);
width = 481;
},
{
anchors = (
{
name = bottom;
position = "{215, 0}";
},
{
name = top;
position = "{340, 587}";
}
);
background = {
anchors = (
{
name = bottom;
position = "{815, 0}";
},
{
name = top;
position = "{940, 587}";
}
);
paths = (
{
closed = 1;
nodes = (
"336 -9 OFFCURVE",
"453 66 OFFCURVE",
"476 170 CURVE SMOOTH",
"518 361 OFFCURVE",
"215 325 OFFCURVE",
"245 457 CURVE SMOOTH",
"256 506 OFFCURVE",
"302 534 OFFCURVE",
"354 534 CURVE SMOOTH",
"377 534 OFFCURVE",
"399 531 OFFCURVE",
"422 519 CURVE",
"432 418 LINE",
"498 424 LINE",
"517 571 LINE",
"483 587 OFFCURVE",
"424 598 OFFCURVE",
"378 598 CURVE SMOOTH",
"230 598 OFFCURVE",
"115 525 OFFCURVE",
"92 417 CURVE SMOOTH",
"49 214 OFFCURVE",
"349 263 OFFCURVE",
"319 125 CURVE SMOOTH",
"310 83 OFFCURVE",
"272 57 OFFCURVE",
"213 57 CURVE SMOOTH",
"184 57 OFFCURVE",
"144 65 OFFCURVE",
"119 84 CURVE",
"108 190 LINE",
"42 184 LINE",
"14 36 LINE",
"57 8 OFFCURVE",
"128 -9 OFFCURVE",
"185 -9 CURVE SMOOTH"
);
},
{
closed = 1;
nodes = (
"-255 -9 OFFCURVE",
"-122 73 OFFCURVE",
"-122 193 CURVE SMOOTH",
"-122 349 OFFCURVE",
"-366 335 OFFCURVE",
"-366 442 CURVE SMOOTH",
"-366 499 OFFCURVE",
"-315 534 OFFCURVE",
"-248 534 CURVE SMOOTH",
"-222 534 OFFCURVE",
"-198 529 OFFCURVE",
"-178 520 CURVE",
"-171 422 LINE",
"-106 424 LINE",
"-82 571 LINE",
"-116 587 OFFCURVE",
"-179 598 OFFCURVE",
"-233 598 CURVE SMOOTH",
"-382 598 OFFCURVE",
"-510 516 OFFCURVE",
"-510 389 CURVE SMOOTH",
"-510 227 OFFCURVE",
"-270 251 OFFCURVE",
"-270 141 CURVE SMOOTH",
"-270 91 OFFCURVE",
"-309 57 OFFCURVE",
"-382 57 CURVE SMOOTH",
"-420 57 OFFCURVE",
"-460 68 OFFCURVE",
"-481 84 CURVE",
"-489 186 LINE",
"-555 184 LINE",
"-586 36 LINE",
"-538 8 OFFCURVE",
"-467 -9 OFFCURVE",
"-397 -9 CURVE SMOOTH"
);
}
);
};
layerId = "DEDDD934-E4FE-4A27-B966-8C21F8A9BC34";
paths = (
{
closed = 1;
nodes = (
"345 -9 OFFCURVE",
"478 73 OFFCURVE",
"478 193 CURVE SMOOTH",
"478 349 OFFCURVE",
"234 335 OFFCURVE",
"234 442 CURVE SMOOTH",
"234 499 OFFCURVE",
"285 534 OFFCURVE",
"352 534 CURVE SMOOTH",
"378 534 OFFCURVE",
"402 529 OFFCURVE",
"422 520 CURVE",
"429 422 LINE",
"494 424 LINE",
"518 571 LINE",
"484 587 OFFCURVE",
"421 598 OFFCURVE",
"367 598 CURVE SMOOTH",
"218 598 OFFCURVE",
"90 516 OFFCURVE",
"90 389 CURVE SMOOTH",
"90 227 OFFCURVE",
"330 251 OFFCURVE",
"330 141 CURVE SMOOTH",
"330 91 OFFCURVE",
"291 57 OFFCURVE",
"219 57 CURVE SMOOTH",
"183 57 OFFCURVE",
"143 68 OFFCURVE",
"122 84 CURVE",
"114 186 LINE",
"48 184 LINE",
"17 36 LINE",
"65 8 OFFCURVE",
"136 -9 OFFCURVE",
"204 -9 CURVE SMOOTH"
);
}
);
width = 514;
}
);
leftKerningGroup = S;
note = S;
rightKerningGroup = S;
unicode = 0053;
},
{
glyphname = Germandbls;
lastChange = "2018-08-22 12:32:02 +0000";
layers = (
{
background = {
paths = (
{
closed = 1;
nodes = (
"213 0 LINE",
"223 38 LINE",
"165 52 LINE",
"161 60 OFFCURVE",
"169 105 OFFCURVE",
"189 199 CURVE",
"226 378 LINE",
"249 487 OFFCURVE",
"315 549 OFFCURVE",
"406 549 CURVE SMOOTH",
"467 549 OFFCURVE",
"506 520 OFFCURVE",
"513 468 CURVE",
"574 468 LINE",
"560 553 OFFCURVE",
"504 597 OFFCURVE",
"415 597 CURVE SMOOTH",
"274 597 OFFCURVE",
"168 505 OFFCURVE",
"135 350 CURVE",
"104 199 LINE",
"87 121 OFFCURVE",
"72 63 OFFCURVE",
"66 52 CURVE",
"2 38 LINE",
"-4 0 LINE"
);
},
{
closed = 1;
nodes = (
"532 -9 OFFCURVE",
"619 47 OFFCURVE",
"638 134 CURVE SMOOTH",
"673 293 OFFCURVE",
"413 266 OFFCURVE",
"437 375 CURVE SMOOTH",
"446 416 OFFCURVE",
"487 446 OFFCURVE",
"550 446 CURVE SMOOTH",
"573 446 OFFCURVE",
"592 444 OFFCURVE",
"608 437 CURVE",
"615 362 LINE",
"658 365 LINE",
"674 474 LINE",
"647 484 OFFCURVE",
"602 491 OFFCURVE",
"562 491 CURVE SMOOTH",
"447 491 OFFCURVE",
"363 429 OFFCURVE",
"346 350 CURVE SMOOTH",
"311 188 OFFCURVE",
"570 223 OFFCURVE",
"546 109 CURVE SMOOTH",
"537 66 OFFCURVE",
"496 39 OFFCURVE",
"441 39 CURVE SMOOTH",
"408 39 OFFCURVE",
"374 49 OFFCURVE",
"349 68 CURVE",
"347 156 LINE",
"300 150 LINE",
"276 26 LINE",
"309 6 OFFCURVE",
"366 -9 OFFCURVE",
"422 -9 CURVE SMOOTH"
);
}
);
};
layerId = "720C727D-0ED9-429E-914E-55EB9E513E33";
paths = (
{
closed = 1;
nodes = (
"210 0 LINE",
"220 38 LINE",
"162 52 LINE",
"163 70 OFFCURVE",
"167 101 OFFCURVE",
"187 197 CURVE SMOOTH",
"225 378 LINE SMOOTH",
"252 506 OFFCURVE",
"320 549 OFFCURVE",
"398 549 CURVE SMOOTH",
"464 549 OFFCURVE",
"506 520 OFFCURVE",
"513 468 CURVE",
"574 468 LINE",
"558 551 OFFCURVE",
"501 597 OFFCURVE",
"400 597 CURVE SMOOTH",
"271 597 OFFCURVE",
"169 515 OFFCURVE",
"137 360 CURVE SMOOTH",
"103 197 LINE SMOOTH",
"85 109 OFFCURVE",
"75 71 OFFCURVE",
"69 52 CURVE",
"5 38 LINE",
"-1 0 LINE"
);
},
{
closed = 1;
nodes = (
"538 -9 OFFCURVE",
"639 56 OFFCURVE",
"639 154 CURVE SMOOTH",
"639 280 OFFCURVE",
"431 270 OFFCURVE",
"431 364 CURVE SMOOTH",
"431 413 OFFCURVE",
"476 446 OFFCURVE",
"546 446 CURVE SMOOTH",
"573 446 OFFCURVE",
"598 441 OFFCURVE",
"608 437 CURVE",
"613 362 LINE",
"656 364 LINE",
"674 474 LINE",
"647 484 OFFCURVE",
"592 491 OFFCURVE",
"552 491 CURVE SMOOTH",
"428 491 OFFCURVE",
"345 421 OFFCURVE",
"345 333 CURVE SMOOTH",
"345 200 OFFCURVE",
"552 223 OFFCURVE",
"552 120 CURVE SMOOTH",
"552 67 OFFCURVE",
"501 39 OFFCURVE",
"449 39 CURVE SMOOTH",
"408 39 OFFCURVE",
"374 49 OFFCURVE",
"349 68 CURVE",
"351 153 LINE",
"304 150 LINE",
"276 26 LINE",
"312 6 OFFCURVE",
"369 -9 OFFCURVE",
"432 -9 CURVE SMOOTH"
);
}
);
width = 696;
},
{
background = {
paths = (
{
closed = 1;
nodes = (
"251 0 LINE",
"265 50 LINE",
"208 67 LINE",
"205 75 OFFCURVE",
"215 133 OFFCURVE",
"232 221 CURVE",
"261 365 LINE",
"283 473 OFFCURVE",
"346 533 OFFCURVE",
"436 533 CURVE SMOOTH",
"492 533 OFFCURVE",
"528 510 OFFCURVE",
"538 466 CURVE",
"623 466 LINE",
"607 551 OFFCURVE",
"543 598 OFFCURVE",
"442 598 CURVE SMOOTH",
"278 598 OFFCURVE",
"153 495 OFFCURVE",
"118 332 CURVE",
"95 221 LINE",
"78 140 OFFCURVE",
"61 75 OFFCURVE",
"56 67 CURVE",
"-12 50 LINE",
"-20 0 LINE"
);
},
{
closed = 1;
nodes = (
"560 -9 OFFCURVE",
"668 55 OFFCURVE",
"687 145 CURVE SMOOTH",
"721 308 OFFCURVE",
"475 286 OFFCURVE",
"493 376 CURVE SMOOTH",
"501 416 OFFCURVE",
"541 435 OFFCURVE",
"584 435 CURVE SMOOTH",
"597 435 OFFCURVE",
"613 434 OFFCURVE",
"625 430 CURVE",
"635 340 LINE",
"697 345 LINE",
"714 475 LINE",
"685 487 OFFCURVE",
"626 495 OFFCURVE",
"592 495 CURVE SMOOTH",
"481 495 OFFCURVE",
"375 425 OFFCURVE",
"356 335 CURVE SMOOTH",
"320 166 OFFCURVE",
"571 211 OFFCURVE",
"548 104 CURVE SMOOTH",
"540 67 OFFCURVE",
"499 53 OFFCURVE",
"457 53 CURVE SMOOTH",
"436 53 OFFCURVE",
"411 57 OFFCURVE",
"391 72 CURVE",
"381 158 LINE",
"317 152 LINE",
"292 23 LINE",
"329 2 OFFCURVE",
"394 -9 OFFCURVE",
"440 -9 CURVE SMOOTH"
);
}
);
};
layerId = "DEDDD934-E4FE-4A27-B966-8C21F8A9BC34";
paths = (
{
closed = 1;
nodes = (
"250 0 LINE",
"264 50 LINE",
"204 67 LINE",
"207 90 OFFCURVE",
"216 144 OFFCURVE",
"232 221 CURVE SMOOTH",
"264 375 LINE SMOOTH",
"286 483 OFFCURVE",
"348 533 OFFCURVE",
"429 533 CURVE SMOOTH",
"492 533 OFFCURVE",
"528 510 OFFCURVE",
"538 466 CURVE",
"623 466 LINE",
"607 551 OFFCURVE",
"543 598 OFFCURVE",
"431 598 CURVE SMOOTH",
"278 598 OFFCURVE",
"154 505 OFFCURVE",
"120 342 CURVE SMOOTH",
"95 221 LINE",
"78 141 OFFCURVE",
"63 85 OFFCURVE",
"57 67 CURVE",
"-11 50 LINE",
"-19 0 LINE"
);
},
{
closed = 1;
nodes = (
"595 -9 OFFCURVE",
"689 73 OFFCURVE",
"689 168 CURVE SMOOTH",
"689 301 OFFCURVE",
"486 287 OFFCURVE",
"486 370 CURVE SMOOTH",
"486 411 OFFCURVE",
"528 435 OFFCURVE",
"580 435 CURVE SMOOTH",
"599 435 OFFCURVE",
"616 433 OFFCURVE",
"625 430 CURVE",
"633 341 LINE",
"695 345 LINE",
"714 475 LINE",
"685 487 OFFCURVE",
"624 495 OFFCURVE",
"587 495 CURVE SMOOTH",
"472 495 OFFCURVE",
"357 428 OFFCURVE",
"357 318 CURVE SMOOTH",
"357 179 OFFCURVE",
"558 206 OFFCURVE",
"558 118 CURVE SMOOTH",
"558 79 OFFCURVE",
"525 53 OFFCURVE",
"467 53 CURVE SMOOTH",
"441 53 OFFCURVE",
"416 58 OFFCURVE",
"391 70 CURVE",
"383 156 LINE",
"319 152 LINE",
"292 23 LINE",
"334 4 OFFCURVE",
"399 -9 OFFCURVE",
"462 -9 CURVE SMOOTH"
);
}
);
width = 732;
}
);
leftKerningGroup = Germandbls;
rightKerningGroup = S;
unicode = 1E9E;
},
{
glyphname = Schwa;
lastChange = "2018-08-22 12:32:02 +0000";
layers = (
{
anchors = (
{
name = bottom;
position = "{280, 0}";
},
{
name = top;
position = "{404, 587}";
}
);
background = {
anchors = (
{
name = bottom;
position = "{1080, 0}";
},
{
name = top;
position = "{1204, 587}";
}
);
paths = (
{
closed = 1;
nodes = (
"285 596 OFFCURVE",
"174 538 OFFCURVE",
"106 444 CURVE",
"133 418 LINE",
"191 472 OFFCURVE",
"263 504 OFFCURVE",
"339 504 CURVE SMOOTH",
"473 504 OFFCURVE",
"535 414 OFFCURVE",
"507 267 CURVE SMOOTH",
"503 246 LINE SMOOTH",
"479 120 OFFCURVE",
"397 44 OFFCURVE",
"295 44 CURVE SMOOTH",
"191 44 OFFCURVE",
"146 109 OFFCURVE",
"165 212 CURVE SMOOTH",
"171 244 LINE",
"149 227 LINE",
"532 227 LINE",
"544 283 LINE",
"68 283 LINE",
"62 258 LINE SMOOTH",
"23 96 OFFCURVE",
"110 -8 OFFCURVE",
"276 -9 CURVE SMOOTH",
"435 -10 OFFCURVE",
"578 122 OFFCURVE",
"617 306 CURVE SMOOTH",
"653 477 OFFCURVE",
"562 596 OFFCURVE",
"395 596 CURVE SMOOTH"
);
}
);
};
layerId = "720C727D-0ED9-429E-914E-55EB9E513E33";
paths = (
{
closed = 1;
nodes = (
"273 596 OFFCURVE",
"167 543 OFFCURVE",
"106 444 CURVE",
"133 418 LINE",
"195 481 OFFCURVE",
"260 507 OFFCURVE",
"336 507 CURVE SMOOTH",
"470 507 OFFCURVE",
"536 413 OFFCURVE",
"505 257 CURVE SMOOTH",
"501 237 LINE SMOOTH",
"476 111 OFFCURVE",
"397 44 OFFCURVE",
"303 44 CURVE SMOOTH",
"181 44 OFFCURVE",
"147 127 OFFCURVE",
"171 244 CURVE",
"149 227 LINE",
"532 227 LINE",
"544 283 LINE",
"68 283 LINE",
"29 100 OFFCURVE",
"114 -8 OFFCURVE",
"286 -9 CURVE SMOOTH",
"471 -10 OFFCURVE",
"618 167 OFFCURVE",
"618 358 CURVE SMOOTH",
"618 505 OFFCURVE",
"519 596 OFFCURVE",
"374 596 CURVE SMOOTH"
);
}
);
width = 649;
},
{
anchors = (
{
name = bottom;
position = "{284, 0}";
},
{
name = top;
position = "{408, 587}";
}
);
background = {
anchors = (
{
name = bottom;
position = "{984, 0}";
},
{
name = top;
position = "{1108, 587}";
}
);
paths = (
{
closed = 1;
nodes = (
"978 596 OFFCURVE",
"862 532 OFFCURVE",
"791 427 CURVE",
"816 397 LINE",
"876 448 OFFCURVE",
"943 476 OFFCURVE",
"1022 476 CURVE SMOOTH",
"1140 476 OFFCURVE",
"1195 397 OFFCURVE",
"1170 275 CURVE SMOOTH",
"1163 241 LINE SMOOTH",
"1140 129 OFFCURVE",
"1083 64 OFFCURVE",
"1002 64 CURVE SMOOTH",
"927 64 OFFCURVE",
"888 120 OFFCURVE",
"906 207 CURVE SMOOTH",
"915 251 LINE",
"887 216 LINE",
"1239 216 LINE",
"1253 286 LINE",
"757 286 LINE",
"750 251 LINE SMOOTH",
"718 93 OFFCURVE",
"812 -9 OFFCURVE",
"987 -9 CURVE SMOOTH",
"1144 -9 OFFCURVE",
"1297 131 OFFCURVE",
"1334 302 CURVE SMOOTH",
"1370 470 OFFCURVE",
"1269 596 OFFCURVE",
"1099 596 CURVE SMOOTH"
);
},
{
closed = 1;
nodes = (
"268 596 OFFCURVE",
"152 532 OFFCURVE",
"91 427 CURVE",
"116 397 LINE",
"172 448 OFFCURVE",
"234 478 OFFCURVE",
"310 478 CURVE SMOOTH",
"431 478 OFFCURVE",
"496 397 OFFCURVE",
"466 255 CURVE SMOOTH",
"459 222 LINE SMOOTH",
"439 129 OFFCURVE",
"383 64 OFFCURVE",
"302 64 CURVE SMOOTH",
"220 64 OFFCURVE",
"181 134 OFFCURVE",
"215 251 CURVE",
"187 216 LINE",
"539 216 LINE",
"553 286 LINE",
"57 286 LINE",
"18 101 OFFCURVE",
"108 -9 OFFCURVE",
"287 -9 CURVE SMOOTH",
"444 -9 OFFCURVE",
"595 131 OFFCURVE",
"628 283 CURVE SMOOTH",
"668 470 OFFCURVE",
"559 596 OFFCURVE",
"389 596 CURVE SMOOTH"
);
}
);
};
layerId = "DEDDD934-E4FE-4A27-B966-8C21F8A9BC34";
paths = (
{
closed = 1;
nodes = (
"268 596 OFFCURVE",
"152 532 OFFCURVE",
"91 427 CURVE",
"116 397 LINE",
"172 448 OFFCURVE",
"234 478 OFFCURVE",
"310 478 CURVE SMOOTH",
"433 478 OFFCURVE",
"498 397 OFFCURVE",
"468 255 CURVE SMOOTH",
"461 222 LINE SMOOTH",
"441 129 OFFCURVE",
"385 64 OFFCURVE",
"311 64 CURVE SMOOTH",
"220 64 OFFCURVE",
"181 134 OFFCURVE",
"215 251 CURVE",
"187 216 LINE",
"541 216 LINE",
"555 286 LINE",
"57 286 LINE",
"18 101 OFFCURVE",
"108 -9 OFFCURVE",
"295 -9 CURVE SMOOTH",
"468 -9 OFFCURVE",
"638 168 OFFCURVE",
"638 358 CURVE SMOOTH",
"638 503 OFFCURVE",
"537 596 OFFCURVE",
"389 596 CURVE SMOOTH"
);
}
);
width = 658;
}
);
leftKerningGroup = O;
rightKerningGroup = O;
unicode = 018F;
},
{
glyphname = T;
lastChange = "2018-08-22 12:32:02 +0000";
layers = (
{
anchors = (
{
name = bottom;
position = "{234, 0}";
},
{
name = stroke;
position = "{298, 303}";
},
{
name = top;
position = "{358, 587}";
}
);
background = {
anchors = (
{
name = bottom;
position = "{734, 0}";
},
{
name = stroke;
position = "{798, 303}";
},
{
name = top;
position = "{858, 587}";
}
);
paths = (
{
closed = 1;
nodes = (
"565 589 OFFCURVE",
"531 587 OFFCURVE",
"500 587 CURVE SMOOTH",
"214 587 LINE SMOOTH",
"183 587 OFFCURVE",
"149 589 OFFCURVE",
"118 591 CURVE",
"62 429 LINE",
"105 423 LINE",
"171 537 LINE",
"183 539 OFFCURVE",
"196 540 OFFCURVE",
"208 540 CURVE SMOOTH",
"246 540 LINE SMOOTH",
"260 540 OFFCURVE",
"286 540 OFFCURVE",
"303 538 CURVE",
"300 523 OFFCURVE",
"281 430 OFFCURVE",
"266 358 CURVE SMOOTH",
"238 223 LINE SMOOTH",
"220 138 OFFCURVE",
"203 71 OFFCURVE",
"198 52 CURVE",
"112 40 LINE",
"105 0 LINE",
"361 0 LINE",
"372 40 LINE",
"290 52 LINE",
"293 71 OFFCURVE",
"306 138 OFFCURVE",
"324 223 CURVE SMOOTH",
"352 358 LINE SMOOTH",
"367 430 OFFCURVE",
"388 523 OFFCURVE",
"393 538 CURVE",
"410 540 OFFCURVE",
"437 540 OFFCURVE",
"450 540 CURVE SMOOTH",
"486 540 LINE SMOOTH",
"498 540 OFFCURVE",
"512 539 OFFCURVE",
"522 537 CURVE",
"540 424 LINE",
"585 429 LINE",
"598 591 LINE"
);
}
);
};
layerId = "720C727D-0ED9-429E-914E-55EB9E513E33";
paths = (
{
closed = 1;
nodes = (
"565 589 OFFCURVE",
"531 587 OFFCURVE",
"500 587 CURVE SMOOTH",
"214 587 LINE SMOOTH",
"183 587 OFFCURVE",
"149 589 OFFCURVE",
"118 591 CURVE",
"62 429 LINE",
"107 423 LINE",
"173 537 LINE",
"185 539 OFFCURVE",
"198 540 OFFCURVE",
"210 540 CURVE SMOOTH",
"246 540 LINE SMOOTH",
"260 540 OFFCURVE",
"286 540 OFFCURVE",
"303 538 CURVE",
"300 523 OFFCURVE",
"291 475 OFFCURVE",
"272 385 CURVE SMOOTH",
"232 197 LINE SMOOTH",
"213 109 OFFCURVE",
"204 71 OFFCURVE",
"198 52 CURVE",
"111 40 LINE",
"104 0 LINE",
"362 0 LINE",
"373 40 LINE",
"292 52 LINE",
"294 70 OFFCURVE",
"298 101 OFFCURVE",
"318 197 CURVE SMOOTH",
"358 385 LINE SMOOTH",
"377 473 OFFCURVE",
"388 518 OFFCURVE",
"393 538 CURVE",
"410 540 OFFCURVE",
"437 540 OFFCURVE",
"450 540 CURVE SMOOTH",
"487 540 LINE SMOOTH",
"499 540 OFFCURVE",
"513 539 OFFCURVE",
"523 537 CURVE",
"541 424 LINE",
"585 429 LINE",
"598 591 LINE"
);
}
);
width = 558;
},
{
anchors = (
{
name = bottom;
position = "{260, 0}";
},
{
name = stroke;
position = "{324, 303}";
},
{
name = top;
position = "{385, 587}";
}
);
background = {
anchors = (
{
name = bottom;
position = "{323, 0}";
},
{
name = stroke;
position = "{323, 303}";
},
{
name = top;
position = "{323, 587}";
}
);
paths = (
{
closed = 1;
nodes = (
"394 0 LINE",
"408 50 LINE",
"348 67 LINE",
"351 90 OFFCURVE",
"360 144 OFFCURVE",
"376 221 CURVE SMOOTH",
"407 368 LINE SMOOTH",
"424 448 OFFCURVE",
"439 506 OFFCURVE",
"445 521 CURVE",
"512 537 LINE",
"520 587 LINE",
"251 587 LINE",
"237 537 LINE",
"298 521 LINE",
"296 500 OFFCURVE",
"287 450 OFFCURVE",
"270 368 CURVE SMOOTH",
"239 221 LINE SMOOTH",
"222 141 OFFCURVE",
"207 85 OFFCURVE",
"201 67 CURVE",
"133 50 LINE",
"125 0 LINE"
);
}
);
};
layerId = "DEDDD934-E4FE-4A27-B966-8C21F8A9BC34";
paths = (
{
closed = 1;
nodes = (
"625 591 OFFCURVE",
"546 587 OFFCURVE",
"510 587 CURVE SMOOTH",
"257 587 LINE SMOOTH",
"220 587 OFFCURVE",
"144 591 OFFCURVE",
"115 592 CURVE",
"57 413 LINE",
"120 407 LINE",
"183 525 LINE",
"201 527 OFFCURVE",
"213 528 OFFCURVE",
"231 528 CURVE SMOOTH",
"263 528 LINE SMOOTH",
"275 528 OFFCURVE",
"292 527 OFFCURVE",
"300 526 CURVE",
"298 513 OFFCURVE",
"288 456 OFFCURVE",
"269 368 CURVE SMOOTH",
"238 221 LINE SMOOTH",
"221 141 OFFCURVE",
"206 85 OFFCURVE",
"200 67 CURVE",
"110 52 LINE",
"102 0 LINE",
"418 0 LINE",
"432 52 LINE",
"348 67 LINE",
"351 90 OFFCURVE",
"360 144 OFFCURVE",
"376 221 CURVE SMOOTH",
"407 368 LINE SMOOTH",
"424 448 OFFCURVE",
"440 513 OFFCURVE",
"444 526 CURVE",
"452 527 OFFCURVE",
"469 528 OFFCURVE",
"481 528 CURVE SMOOTH",
"515 528 LINE SMOOTH",
"533 528 OFFCURVE",
"543 527 OFFCURVE",
"561 525 CURVE",
"576 409 LINE",
"638 414 LINE",
"653 592 LINE"
);
}
);
width = 614;
}
);
leftKerningGroup = T;
note = T;
rightKerningGroup = T;
unicode = 0054;
},
{
glyphname = U;
lastChange = "2018-08-22 12:32:02 +0000";
layers = (
{
anchors = (
{
name = bottom;
position = "{301, 0}";
},
{
name = ogonek;
position = "{366, 0}";
},
{
name = top;
position = "{426, 587}";
},
{
name = topright;
position = "{720, 587}";
}
);
background = {
anchors = (
{
name = bottom;
position = "{901, 0}";
},
{
name = ogonek;
position = "{966, 0}";
},
{
name = top;
position = "{1026, 587}";
},
{
name = topright;
position = "{1320, 587}";
}
);
paths = (
{
closed = 1;
nodes = (
"113 549 LINE",
"171 534 LINE",
"173 528 OFFCURVE",
"169 496 OFFCURVE",
"146 387 CURVE SMOOTH",
"111 221 LINE SMOOTH",
"80 75 OFFCURVE",
"149 -9 OFFCURVE",
"294 -9 CURVE SMOOTH",
"417 -9 OFFCURVE",
"526 67 OFFCURVE",
"561 235 CURVE SMOOTH",
"589 369 LINE SMOOTH",
"614 490 OFFCURVE",
"626 528 OFFCURVE",
"629 534 CURVE",
"693 549 LINE",
"699 587 LINE",
"500 587 LINE",
"490 549 LINE",
"557 534 LINE",
"559 528 OFFCURVE",
"554 490 OFFCURVE",
"529 369 CURVE SMOOTH",
"502 240 LINE SMOOTH",
"474 108 OFFCURVE",
"405 57 OFFCURVE",
"318 57 CURVE SMOOTH",
"226 57 OFFCURVE",
"174 107 OFFCURVE",
"200 233 CURVE",
"233 387 LINE",
"255 496 OFFCURVE",
"264 525 OFFCURVE",
"269 534 CURVE",
"333 549 LINE",
"339 587 LINE",
"123 587 LINE"
);
}
);
};
layerId = "720C727D-0ED9-429E-914E-55EB9E513E33";
paths = (
{
closed = 1;
nodes = (
"114 549 LINE",
"172 535 LINE",
"171 517 OFFCURVE",
"164 475 OFFCURVE",
"145 385 CURVE SMOOTH",
"112 229 LINE SMOOTH",
"81 80 OFFCURVE",
"150 -9 OFFCURVE",
"304 -9 CURVE SMOOTH",
"436 -9 OFFCURVE",
"527 72 OFFCURVE",
"558 225 CURVE SMOOTH",
"591 385 LINE SMOOTH",
"609 473 OFFCURVE",
"623 518 OFFCURVE",
"628 535 CURVE",
"692 549 LINE",
"698 587 LINE",
"501 587 LINE",
"491 549 LINE",
"558 535 LINE",
"557 517 OFFCURVE",
"550 475 OFFCURVE",
"531 385 CURVE SMOOTH",
"499 230 LINE SMOOTH",
"474 111 OFFCURVE",
"419 57 OFFCURVE",
"322 57 CURVE SMOOTH",
"214 57 OFFCURVE",
"174 120 OFFCURVE",
"202 249 CURVE SMOOTH",
"231 385 LINE SMOOTH",
"250 473 OFFCURVE",
"263 518 OFFCURVE",
"268 535 CURVE",
"332 549 LINE",
"338 587 LINE",
"124 587 LINE"
);
}
);
width = 666;
},
{
anchors = (
{
name = bottom;
position = "{334, 0}";
},
{
name = ogonek;
position = "{390, 0}";
},
{
name = top;
position = "{458, 587}";
},
{
name = topright;
position = "{747, 587}";
}
);
background = {
anchors = (
{
name = bottom;
position = "{834, 0}";
},
{
name = ogonek;
position = "{890, 0}";
},
{
name = top;
position = "{958, 587}";
},
{
name = topright;
position = "{1248, 587}";
}
);
paths = (
{
closed = 1;
nodes = (
"99 537 LINE",
"159 520 LINE",
"162 513 OFFCURVE",
"150 448 OFFCURVE",
"133 366 CURVE SMOOTH",
"108 247 LINE SMOOTH",
"74 83 OFFCURVE",
"148 -9 OFFCURVE",
"315 -9 CURVE SMOOTH",
"463 -9 OFFCURVE",
"573 89 OFFCURVE",
"608 248 CURVE SMOOTH",
"630 348 LINE SMOOTH",
"649 436 OFFCURVE",
"668 514 OFFCURVE",
"673 520 CURVE",
"741 537 LINE",
"748 587 LINE",
"523 587 LINE",
"510 537 LINE",
"576 520 LINE",
"579 514 OFFCURVE",
"566 436 OFFCURVE",
"547 348 CURVE SMOOTH",
"529 265 LINE SMOOTH",
"503 145 OFFCURVE",
"446 86 OFFCURVE",
"354 86 CURVE SMOOTH",
"260 86 OFFCURVE",
"225 147 OFFCURVE",
"250 264 CURVE",
"271 366 LINE",
"288 444 OFFCURVE",
"302 498 OFFCURVE",
"310 520 CURVE",
"378 537 LINE",
"385 587 LINE",
"112 587 LINE"
);
}
);
};
layerId = "DEDDD934-E4FE-4A27-B966-8C21F8A9BC34";
paths = (
{
closed = 1;
nodes = (
"100 537 LINE",
"161 521 LINE",
"159 500 OFFCURVE",
"150 450 OFFCURVE",
"133 368 CURVE SMOOTH",
"110 259 LINE SMOOTH",
"75 94 OFFCURVE",
"154 -9 OFFCURVE",
"322 -9 CURVE SMOOTH",
"471 -9 OFFCURVE",
"573 83 OFFCURVE",
"606 238 CURVE SMOOTH",
"634 368 LINE SMOOTH",
"651 448 OFFCURVE",
"666 506 OFFCURVE",
"672 521 CURVE",
"739 537 LINE",
"747 587 LINE",
"525 587 LINE",
"512 537 LINE",
"579 521 LINE",
"577 500 OFFCURVE",
"568 450 OFFCURVE",
"551 368 CURVE SMOOTH",
"525 245 LINE SMOOTH",
"501 132 OFFCURVE",
"445 86 OFFCURVE",
"359 86 CURVE SMOOTH",
"259 86 OFFCURVE",
"225 153 OFFCURVE",
"251 274 CURVE SMOOTH",
"271 368 LINE SMOOTH",
"288 448 OFFCURVE",
"303 506 OFFCURVE",
"309 521 CURVE",
"376 537 LINE",
"384 587 LINE",
"114 587 LINE"
);
}
);
width = 703;
}
);
leftKerningGroup = U;
note = U;
rightKerningGroup = U;
unicode = 0055;
},
{
glyphname = Uogonek;
lastChange = "2018-08-22 12:32:02 +0000";
layers = (
{
anchors = (
{
name = top;
position = "{426, 587}";
},
{
name = topright;
position = "{720, 587}";
}
);
background = {
paths = (
{
closed = 1;
nodes = (
"114 549 LINE",
"172 535 LINE",
"171 517 OFFCURVE",
"164 475 OFFCURVE",
"145 385 CURVE SMOOTH",
"112 229 LINE SMOOTH",
"81 80 OFFCURVE",
"150 -9 OFFCURVE",
"304 -9 CURVE SMOOTH",
"436 -9 OFFCURVE",
"527 72 OFFCURVE",
"558 225 CURVE SMOOTH",
"591 385 LINE SMOOTH",
"609 473 OFFCURVE",
"623 518 OFFCURVE",
"628 535 CURVE",
"692 549 LINE",
"698 587 LINE",
"501 587 LINE",
"491 549 LINE",
"558 535 LINE",
"557 517 OFFCURVE",
"550 475 OFFCURVE",
"531 385 CURVE SMOOTH",
"499 230 LINE SMOOTH",
"474 111 OFFCURVE",
"419 57 OFFCURVE",
"322 57 CURVE SMOOTH",
"214 57 OFFCURVE",
"174 120 OFFCURVE",
"202 249 CURVE SMOOTH",
"231 385 LINE SMOOTH",
"250 473 OFFCURVE",
"263 518 OFFCURVE",
"268 535 CURVE",
"332 549 LINE",
"338 587 LINE",
"124 587 LINE"
);
},
{
closed = 1;
nodes = (
"318 -223 OFFCURVE",
"359 -205 OFFCURVE",
"391 -173 CURVE",
"375 -146 LINE",
"349 -169 OFFCURVE",
"324 -181 OFFCURVE",
"300 -181 CURVE SMOOTH",
"269 -181 OFFCURVE",
"251 -165 OFFCURVE",
"251 -136 CURVE SMOOTH",
"251 -85 OFFCURVE",
"309 -33 OFFCURVE",
"374 0 CURVE",
"370 19 LINE",
"257 -20 OFFCURVE",
"179 -80 OFFCURVE",
"179 -147 CURVE SMOOTH",
"179 -190 OFFCURVE",
"213 -223 OFFCURVE",
"278 -223 CURVE SMOOTH"
);
}
);
};
layerId = "720C727D-0ED9-429E-914E-55EB9E513E33";
paths = (
{
closed = 1;
nodes = (
"491 549 LINE",
"558 535 LINE",
"557 517 OFFCURVE",
"550 475 OFFCURVE",
"531 385 CURVE SMOOTH",
"499 230 LINE SMOOTH",
"474 111 OFFCURVE",
"419 57 OFFCURVE",
"322 57 CURVE SMOOTH",
"214 57 OFFCURVE",
"174 120 OFFCURVE",
"202 249 CURVE SMOOTH",
"231 385 LINE SMOOTH",
"250 473 OFFCURVE",
"263 518 OFFCURVE",
"268 535 CURVE",
"332 549 LINE",
"338 587 LINE",
"124 587 LINE",
"114 549 LINE",
"172 535 LINE",
"171 517 OFFCURVE",
"164 475 OFFCURVE",
"145 385 CURVE SMOOTH",
"112 229 LINE SMOOTH",
"81 80 OFFCURVE",
"150 -9 OFFCURVE",
"305 -9 CURVE SMOOTH",
"317 -9 OFFCURVE",
"329 -8 OFFCURVE",
"342 -7 CURVE",
"339 7 LINE",
"243 -31 OFFCURVE",
"179 -86 OFFCURVE",
"179 -147 CURVE SMOOTH",
"179 -190 OFFCURVE",
"213 -223 OFFCURVE",
"278 -223 CURVE SMOOTH",
"318 -223 OFFCURVE",
"359 -205 OFFCURVE",
"391 -173 CURVE",
"375 -146 LINE",
"349 -169 OFFCURVE",
"324 -181 OFFCURVE",
"300 -181 CURVE SMOOTH",
"269 -181 OFFCURVE",
"251 -165 OFFCURVE",
"251 -136 CURVE SMOOTH",
"251 -85 OFFCURVE",
"309 -32 OFFCURVE",
"408 11 CURVE SMOOTH",
"484 44 OFFCURVE",
"536 116 OFFCURVE",
"558 225 CURVE SMOOTH",
"591 385 LINE SMOOTH",
"609 473 OFFCURVE",
"623 518 OFFCURVE",
"628 535 CURVE",
"692 549 LINE",
"698 587 LINE",
"501 587 LINE"
);
}
);
width = 666;
},
{
anchors = (
{
name = top;
position = "{458, 587}";
},
{
name = topright;
position = "{747, 587}";
}
);
background = {
paths = (
{
closed = 1;
nodes = (
"100 537 LINE",
"161 521 LINE",
"159 500 OFFCURVE",
"150 450 OFFCURVE",
"133 368 CURVE SMOOTH",
"110 259 LINE SMOOTH",
"75 94 OFFCURVE",
"154 -9 OFFCURVE",
"322 -9 CURVE SMOOTH",
"471 -9 OFFCURVE",
"573 83 OFFCURVE",
"606 238 CURVE SMOOTH",
"634 368 LINE SMOOTH",
"651 448 OFFCURVE",
"666 506 OFFCURVE",
"672 521 CURVE",
"739 537 LINE",
"747 587 LINE",
"525 587 LINE",
"512 537 LINE",
"579 521 LINE",
"577 500 OFFCURVE",
"568 450 OFFCURVE",
"551 368 CURVE SMOOTH",
"525 245 LINE SMOOTH",
"501 132 OFFCURVE",
"445 86 OFFCURVE",
"359 86 CURVE SMOOTH",
"259 86 OFFCURVE",
"225 153 OFFCURVE",
"251 274 CURVE SMOOTH",
"271 368 LINE SMOOTH",
"288 448 OFFCURVE",
"303 506 OFFCURVE",
"309 521 CURVE",
"376 537 LINE",
"384 587 LINE",
"114 587 LINE"
);
},
{
closed = 1;
nodes = (
"350 -223 OFFCURVE",
"391 -205 OFFCURVE",
"423 -173 CURVE",
"404 -134 LINE",
"379 -157 OFFCURVE",
"353 -168 OFFCURVE",
"331 -168 CURVE SMOOTH",
"306 -168 OFFCURVE",
"286 -154 OFFCURVE",
"286 -125 CURVE SMOOTH",
"286 -85 OFFCURVE",
"325 -42 OFFCURVE",
"399 0 CURVE",
"392 25 LINE",
"261 -16 OFFCURVE",
"187 -76 OFFCURVE",
"187 -137 CURVE SMOOTH",
"187 -189 OFFCURVE",
"238 -223 OFFCURVE",
"303 -223 CURVE SMOOTH"
);
}
);
};
layerId = "DEDDD934-E4FE-4A27-B966-8C21F8A9BC34";
paths = (
{
closed = 1;
nodes = (
"512 537 LINE",
"579 521 LINE",
"577 500 OFFCURVE",
"568 450 OFFCURVE",
"551 368 CURVE SMOOTH",
"525 245 LINE SMOOTH",
"501 132 OFFCURVE",
"445 86 OFFCURVE",
"359 86 CURVE SMOOTH",
"259 86 OFFCURVE",
"225 153 OFFCURVE",
"251 274 CURVE SMOOTH",
"271 368 LINE SMOOTH",
"288 448 OFFCURVE",
"303 506 OFFCURVE",
"309 521 CURVE",
"376 537 LINE",
"384 587 LINE",
"114 587 LINE",
"100 537 LINE",
"161 521 LINE",
"159 500 OFFCURVE",
"150 450 OFFCURVE",
"133 368 CURVE SMOOTH",
"110 259 LINE SMOOTH",
"74 94 OFFCURVE",
"155 -9 OFFCURVE",
"323 -9 CURVE SMOOTH",
"329 -9 OFFCURVE",
"343 -8 OFFCURVE",
"351 -7 CURVE",
"345 9 LINE",
"244 -31 OFFCURVE",
"187 -83 OFFCURVE",
"187 -137 CURVE SMOOTH",
"187 -189 OFFCURVE",
"238 -223 OFFCURVE",
"303 -223 CURVE SMOOTH",
"350 -223 OFFCURVE",
"391 -205 OFFCURVE",
"423 -173 CURVE",
"404 -134 LINE",
"379 -157 OFFCURVE",
"353 -168 OFFCURVE",
"331 -168 CURVE SMOOTH",
"306 -168 OFFCURVE",
"286 -154 OFFCURVE",
"286 -125 CURVE SMOOTH",
"286 -85 OFFCURVE",
"321 -37 OFFCURVE",
"444 16 CURVE SMOOTH",
"523 50 OFFCURVE",
"582 127 OFFCURVE",
"606 238 CURVE SMOOTH",
"634 368 LINE SMOOTH",
"651 448 OFFCURVE",
"666 506 OFFCURVE",
"672 521 CURVE",
"739 537 LINE",
"747 587 LINE",
"525 587 LINE"
);
}
);
width = 703;
}
);
leftKerningGroup = U;
leftMetricsKey = U;
widthMetricsKey = U;
note = Uogonek;
rightKerningGroup = U;
unicode = 0172;
},
{
glyphname = Uhorn;
lastChange = "2018-08-22 12:32:02 +0000";
layers = (
{
anchors = (
{
name = bottom;
position = "{301, 0}";
},
{
name = top;
position = "{427, 587}";
}
);
background = {
paths = (
{
closed = 1;
nodes = (
"621 538 LINE",
"708 543 OFFCURVE",
"778 590 OFFCURVE",
"792 653 CURVE SMOOTH",
"802 700 OFFCURVE",
"773 722 OFFCURVE",
"714 712 CURVE",
"702 661 LINE SMOOTH",
"687 602 OFFCURVE",
"667 587 OFFCURVE",
"602 587 CURVE"
);
},
{
closed = 1;
nodes = (
"114 549 LINE",
"172 535 LINE",
"171 517 OFFCURVE",
"164 475 OFFCURVE",
"145 385 CURVE SMOOTH",
"112 229 LINE SMOOTH",
"81 80 OFFCURVE",
"150 -9 OFFCURVE",
"304 -9 CURVE SMOOTH",
"436 -9 OFFCURVE",
"527 72 OFFCURVE",
"558 225 CURVE SMOOTH",
"591 385 LINE SMOOTH",
"609 473 OFFCURVE",
"623 518 OFFCURVE",
"628 535 CURVE",
"692 549 LINE",
"698 587 LINE",
"501 587 LINE",
"491 549 LINE",
"558 535 LINE",
"557 517 OFFCURVE",
"550 475 OFFCURVE",
"531 385 CURVE SMOOTH",
"499 230 LINE SMOOTH",
"474 111 OFFCURVE",
"419 57 OFFCURVE",
"322 57 CURVE SMOOTH",
"214 57 OFFCURVE",
"174 120 OFFCURVE",
"202 249 CURVE SMOOTH",
"231 385 LINE SMOOTH",
"250 473 OFFCURVE",
"263 518 OFFCURVE",
"268 535 CURVE",
"332 549 LINE",
"338 587 LINE",
"124 587 LINE"
);
}
);
};
layerId = "720C727D-0ED9-429E-914E-55EB9E513E33";
paths = (
{
closed = 1;
nodes = (
"702 661 LINE SMOOTH",
"687 602 OFFCURVE",
"667 587 OFFCURVE",
"592 587 CURVE SMOOTH",
"501 587 LINE",
"491 549 LINE",
"558 535 LINE",
"557 517 OFFCURVE",
"550 475 OFFCURVE",
"531 385 CURVE SMOOTH",
"499 230 LINE SMOOTH",
"474 111 OFFCURVE",
"419 57 OFFCURVE",
"322 57 CURVE SMOOTH",
"214 57 OFFCURVE",
"174 120 OFFCURVE",
"202 249 CURVE SMOOTH",
"231 385 LINE SMOOTH",
"250 473 OFFCURVE",
"263 518 OFFCURVE",
"268 535 CURVE",
"332 549 LINE",
"338 587 LINE",
"124 587 LINE",
"114 549 LINE",
"172 535 LINE",
"171 517 OFFCURVE",
"164 475 OFFCURVE",
"145 385 CURVE SMOOTH",
"112 229 LINE SMOOTH",
"81 80 OFFCURVE",
"150 -9 OFFCURVE",
"304 -9 CURVE SMOOTH",
"436 -9 OFFCURVE",
"527 72 OFFCURVE",
"558 225 CURVE SMOOTH",
"591 385 LINE SMOOTH",
"611 481 OFFCURVE",
"626 527 OFFCURVE",
"630 552 CURVE",
"611 537 LINE",
"691 537 OFFCURVE",
"794 590 OFFCURVE",
"794 671 CURVE SMOOTH",
"794 700 OFFCURVE",
"773 722 OFFCURVE",
"714 712 CURVE"
);
}
);
width = 666;
},
{
anchors = (
{
name = bottom;
position = "{334, 0}";
},
{
name = top;
position = "{458, 587}";
}
);
background = {
paths = (
{
closed = 1;
nodes = (
"464 -9 OFFCURVE",
"576 89 OFFCURVE",
"610 248 CURVE SMOOTH",
"631 348 LINE SMOOTH",
"653 452 OFFCURVE",
"668 514 OFFCURVE",
"679 544 CURVE",
"661 530 LINE",
"749 538 OFFCURVE",
"815 588 OFFCURVE",
"830 656 CURVE SMOOTH",
"841 709 OFFCURVE",
"807 730 OFFCURVE",
"728 720 CURVE",
"713 660 LINE SMOOTH",
"702 616 OFFCURVE",
"670 587 OFFCURVE",
"632 587 CURVE SMOOTH",
"525 587 LINE",
"511 537 LINE",
"578 520 LINE",
"580 514 OFFCURVE",
"567 436 OFFCURVE",
"548 348 CURVE SMOOTH",
"531 265 LINE SMOOTH",
"505 145 OFFCURVE",
"447 86 OFFCURVE",
"355 86 CURVE SMOOTH",
"261 86 OFFCURVE",
"226 147 OFFCURVE",
"251 264 CURVE",
"273 366 LINE",
"290 444 OFFCURVE",
"304 498 OFFCURVE",
"312 520 CURVE",
"379 537 LINE",
"387 587 LINE",
"114 587 LINE",
"100 537 LINE",
"161 520 LINE",
"163 513 OFFCURVE",
"152 448 OFFCURVE",
"135 366 CURVE SMOOTH",
"110 247 LINE SMOOTH",
"75 83 OFFCURVE",
"149 -9 OFFCURVE",
"316 -9 CURVE SMOOTH"
);
}
);
};
layerId = "DEDDD934-E4FE-4A27-B966-8C21F8A9BC34";
paths = (
{
closed = 1;
nodes = (
"713 660 LINE SMOOTH",
"702 616 OFFCURVE",
"670 587 OFFCURVE",
"612 587 CURVE SMOOTH",
"525 587 LINE",
"512 537 LINE",
"579 521 LINE",
"577 500 OFFCURVE",
"568 450 OFFCURVE",
"551 368 CURVE SMOOTH",
"525 245 LINE SMOOTH",
"501 132 OFFCURVE",
"445 86 OFFCURVE",
"359 86 CURVE SMOOTH",
"259 86 OFFCURVE",
"225 153 OFFCURVE",
"251 274 CURVE SMOOTH",
"271 368 LINE SMOOTH",
"288 448 OFFCURVE",
"303 506 OFFCURVE",
"309 521 CURVE",
"376 537 LINE",
"384 587 LINE",
"114 587 LINE",
"100 537 LINE",
"161 521 LINE",
"159 500 OFFCURVE",
"150 450 OFFCURVE",
"133 368 CURVE SMOOTH",
"110 259 LINE SMOOTH",
"75 94 OFFCURVE",
"154 -9 OFFCURVE",
"322 -9 CURVE SMOOTH",
"471 -9 OFFCURVE",
"573 83 OFFCURVE",
"606 238 CURVE SMOOTH",
"634 368 LINE SMOOTH",
"650 447 OFFCURVE",
"672 527 OFFCURVE",
"677 544 CURVE",
"646 530 LINE",
"739 530 OFFCURVE",
"832 591 OFFCURVE",
"832 676 CURVE SMOOTH",
"832 709 OFFCURVE",
"805 730 OFFCURVE",
"728 720 CURVE"
);
}
);
width = 703;
}
);
leftKerningGroup = U;
leftMetricsKey = U;
widthMetricsKey = U;
note = Uhorn;
rightKerningGroup = Uhorn;
unicode = 01AF;
},
{
glyphname = V;
lastChange = "2018-08-22 12:32:02 +0000";
layers = (
{
anchors = (
{
name = bottom;
position = "{242, 0}";
},
{
name = top;
position = "{367, 587}";
}
);
background = {
anchors = (
{
name = bottom;
position = "{242, 0}";
},
{
name = top;
position = "{367, 587}";
}
);
paths = (
{
closed = 1;
nodes = (
"265 -3 LINE",
"602 535 LINE",
"655 549 LINE",
"661 587 LINE",
"476 587 LINE",
"466 549 LINE",
"533 535 LINE",
"278 99 LINE",
"301 99 LINE",
"222 535 LINE",
"286 549 LINE",
"292 587 LINE",
"83 587 LINE",
"73 549 LINE",
"120 535 LINE",
"223 -3 LINE"
);
}
);
};
layerId = "720C727D-0ED9-429E-914E-55EB9E513E33";
paths = (
{
closed = 1;
nodes = (
"265 -3 LINE",
"602 535 LINE",
"655 549 LINE",
"661 587 LINE",
"473 587 LINE",
"463 549 LINE",
"530 535 LINE",
"275 99 LINE",
"298 99 LINE",
"219 535 LINE",
"283 549 LINE",
"289 587 LINE",
"83 587 LINE",
"73 549 LINE",
"120 535 LINE",
"223 -3 LINE"
);
}
);
width = 587;
},
{
anchors = (
{
name = bottom;
position = "{255, 0}";
},
{
name = top;
position = "{380, 587}";
}
);
background = {
paths = (
{
closed = 1;
nodes = (
"284 -3 LINE",
"632 520 LINE",
"688 538 LINE",
"696 587 LINE",
"489 587 LINE",
"475 537 LINE",
"541 520 LINE",
"308 134 LINE",
"349 134 LINE",
"266 520 LINE",
"332 537 LINE",
"340 587 LINE",
"75 587 LINE",
"61 538 LINE",
"109 520 LINE",
"230 -3 LINE"
);
}
);
};
layerId = "DEDDD934-E4FE-4A27-B966-8C21F8A9BC34";
paths = (
{
closed = 1;
nodes = (
"284 -3 LINE",
"632 520 LINE",
"688 538 LINE",
"696 587 LINE",
"482 587 LINE",
"468 537 LINE",
"534 520 LINE",
"301 134 LINE",
"342 134 LINE",
"259 520 LINE",
"325 537 LINE",
"333 587 LINE",
"75 587 LINE",
"61 538 LINE",
"109 520 LINE",
"230 -3 LINE"
);
}
);
width = 613;
}
);
leftKerningGroup = V;
note = V;
rightKerningGroup = V;
unicode = 0056;
},
{
glyphname = W;
lastChange = "2018-08-22 12:32:02 +0000";
layers = (
{
anchors = (
{
name = bottom;
position = "{426, 0}";
},
{
name = top;
position = "{551, 587}";
}
);
background = {
anchors = (
{
name = bottom;
position = "{426, 0}";
},
{
name = top;
position = "{551, 587}";
}
);
paths = (
{
closed = 1;
nodes = (
"521 520 LINE",
"273 99 LINE",
"297 99 LINE",
"227 536 LINE",
"280 549 LINE",
"286 587 LINE",
"88 587 LINE",
"78 549 LINE",
"125 535 LINE",
"219 -3 LINE",
"262 -3 LINE",
"534 439 LINE"
);
},
{
closed = 1;
nodes = (
"623 -3 LINE",
"953 535 LINE",
"1006 549 LINE",
"1012 587 LINE",
"827 587 LINE",
"817 549 LINE",
"884 535 LINE",
"633 99 LINE",
"657 99 LINE",
"589 536 LINE",
"653 549 LINE",
"659 587 LINE",
"452 587 LINE",
"442 549 LINE",
"489 535 LINE",
"580 -3 LINE"
);
}
);
};
layerId = "720C727D-0ED9-429E-914E-55EB9E513E33";
paths = (
{
closed = 1;
nodes = (
"518 520 LINE",
"270 99 LINE",
"294 99 LINE",
"224 536 LINE",
"277 549 LINE",
"283 587 LINE",
"88 587 LINE",
"78 549 LINE",
"125 535 LINE",
"219 -3 LINE",
"262 -3 LINE",
"534 439 LINE"
);
},
{
closed = 1;
nodes = (
"623 -3 LINE",
"953 535 LINE",
"1006 549 LINE",
"1012 587 LINE",
"824 587 LINE",
"814 549 LINE",
"881 535 LINE",
"630 99 LINE",
"654 99 LINE",
"586 536 LINE",
"650 549 LINE",
"656 587 LINE",
"452 587 LINE",
"442 549 LINE",
"489 535 LINE",
"580 -3 LINE"
);
}
);
width = 942;
},
{
anchors = (
{
name = bottom;
position = "{448, 0}";
},
{
name = top;
position = "{573, 587}";
}
);
background = {
anchors = (
{
name = bottom;
position = "{448, 0}";
},
{
name = top;
position = "{573, 587}";
}
);
paths = (
{
closed = 1;
nodes = (
"506 479 LINE",
"297 134 LINE",
"347 134 LINE",
"271 520 LINE",
"323 537 LINE",
"332 587 LINE",
"79 587 LINE",
"65 537 LINE",
"112 520 LINE",
"227 -3 LINE",
"281 -3 LINE",
"532 390 LINE"
);
},
{
closed = 1;
nodes = (
"652 -3 LINE",
"990 520 LINE",
"1044 537 LINE",
"1052 587 LINE",
"848 587 LINE",
"834 537 LINE",
"898 520 LINE",
"671 134 LINE",
"713 134 LINE",
"636 520 LINE",
"704 537 LINE",
"712 587 LINE",
"448 587 LINE",
"434 537 LINE",
"481 520 LINE",
"598 -3 LINE"
);
}
);
};
layerId = "DEDDD934-E4FE-4A27-B966-8C21F8A9BC34";
paths = (
{
closed = 1;
nodes = (
"505 489 LINE",
"290 134 LINE",
"340 134 LINE",
"264 520 LINE",
"316 537 LINE",
"325 587 LINE",
"79 587 LINE",
"65 537 LINE",
"112 520 LINE",
"227 -3 LINE",
"281 -3 LINE",
"532 390 LINE"
);
},
{
closed = 1;
nodes = (
"652 -3 LINE",
"990 520 LINE",
"1044 537 LINE",
"1052 587 LINE",
"841 587 LINE",
"827 537 LINE",
"891 520 LINE",
"664 134 LINE",
"706 134 LINE",
"629 520 LINE",
"697 537 LINE",
"705 587 LINE",
"448 587 LINE",
"434 537 LINE",
"481 520 LINE",
"598 -3 LINE"
);
}
);
width = 978;
}
);
leftKerningGroup = V;
note = W;
rightKerningGroup = V;
unicode = 0057;
},
{
glyphname = X;
lastChange = "2018-08-22 12:32:02 +0000";
layers = (
{
anchors = (
{
name = bottom;
position = "{243, 0}";
},
{
name = top;
position = "{367, 587}";
}
);
background = {
paths = (
{
closed = 1;
nodes = (
"541 38 LINE",
"494 53 LINE",
"252 535 LINE",
"316 549 LINE",
"322 587 LINE",
"109 587 LINE",
"99 549 LINE",
"142 535 LINE",
"385 53 LINE",
"321 38 LINE",
"315 0 LINE",
"531 0 LINE"
);
},
{
closed = 1;
nodes = (
"31 53 LINE",
"-22 38 LINE",
"-28 0 LINE",
"160 0 LINE",
"170 38 LINE",
"103 53 LINE",
"562 535 LINE",
"615 549 LINE",
"621 587 LINE",
"433 587 LINE",
"423 549 LINE",
"490 535 LINE"
);
}
);
};
layerId = "720C727D-0ED9-429E-914E-55EB9E513E33";
paths = (
{
closed = 1;
nodes = (
"541 38 LINE",
"494 53 LINE",
"358 322 LINE",
"335 368 LINE",
"253 535 LINE",
"317 549 LINE",
"323 587 LINE",
"110 587 LINE",
"100 549 LINE",
"143 535 LINE",
"263 296 LINE",
"288 250 LINE",
"385 53 LINE",
"321 38 LINE",
"315 0 LINE",
"531 0 LINE"
);
},
{
closed = 1;
nodes = (
"335 368 LINE",
"263 296 LINE",
"31 53 LINE",
"-22 38 LINE",
"-28 0 LINE",
"160 0 LINE",
"170 38 LINE",
"103 53 LINE",
"288 250 LINE",
"358 322 LINE",
"562 535 LINE",
"615 549 LINE",
"621 587 LINE",
"433 587 LINE",
"423 549 LINE",
"490 535 LINE"
);
}
);
width = 583;
},
{
anchors = (
{
name = bottom;
position = "{254, 0}";
},
{
name = top;
position = "{378, 587}";
}
);
background = {
anchors = (
{
name = bottom;
position = "{254, 0}";
},
{
name = top;
position = "{378, 587}";
}
);
paths = (
{
closed = 1;
nodes = (
"573 50 LINE",
"525 67 LINE",
"297 520 LINE",
"351 537 LINE",
"358 587 LINE",
"108 587 LINE",
"95 537 LINE",
"141 520 LINE",
"367 67 LINE",
"299 50 LINE",
"292 0 LINE",
"560 0 LINE"
);
},
{
closed = 1;
nodes = (
"40 67 LINE",
"-14 50 LINE",
"-21 0 LINE",
"190 0 LINE",
"203 50 LINE",
"143 67 LINE",
"579 520 LINE",
"633 537 LINE",
"640 587 LINE",
"443 587 LINE",
"430 537 LINE",
"476 520 LINE"
);
}
);
};
layerId = "DEDDD934-E4FE-4A27-B966-8C21F8A9BC34";
paths = (
{
closed = 1;
nodes = (
"573 50 LINE",
"525 67 LINE",
"391 330 LINE",
"358 395 LINE",
"298 520 LINE",
"352 537 LINE",
"359 587 LINE",
"108 587 LINE",
"95 537 LINE",
"141 520 LINE",
"255 292 LINE",
"290 225 LINE",
"367 67 LINE",
"299 50 LINE",
"292 0 LINE",
"560 0 LINE"
);
},
{
closed = 1;
nodes = (
"358 395 LINE",
"255 292 LINE",
"40 67 LINE",
"-14 50 LINE",
"-21 0 LINE",
"188 0 LINE",
"201 50 LINE",
"141 67 LINE",
"290 225 LINE",
"391 330 LINE",
"579 520 LINE",
"633 537 LINE",
"640 587 LINE",
"445 587 LINE",
"432 537 LINE",
"478 520 LINE"
);
}
);
width = 607;
}
);
leftKerningGroup = X;
note = X;
rightKerningGroup = X;
unicode = 0058;
},
{
glyphname = Y;
lastChange = "2018-08-22 12:32:02 +0000";
layers = (
{
anchors = (
{
name = bottom;
position = "{226, 0}";
},
{
name = top;
position = "{350, 587}";
},
{
name = topleft;
position = "{100, 587}";
}
);
background = {
anchors = (
{
name = bottom;
position = "{726, 0}";
},
{
name = top;
position = "{850, 587}";
},
{
name = topleft;
position = "{600, 587}";
}
);
paths = (
{
closed = 1;
nodes = (
"1114 549 LINE",
"1120 587 LINE",
"936 587 LINE",
"926 549 LINE",
"993 535 LINE",
"802 299 LINE",
"817 299 LINE",
"720 535 LINE",
"784 549 LINE",
"790 587 LINE",
"582 587 LINE",
"572 549 LINE",
"619 535 LINE",
"750 218 LINE",
"744 286 LINE",
"724 191 LINE SMOOTH",
"703 91 OFFCURVE",
"692 59 OFFCURVE",
"689 52 CURVE",
"616 39 LINE",
"610 0 LINE",
"842 0 LINE",
"852 39 LINE",
"785 52 LINE",
"784 59 OFFCURVE",
"787 91 OFFCURVE",
"808 191 CURVE SMOOTH",
"828 286 LINE",
"789 218 LINE",
"1061 535 LINE"
);
},
{
closed = 1;
nodes = (
"332 0 LINE",
"342 38 LINE",
"284 52 LINE",
"285 70 OFFCURVE",
"289 101 OFFCURVE",
"309 197 CURVE SMOOTH",
"349 385 LINE SMOOTH",
"368 473 OFFCURVE",
"381 518 OFFCURVE",
"386 535 CURVE",
"450 549 LINE",
"456 587 LINE",
"244 587 LINE",
"234 549 LINE",
"292 535 LINE",
"291 517 OFFCURVE",
"284 475 OFFCURVE",
"265 385 CURVE SMOOTH",
"225 197 LINE SMOOTH",
"206 109 OFFCURVE",
"197 71 OFFCURVE",
"191 52 CURVE",
"127 38 LINE",
"121 0 LINE"
);
}
);
};
layerId = "720C727D-0ED9-429E-914E-55EB9E513E33";
paths = (
{
closed = 1;
nodes = (
"614 549 LINE",
"620 587 LINE",
"433 587 LINE",
"423 549 LINE",
"490 535 LINE",
"299 299 LINE",
"314 299 LINE",
"217 535 LINE",
"281 549 LINE",
"287 587 LINE",
"82 587 LINE",
"72 549 LINE",
"119 535 LINE",
"250 218 LINE",
"244 286 LINE",
"225 197 LINE SMOOTH",
"206 109 OFFCURVE",
"197 71 OFFCURVE",
"191 52 CURVE",
"118 39 LINE",
"112 0 LINE",
"341 0 LINE",
"351 39 LINE",
"284 52 LINE",
"285 70 OFFCURVE",
"289 101 OFFCURVE",
"309 197 CURVE SMOOTH",
"328 286 LINE",
"289 218 LINE",
"561 535 LINE"
);
}
);
width = 542;
},
{
anchors = (
{
name = bottom;
position = "{246, 0}";
},
{
name = top;
position = "{370, 587}";
},
{
name = topleft;
position = "{99, 587}";
}
);
background = {
anchors = (
{
name = bottom;
position = "{946, 0}";
},
{
name = top;
position = "{1070, 587}";
},
{
name = topleft;
position = "{799, 587}";
}
);
paths = (
{
closed = 1;
nodes = (
"1346 537 LINE",
"1353 587 LINE",
"1154 587 LINE",
"1141 537 LINE",
"1207 520 LINE",
"1036 303 LINE",
"1060 303 LINE",
"979 520 LINE",
"1047 537 LINE",
"1054 587 LINE",
"788 587 LINE",
"775 537 LINE",
"821 520 LINE",
"949 181 LINE",
"938 283 LINE",
"917 183 LINE SMOOTH",
"907 137 OFFCURVE",
"892 75 OFFCURVE",
"887 67 CURVE",
"813 51 LINE",
"806 0 LINE",
"1087 0 LINE",
"1100 51 LINE",
"1034 67 LINE",
"1032 75 OFFCURVE",
"1043 137 OFFCURVE",
"1053 183 CURVE SMOOTH",
"1074 283 LINE",
"1007 181 LINE",
"1292 520 LINE"
);
},
{
closed = 1;
nodes = (
"380 0 LINE",
"394 50 LINE",
"334 67 LINE",
"337 90 OFFCURVE",
"346 144 OFFCURVE",
"362 221 CURVE SMOOTH",
"393 368 LINE SMOOTH",
"410 448 OFFCURVE",
"425 506 OFFCURVE",
"431 521 CURVE",
"498 537 LINE",
"506 587 LINE",
"237 587 LINE",
"223 537 LINE",
"284 521 LINE",
"282 500 OFFCURVE",
"273 450 OFFCURVE",
"256 368 CURVE SMOOTH",
"225 221 LINE SMOOTH",
"208 141 OFFCURVE",
"193 85 OFFCURVE",
"187 67 CURVE",
"119 50 LINE",
"111 0 LINE"
);
}
);
};
layerId = "DEDDD934-E4FE-4A27-B966-8C21F8A9BC34";
paths = (
{
closed = 1;
nodes = (
"646 537 LINE",
"653 587 LINE",
"447 587 LINE",
"434 537 LINE",
"500 520 LINE",
"329 303 LINE",
"353 303 LINE",
"272 520 LINE",
"340 537 LINE",
"347 587 LINE",
"88 587 LINE",
"75 537 LINE",
"121 520 LINE",
"249 181 LINE",
"238 283 LINE",
"225 221 LINE SMOOTH",
"215 175 OFFCURVE",
"193 85 OFFCURVE",
"187 67 CURVE",
"114 51 LINE",
"106 0 LINE",
"387 0 LINE",
"401 51 LINE",
"334 67 LINE",
"337 90 OFFCURVE",
"352 175 OFFCURVE",
"362 221 CURVE SMOOTH",
"375 283 LINE",
"307 181 LINE",
"592 520 LINE"
);
}
);
width = 586;
}
);
leftKerningGroup = Y;
note = Y;
rightKerningGroup = Y;
unicode = 0059;
},
{
glyphname = Z;
lastChange = "2018-08-22 12:32:02 +0000";
layers = (
{
anchors = (
{
name = bottom;
position = "{222, 0}";
},
{
name = top;
position = "{347, 587}";
}
);
background = {
anchors = (
{
name = bottom;
position = "{222, 0}";
},
{
name = top;
position = "{347, 587}";
}
);
paths = (
{
closed = 1;
nodes = (
"498 160 LINE",
"458 165 LINE",
"391 54 LINE",
"380 52 OFFCURVE",
"367 51 OFFCURVE",
"354 51 CURVE SMOOTH",
"119 51 LINE",
"111 17 LINE",
"553 553 LINE",
"561 589 LINE",
"536 588 OFFCURVE",
"510 587 OFFCURVE",
"485 587 CURVE SMOOTH",
"211 587 LINE SMOOTH",
"186 587 OFFCURVE",
"158 587 OFFCURVE",
"128 588 CURVE",
"96 434 LINE",
"139 434 LINE",
"174 535 LINE",
"192 538 OFFCURVE",
"211 539 OFFCURVE",
"240 539 CURVE SMOOTH",
"464 539 LINE",
"471 572 LINE",
"27 34 LINE",
"19 -2 LINE",
"45 -1 OFFCURVE",
"66 0 OFFCURVE",
"91 0 CURVE SMOOTH",
"343 0 LINE SMOOTH",
"374 0 OFFCURVE",
"407 -2 OFFCURVE",
"439 -4 CURVE"
);
}
);
};
layerId = "720C727D-0ED9-429E-914E-55EB9E513E33";
paths = (
{
closed = 1;
nodes = (
"498 160 LINE",
"456 165 LINE",
"389 54 LINE",
"378 52 OFFCURVE",
"365 51 OFFCURVE",
"352 51 CURVE SMOOTH",
"122 51 LINE",
"114 17 LINE",
"553 553 LINE",
"561 589 LINE",
"536 588 OFFCURVE",
"510 587 OFFCURVE",
"485 587 CURVE SMOOTH",
"211 587 LINE SMOOTH",
"186 587 OFFCURVE",
"158 587 OFFCURVE",
"128 588 CURVE",
"96 434 LINE",
"141 434 LINE",
"176 535 LINE",
"194 538 OFFCURVE",
"213 539 OFFCURVE",
"242 539 CURVE SMOOTH",
"461 539 LINE",
"468 572 LINE",
"27 34 LINE",
"19 -2 LINE",
"45 -1 OFFCURVE",
"66 0 OFFCURVE",
"91 0 CURVE SMOOTH",
"343 0 LINE SMOOTH",
"374 0 OFFCURVE",
"407 -2 OFFCURVE",
"439 -4 CURVE"
);
}
);
width = 534;
},
{
anchors = (
{
name = bottom;
position = "{227, 0}";
},
{
name = top;
position = "{352, 587}";
}
);
background = {
anchors = (
{
name = bottom;
position = "{227, 0}";
},
{
name = top;
position = "{352, 587}";
}
);
paths = (
{
closed = 1;
nodes = (
"526 174 LINE",
"467 182 LINE",
"400 68 LINE",
"382 65 OFFCURVE",
"370 64 OFFCURVE",
"354 64 CURVE SMOOTH",
"161 64 LINE",
"152 23 LINE",
"571 536 LINE",
"582 589 LINE",
"556 588 OFFCURVE",
"529 587 OFFCURVE",
"503 587 CURVE SMOOTH",
"217 587 LINE SMOOTH",
"192 587 OFFCURVE",
"150 587 OFFCURVE",
"118 589 CURVE",
"84 420 LINE",
"147 420 LINE",
"188 523 LINE",
"210 526 OFFCURVE",
"231 528 OFFCURVE",
"272 528 CURVE SMOOTH",
"439 528 LINE",
"448 571 LINE",
"22 50 LINE",
"10 -3 LINE",
"37 -1 OFFCURVE",
"64 0 OFFCURVE",
"91 0 CURVE SMOOTH",
"323 0 LINE SMOOTH",
"359 0 OFFCURVE",
"430 -4 OFFCURVE",
"458 -5 CURVE"
);
}
);
};
layerId = "DEDDD934-E4FE-4A27-B966-8C21F8A9BC34";
paths = (
{
closed = 1;
nodes = (
"526 174 LINE",
"464 182 LINE",
"397 68 LINE",
"379 65 OFFCURVE",
"367 64 OFFCURVE",
"351 64 CURVE SMOOTH",
"165 64 LINE",
"156 23 LINE",
"571 536 LINE",
"582 589 LINE",
"556 588 OFFCURVE",
"529 587 OFFCURVE",
"503 587 CURVE SMOOTH",
"217 587 LINE SMOOTH",
"192 587 OFFCURVE",
"150 587 OFFCURVE",
"118 589 CURVE",
"84 420 LINE",
"150 420 LINE",
"191 523 LINE",
"213 526 OFFCURVE",
"234 528 OFFCURVE",
"275 528 CURVE SMOOTH",
"435 528 LINE",
"444 571 LINE",
"22 50 LINE",
"10 -3 LINE",
"37 -1 OFFCURVE",
"64 0 OFFCURVE",
"91 0 CURVE SMOOTH",
"323 0 LINE SMOOTH",
"359 0 OFFCURVE",
"430 -4 OFFCURVE",
"458 -5 CURVE"
);
}
);
width = 551;
}
);
leftKerningGroup = Z;
note = Z;
rightKerningGroup = Z;
unicode = 005A;
},
{
glyphname = a;
lastChange = "2018-08-30 21:21:44 +0000";
layers = (
{
anchors = (
{
name = bottom;
position = "{200, 0}";
},
{
name = ogonek;
position = "{390, 0}";
},
{
name = top;
position = "{292, 430}";
}
);
background = {
paths = (
{
closed = 1;
nodes = (
"179 -8 OFFCURVE",
"280 110 OFFCURVE",
"346 285 CURVE",
"334 285 LINE",
"292 140 OFFCURVE",
"278 69 OFFCURVE",
"278 35 CURVE SMOOTH",
"278 8 OFFCURVE",
"291 -8 OFFCURVE",
"316 -8 CURVE SMOOTH",
"357 -8 OFFCURVE",
"413 33 OFFCURVE",
"463 95 CURVE",
"439 129 LINE",
"412 95 OFFCURVE",
"386 71 OFFCURVE",
"357 55 CURVE",
"357 110 OFFCURVE",
"399 287 OFFCURVE",
"444 430 CURVE",
"400 430 LINE",
"362 396 LINE",
"352 376 LINE",
"297 212 OFFCURVE",
"187 58 OFFCURVE",
"138 58 CURVE SMOOTH",
"125 58 OFFCURVE",
"118 79 OFFCURVE",
"118 113 CURVE SMOOTH",
"118 260 OFFCURVE",
"193 388 OFFCURVE",
"278 388 CURVE SMOOTH",
"309 388 OFFCURVE",
"340 379 OFFCURVE",
"362 355 CURVE",
"383 387 LINE",
"356 419 OFFCURVE",
"332 438 OFFCURVE",
"296 438 CURVE SMOOTH",
"174 438 OFFCURVE",
"31 282 OFFCURVE",
"31 95 CURVE SMOOTH",
"31 34 OFFCURVE",
"58 -8 OFFCURVE",
"105 -8 CURVE SMOOTH"
);
}
);
};
layerId = "720C727D-0ED9-429E-914E-55EB9E513E33";
paths = (
{
closed = 1;
nodes = (
"179 -8 OFFCURVE",
"280 110 OFFCURVE",
"346 285 CURVE",
"334 285 LINE",
"292 140 OFFCURVE",
"278 69 OFFCURVE",
"278 35 CURVE SMOOTH",
"278 8 OFFCURVE",
"291 -8 OFFCURVE",
"316 -8 CURVE SMOOTH",
"357 -8 OFFCURVE",
"413 33 OFFCURVE",
"463 95 CURVE",
"439 124 LINE",
"412 90 OFFCURVE",
"386 66 OFFCURVE",
"357 50 CURVE",
"357 110 OFFCURVE",
"399 287 OFFCURVE",
"444 430 CURVE",
"400 430 LINE",
"362 396 LINE",
"352 376 LINE",
"297 212 OFFCURVE",
"187 58 OFFCURVE",
"138 58 CURVE SMOOTH",
"125 58 OFFCURVE",
"118 79 OFFCURVE",
"118 113 CURVE SMOOTH",
"118 260 OFFCURVE",
"193 388 OFFCURVE",
"278 388 CURVE SMOOTH",
"309 388 OFFCURVE",
"340 379 OFFCURVE",
"362 355 CURVE",
"383 387 LINE",
"356 419 OFFCURVE",
"332 438 OFFCURVE",
"296 438 CURVE SMOOTH",
"174 438 OFFCURVE",
"31 282 OFFCURVE",
"31 95 CURVE SMOOTH",
"31 34 OFFCURVE",
"58 -8 OFFCURVE",
"105 -8 CURVE SMOOTH"
);
}
);
width = 491;
},
{
anchors = (
{
name = bottom;
position = "{226, 0}";
},
{
name = ogonek;
position = "{450, 0}";
},
{
name = top;
position = "{320, 440}";
}
);
background = {
paths = (
{
closed = 1;
nodes = (
"326 -8 OFFCURVE",
"452 130 OFFCURVE",
"452 289 CURVE SMOOTH",
"452 388 OFFCURVE",
"389 448 OFFCURVE",
"289 448 CURVE SMOOTH",
"152 448 OFFCURVE",
"26 310 OFFCURVE",
"26 151 CURVE SMOOTH",
"26 53 OFFCURVE",
"86 -8 OFFCURVE",
"189 -8 CURVE SMOOTH"
);
},
{
closed = 1;
nodes = (
"186 57 OFFCURVE",
"168 95 OFFCURVE",
"168 159 CURVE SMOOTH",
"168 283 OFFCURVE",
"209 387 OFFCURVE",
"265 387 CURVE SMOOTH",
"295 387 OFFCURVE",
"313 346 OFFCURVE",
"313 284 CURVE SMOOTH",
"313 157 OFFCURVE",
"271 57 OFFCURVE",
"217 57 CURVE SMOOTH"
);
}
);
};
layerId = "DEDDD934-E4FE-4A27-B966-8C21F8A9BC34";
paths = (
{
closed = 1;
nodes = (
"210 -8 OFFCURVE",
"304 107 OFFCURVE",
"366 290 CURVE",
"356 290 LINE",
"314 160 OFFCURVE",
"296 76 OFFCURVE",
"296 50 CURVE SMOOTH",
"296 12 OFFCURVE",
"315 -8 OFFCURVE",
"347 -8 CURVE SMOOTH",
"409 -8 OFFCURVE",
"487 53 OFFCURVE",
"537 123 CURVE",
"505 159 LINE",
"478 125 OFFCURVE",
"453 99 OFFCURVE",
"427 83 CURVE",
"427 142 OFFCURVE",
"478 328 OFFCURVE",
"515 440 CURVE",
"425 440 LINE",
"390 409 LINE",
"373 397 LINE",
"332 261 OFFCURVE",
"218 93 OFFCURVE",
"185 93 CURVE SMOOTH",
"172 93 OFFCURVE",
"165 110 OFFCURVE",
"165 139 CURVE SMOOTH",
"165 275 OFFCURVE",
"225 380 OFFCURVE",
"303 380 CURVE SMOOTH",
"331 380 OFFCURVE",
"359 374 OFFCURVE",
"380 352 CURVE",
"418 383 LINE",
"387 425 OFFCURVE",
"359 449 OFFCURVE",
"317 449 CURVE SMOOTH",
"183 449 OFFCURVE",
"23 296 OFFCURVE",
"23 107 CURVE SMOOTH",
"23 40 OFFCURVE",
"62 -8 OFFCURVE",
"120 -8 CURVE SMOOTH"
);
}
);
width = 546;
}
);
leftKerningGroup = a;
leftMetricsKey = a;
note = a;
rightKerningGroup = u;
rightMetricsKey = a;
unicode = 0061;
},
{
glyphname = aogonek;
lastChange = "2018-08-22 12:46:46 +0000";
layers = (
{
anchors = (
{
name = bottom;
position = "{200, 0}";
},
{
name = top;
position = "{292, 430}";
}
);
background = {
paths = (
{
closed = 1;
nodes = (
"334 -223 OFFCURVE",
"375 -205 OFFCURVE",
"407 -173 CURVE",
"391 -146 LINE",
"365 -169 OFFCURVE",
"340 -181 OFFCURVE",
"316 -181 CURVE SMOOTH",
"285 -181 OFFCURVE",
"267 -165 OFFCURVE",
"267 -140 CURVE SMOOTH",
"267 -100 OFFCURVE",
"295 -66 OFFCURVE",
"422 50 CURVE SMOOTH",
"435 62 OFFCURVE",
"454 83 OFFCURVE",
"463 95 CURVE",
"439 124 LINE",
"412 90 OFFCURVE",
"386 66 OFFCURVE",
"357 50 CURVE",
"357 110 OFFCURVE",
"399 287 OFFCURVE",
"444 430 CURVE",
"400 430 LINE",
"362 396 LINE",
"352 376 LINE",
"297 212 OFFCURVE",
"187 58 OFFCURVE",
"138 58 CURVE SMOOTH",
"125 58 OFFCURVE",
"118 79 OFFCURVE",
"118 113 CURVE SMOOTH",
"118 260 OFFCURVE",
"193 388 OFFCURVE",
"278 388 CURVE SMOOTH",
"309 388 OFFCURVE",
"340 379 OFFCURVE",
"362 355 CURVE",
"383 387 LINE",
"356 419 OFFCURVE",
"332 438 OFFCURVE",
"296 438 CURVE SMOOTH",
"174 438 OFFCURVE",
"31 282 OFFCURVE",
"31 95 CURVE SMOOTH",
"31 34 OFFCURVE",
"58 -8 OFFCURVE",
"105 -8 CURVE SMOOTH",
"179 -8 OFFCURVE",
"280 110 OFFCURVE",
"346 285 CURVE",
"334 285 LINE",
"292 140 OFFCURVE",
"278 69 OFFCURVE",
"278 35 CURVE SMOOTH",
"278 8 OFFCURVE",
"291 -8 OFFCURVE",
"316 -8 CURVE SMOOTH",
"333 -8 OFFCURVE",
"339 -4 OFFCURVE",
"356 2 CURVE",
"347 6 LINE",
"270 -27 OFFCURVE",
"195 -82 OFFCURVE",
"195 -147 CURVE SMOOTH",
"195 -190 OFFCURVE",
"229 -223 OFFCURVE",
"294 -223 CURVE SMOOTH"
);
}
);
};
layerId = "720C727D-0ED9-429E-914E-55EB9E513E33";
paths = (
{
closed = 1;
nodes = (
"334 -223 OFFCURVE",
"375 -205 OFFCURVE",
"407 -173 CURVE",
"391 -146 LINE",
"365 -169 OFFCURVE",
"340 -181 OFFCURVE",
"316 -181 CURVE SMOOTH",
"285 -181 OFFCURVE",
"267 -165 OFFCURVE",
"267 -138 CURVE SMOOTH",
"267 -100 OFFCURVE",
"296 -67 OFFCURVE",
"422 50 CURVE SMOOTH",
"435 62 OFFCURVE",
"454 83 OFFCURVE",
"463 95 CURVE",
"439 124 LINE",
"412 90 OFFCURVE",
"386 67 OFFCURVE",
"357 47 CURVE",
"357 109 OFFCURVE",
"399 287 OFFCURVE",
"444 430 CURVE",
"400 430 LINE",
"362 396 LINE",
"352 376 LINE",
"297 212 OFFCURVE",
"187 58 OFFCURVE",
"138 58 CURVE SMOOTH",
"125 58 OFFCURVE",
"118 79 OFFCURVE",
"118 113 CURVE SMOOTH",
"118 260 OFFCURVE",
"193 388 OFFCURVE",
"278 388 CURVE SMOOTH",
"309 388 OFFCURVE",
"340 379 OFFCURVE",
"362 355 CURVE",
"383 387 LINE",
"356 419 OFFCURVE",
"332 438 OFFCURVE",
"296 438 CURVE SMOOTH",
"174 438 OFFCURVE",
"31 282 OFFCURVE",
"31 95 CURVE SMOOTH",
"31 34 OFFCURVE",
"58 -8 OFFCURVE",
"105 -8 CURVE SMOOTH",
"179 -8 OFFCURVE",
"280 110 OFFCURVE",
"346 285 CURVE",
"334 285 LINE",
"292 140 OFFCURVE",
"278 69 OFFCURVE",
"278 35 CURVE SMOOTH",
"278 8 OFFCURVE",
"291 -8 OFFCURVE",
"316 -8 CURVE SMOOTH",
"333 -8 OFFCURVE",
"339 -4 OFFCURVE",
"356 2 CURVE",
"331 6 LINE",
"270 -27 OFFCURVE",
"195 -88 OFFCURVE",
"195 -147 CURVE SMOOTH",
"195 -190 OFFCURVE",
"229 -223 OFFCURVE",
"294 -223 CURVE SMOOTH"
);
}
);
width = 491;
},
{
anchors = (
{
name = bottom;
position = "{226, 0}";
},
{
name = top;
position = "{320, 440}";
}
);
background = {
paths = (
{
closed = 1;
nodes = (
"401 -223 OFFCURVE",
"442 -205 OFFCURVE",
"474 -173 CURVE",
"455 -134 LINE",
"430 -157 OFFCURVE",
"404 -168 OFFCURVE",
"382 -168 CURVE SMOOTH",
"357 -168 OFFCURVE",
"337 -154 OFFCURVE",
"337 -130 CURVE SMOOTH",
"337 -94 OFFCURVE",
"349 -73 OFFCURVE",
"493 71 CURVE SMOOTH",
"507 85 OFFCURVE",
"522 103 OFFCURVE",
"537 123 CURVE",
"505 159 LINE",
"478 125 OFFCURVE",
"453 99 OFFCURVE",
"427 83 CURVE",
"427 142 OFFCURVE",
"478 328 OFFCURVE",
"515 440 CURVE",
"425 440 LINE",
"390 409 LINE",
"373 397 LINE",
"332 261 OFFCURVE",
"218 93 OFFCURVE",
"185 93 CURVE SMOOTH",
"172 93 OFFCURVE",
"165 110 OFFCURVE",
"165 139 CURVE SMOOTH",
"165 275 OFFCURVE",
"225 380 OFFCURVE",
"303 380 CURVE SMOOTH",
"331 380 OFFCURVE",
"359 374 OFFCURVE",
"380 352 CURVE",
"418 383 LINE",
"387 425 OFFCURVE",
"359 449 OFFCURVE",
"317 449 CURVE SMOOTH",
"183 449 OFFCURVE",
"23 296 OFFCURVE",
"23 107 CURVE SMOOTH",
"23 40 OFFCURVE",
"62 -8 OFFCURVE",
"120 -8 CURVE SMOOTH",
"210 -8 OFFCURVE",
"304 107 OFFCURVE",
"366 290 CURVE",
"356 290 LINE",
"314 160 OFFCURVE",
"296 76 OFFCURVE",
"296 50 CURVE SMOOTH",
"296 12 OFFCURVE",
"315 -8 OFFCURVE",
"347 -8 CURVE SMOOTH",
"370 -8 OFFCURVE",
"399 2 OFFCURVE",
"411 10 CURVE",
"408 14 LINE",
"298 -26 OFFCURVE",
"238 -81 OFFCURVE",
"238 -137 CURVE SMOOTH",
"238 -189 OFFCURVE",
"289 -223 OFFCURVE",
"354 -223 CURVE SMOOTH"
);
}
);
};
layerId = "DEDDD934-E4FE-4A27-B966-8C21F8A9BC34";
paths = (
{
closed = 1;
nodes = (
"401 -223 OFFCURVE",
"442 -205 OFFCURVE",
"474 -173 CURVE",
"455 -134 LINE",
"430 -157 OFFCURVE",
"404 -168 OFFCURVE",
"382 -168 CURVE SMOOTH",
"357 -168 OFFCURVE",
"337 -154 OFFCURVE",
"337 -128 CURVE SMOOTH",
"337 -94 OFFCURVE",
"349 -73 OFFCURVE",
"493 71 CURVE SMOOTH",
"507 85 OFFCURVE",
"522 103 OFFCURVE",
"537 123 CURVE",
"505 159 LINE",
"478 125 OFFCURVE",
"453 100 OFFCURVE",
"427 80 CURVE",
"427 141 OFFCURVE",
"478 328 OFFCURVE",
"515 440 CURVE",
"425 440 LINE",
"390 409 LINE",
"373 397 LINE",
"332 261 OFFCURVE",
"218 93 OFFCURVE",
"185 93 CURVE SMOOTH",
"172 93 OFFCURVE",
"165 110 OFFCURVE",
"165 139 CURVE SMOOTH",
"165 275 OFFCURVE",
"225 380 OFFCURVE",
"303 380 CURVE SMOOTH",
"331 380 OFFCURVE",
"359 374 OFFCURVE",
"380 352 CURVE",
"418 383 LINE",
"387 425 OFFCURVE",
"359 449 OFFCURVE",
"317 449 CURVE SMOOTH",
"183 449 OFFCURVE",
"23 296 OFFCURVE",
"23 107 CURVE SMOOTH",
"23 40 OFFCURVE",
"62 -8 OFFCURVE",
"120 -8 CURVE SMOOTH",
"210 -8 OFFCURVE",
"304 107 OFFCURVE",
"366 290 CURVE",
"356 290 LINE",
"314 160 OFFCURVE",
"296 76 OFFCURVE",
"296 50 CURVE SMOOTH",
"296 12 OFFCURVE",
"315 -8 OFFCURVE",
"347 -8 CURVE SMOOTH",
"370 -8 OFFCURVE",
"399 2 OFFCURVE",
"411 10 CURVE",
"388 14 LINE",
"298 -26 OFFCURVE",
"238 -81 OFFCURVE",
"238 -137 CURVE SMOOTH",
"238 -189 OFFCURVE",
"289 -223 OFFCURVE",
"354 -223 CURVE SMOOTH"
);
}
);
width = 546;
}
);
leftKerningGroup = a;
leftMetricsKey = a;
widthMetricsKey = a;
note = aogonek;
rightKerningGroup = u;
rightMetricsKey = a;
unicode = 0105;
},
{
glyphname = ae;
lastChange = "2018-08-30 21:22:06 +0000";
layers = (
{
anchors = (
{
name = bottom;
position = "{262, 0}";
},
{
name = top;
position = "{354, 430}";
}
);
background = {
paths = (
{
closed = 1;
nodes = (
"976 -8 OFFCURVE",
"1029 16 OFFCURVE",
"1087 85 CURVE",
"1064 118 LINE",
"1039 77 OFFCURVE",
"993 51 OFFCURVE",
"964 51 CURVE SMOOTH",
"927 51 OFFCURVE",
"904 75 OFFCURVE",
"904 107 CURVE SMOOTH",
"904 139 OFFCURVE",
"923 161 OFFCURVE",
"974 171 CURVE SMOOTH",
"1207 217 LINE SMOOTH",
"1354 246 OFFCURVE",
"1394 301 OFFCURVE",
"1394 359 CURVE SMOOTH",
"1394 402 OFFCURVE",
"1361 438 OFFCURVE",
"1295 438 CURVE SMOOTH",
"1231 438 OFFCURVE",
"1170 403 OFFCURVE",
"1130 346 CURVE",
"1149 346 LINE",
"1145 409 OFFCURVE",
"1091 438 OFFCURVE",
"1033 438 CURVE",
"971 429 OFFCURVE",
"856 374 OFFCURVE",
"856 322 CURVE SMOOTH",
"856 290 OFFCURVE",
"900 285 OFFCURVE",
"934 294 CURVE",
"945 335 LINE SMOOTH",
"955 374 OFFCURVE",
"965 387 OFFCURVE",
"996 387 CURVE SMOOTH",
"1042 387 OFFCURVE",
"1089 351 OFFCURVE",
"1072 273 CURVE SMOOTH",
"1057 203 LINE SMOOTH",
"1030 75 OFFCURVE",
"1095 -8 OFFCURVE",
"1191 -8 CURVE SMOOTH",
"1252 -8 OFFCURVE",
"1319 30 OFFCURVE",
"1366 95 CURVE",
"1342 129 LINE",
"1302 75 OFFCURVE",
"1254 56 OFFCURVE",
"1222 56 CURVE SMOOTH",
"1171 56 OFFCURVE",
"1136 96 OFFCURVE",
"1136 166 CURVE SMOOTH",
"1136 299 OFFCURVE",
"1198 394 OFFCURVE",
"1268 394 CURVE SMOOTH",
"1293 394 OFFCURVE",
"1314 381 OFFCURVE",
"1314 348 CURVE SMOOTH",
"1314 297 OFFCURVE",
"1282 271 OFFCURVE",
"1210 257 CURVE SMOOTH",
"961 208 LINE SMOOTH",
"857 188 OFFCURVE",
"811 146 OFFCURVE",
"811 85 CURVE SMOOTH",
"811 32 OFFCURVE",
"863 -8 OFFCURVE",
"925 -8 CURVE SMOOTH"
);
},
{
closed = 1;
nodes = (
"452 -8 OFFCURVE",
"519 30 OFFCURVE",
"566 95 CURVE",
"542 129 LINE",
"502 75 OFFCURVE",
"454 56 OFFCURVE",
"422 56 CURVE SMOOTH",
"371 56 OFFCURVE",
"336 96 OFFCURVE",
"336 166 CURVE SMOOTH",
"336 299 OFFCURVE",
"398 394 OFFCURVE",
"468 394 CURVE SMOOTH",
"493 394 OFFCURVE",
"514 381 OFFCURVE",
"514 352 CURVE SMOOTH",
"514 296 OFFCURVE",
"448 249 OFFCURVE",
"323 201 CURVE",
"323 158 LINE",
"509 226 OFFCURVE",
"594 291 OFFCURVE",
"594 362 CURVE SMOOTH",
"594 402 OFFCURVE",
"561 438 OFFCURVE",
"495 438 CURVE SMOOTH",
"357 438 OFFCURVE",
"250 290 OFFCURVE",
"250 145 CURVE SMOOTH",
"250 50 OFFCURVE",
"311 -8 OFFCURVE",
"391 -8 CURVE SMOOTH"
);
}
);
};
layerId = "720C727D-0ED9-429E-914E-55EB9E513E33";
paths = (
{
closed = 1;
nodes = (
"176 -8 OFFCURVE",
"229 16 OFFCURVE",
"287 95 CURVE",
"264 118 LINE",
"239 77 OFFCURVE",
"193 51 OFFCURVE",
"161 51 CURVE SMOOTH",
"124 51 OFFCURVE",
"102 81 OFFCURVE",
"102 105 CURVE SMOOTH",
"102 139 OFFCURVE",
"120 161 OFFCURVE",
"174 172 CURVE SMOOTH",
"407 218 LINE SMOOTH",
"544 245 OFFCURVE",
"594 304 OFFCURVE",
"594 362 CURVE SMOOTH",
"594 402 OFFCURVE",
"561 438 OFFCURVE",
"495 438 CURVE SMOOTH",
"431 438 OFFCURVE",
"370 403 OFFCURVE",
"330 346 CURVE",
"349 346 LINE",
"346 401 OFFCURVE",
"291 438 OFFCURVE",
"233 438 CURVE",
"171 429 OFFCURVE",
"56 374 OFFCURVE",
"56 322 CURVE SMOOTH",
"56 290 OFFCURVE",
"100 285 OFFCURVE",
"134 294 CURVE",
"145 335 LINE SMOOTH",
"156 375 OFFCURVE",
"165 388 OFFCURVE",
"196 388 CURVE SMOOTH",
"242 388 OFFCURVE",
"288 351 OFFCURVE",
"272 273 CURVE SMOOTH",
"257 203 LINE SMOOTH",
"230 75 OFFCURVE",
"295 -8 OFFCURVE",
"391 -8 CURVE SMOOTH",
"452 -8 OFFCURVE",
"519 30 OFFCURVE",
"566 95 CURVE",
"542 129 LINE",
"502 75 OFFCURVE",
"454 56 OFFCURVE",
"422 56 CURVE SMOOTH",
"371 56 OFFCURVE",
"336 96 OFFCURVE",
"336 166 CURVE SMOOTH",
"336 299 OFFCURVE",
"398 394 OFFCURVE",
"468 394 CURVE SMOOTH",
"493 394 OFFCURVE",
"514 381 OFFCURVE",
"514 352 CURVE SMOOTH",
"514 301 OFFCURVE",
"472 268 OFFCURVE",
"410 256 CURVE SMOOTH",
"161 207 LINE SMOOTH",
"57 187 OFFCURVE",
"11 146 OFFCURVE",
"11 85 CURVE SMOOTH",
"11 46 OFFCURVE",
"56 -8 OFFCURVE",
"125 -8 CURVE SMOOTH"
);
}
);
width = 612;
},
{
anchors = (
{
name = bottom;
position = "{292, 0}";
},
{
name = top;
position = "{386, 440}";
}
);
background = {
paths = (
{
closed = 1;
nodes = (
"204 -8 OFFCURVE",
"259 17 OFFCURVE",
"325 92 CURVE",
"288 132 LINE",
"265 98 OFFCURVE",
"236 83 OFFCURVE",
"211 83 CURVE SMOOTH",
"181 83 OFFCURVE",
"163 104 OFFCURVE",
"163 130 CURVE SMOOTH",
"163 159 OFFCURVE",
"183 176 OFFCURVE",
"234 184 CURVE SMOOTH",
"469 221 LINE SMOOTH",
"591 240 OFFCURVE",
"661 289 OFFCURVE",
"661 359 CURVE SMOOTH",
"661 411 OFFCURVE",
"614 448 OFFCURVE",
"540 448 CURVE SMOOTH",
"468 448 OFFCURVE",
"403 413 OFFCURVE",
"360 350 CURVE",
"411 350 LINE",
"403 419 OFFCURVE",
"344 448 OFFCURVE",
"269 448 CURVE",
"215 441 OFFCURVE",
"63 377 OFFCURVE",
"63 315 CURVE SMOOTH",
"63 276 OFFCURVE",
"115 267 OFFCURVE",
"167 278 CURVE",
"185 340 LINE SMOOTH",
"193 369 OFFCURVE",
"203 377 OFFCURVE",
"220 377 CURVE SMOOTH",
"261 377 OFFCURVE",
"299 337 OFFCURVE",
"284 268 CURVE SMOOTH",
"272 212 LINE SMOOTH",
"245 88 OFFCURVE",
"303 -8 OFFCURVE",
"431 -8 CURVE SMOOTH",
"493 -8 OFFCURVE",
"575 28 OFFCURVE",
"636 111 CURVE",
"605 157 LINE",
"560 105 OFFCURVE",
"508 88 OFFCURVE",
"474 88 CURVE SMOOTH",
"431 88 OFFCURVE",
"403 117 OFFCURVE",
"403 179 CURVE SMOOTH",
"403 307 OFFCURVE",
"454 392 OFFCURVE",
"498 392 CURVE SMOOTH",
"514 392 OFFCURVE",
"531 381 OFFCURVE",
"531 351 CURVE SMOOTH",
"531 305 OFFCURVE",
"502 278 OFFCURVE",
"447 269 CURVE SMOOTH",
"187 228 LINE SMOOTH",
"73 210 OFFCURVE",
"19 164 OFFCURVE",
"19 100 CURVE SMOOTH",
"19 39 OFFCURVE",
"76 -8 OFFCURVE",
"148 -8 CURVE SMOOTH"
);
}
);
};
layerId = "DEDDD934-E4FE-4A27-B966-8C21F8A9BC34";
paths = (
{
closed = 1;
nodes = (
"206 -8 OFFCURVE",
"269 20 OFFCURVE",
"325 105 CURVE",
"288 132 LINE",
"268 96 OFFCURVE",
"238 83 OFFCURVE",
"213 83 CURVE SMOOTH",
"191 83 OFFCURVE",
"166 102 OFFCURVE",
"166 131 CURVE SMOOTH",
"166 155 OFFCURVE",
"183 173 OFFCURVE",
"220 179 CURVE SMOOTH",
"469 220 LINE SMOOTH",
"593 240 OFFCURVE",
"655 292 OFFCURVE",
"655 361 CURVE SMOOTH",
"655 412 OFFCURVE",
"610 448 OFFCURVE",
"535 448 CURVE SMOOTH",
"472 448 OFFCURVE",
"402 413 OFFCURVE",
"358 350 CURVE",
"407 350 LINE",
"399 419 OFFCURVE",
"344 448 OFFCURVE",
"269 448 CURVE",
"218 441 OFFCURVE",
"66 377 OFFCURVE",
"66 315 CURVE SMOOTH",
"66 276 OFFCURVE",
"118 267 OFFCURVE",
"170 278 CURVE",
"188 340 LINE SMOOTH",
"197 371 OFFCURVE",
"206 379 OFFCURVE",
"223 379 CURVE SMOOTH",
"261 379 OFFCURVE",
"299 337 OFFCURVE",
"284 268 CURVE SMOOTH",
"272 212 LINE SMOOTH",
"245 88 OFFCURVE",
"303 -8 OFFCURVE",
"431 -8 CURVE SMOOTH",
"493 -8 OFFCURVE",
"575 28 OFFCURVE",
"636 111 CURVE",
"605 157 LINE",
"560 105 OFFCURVE",
"508 88 OFFCURVE",
"474 88 CURVE SMOOTH",
"431 88 OFFCURVE",
"403 117 OFFCURVE",
"403 179 CURVE SMOOTH",
"403 307 OFFCURVE",
"450 392 OFFCURVE",
"498 392 CURVE SMOOTH",
"516 392 OFFCURVE",
"529 382 OFFCURVE",
"529 357 CURVE SMOOTH",
"529 311 OFFCURVE",
"502 275 OFFCURVE",
"447 266 CURVE SMOOTH",
"167 221 LINE SMOOTH",
"76 206 OFFCURVE",
"24 166 OFFCURVE",
"24 101 CURVE SMOOTH",
"24 46 OFFCURVE",
"81 -8 OFFCURVE",
"150 -8 CURVE SMOOTH"
);
}
);
width = 678;
}
);
leftKerningGroup = ae;
note = ae;
rightKerningGroup = e;
rightMetricsKey = "=e+1";
unicode = 00E6;
},
{
glyphname = b;
lastChange = "2018-08-30 21:22:13 +0000";
layers = (
{
anchors = (
{
name = bottom;
position = "{187, 0}";
},
{
name = top;
position = "{334, 660}";
}
);
background = {
paths = (
{
closed = 1;
nodes = (
"135 211 OFFCURVE",
"281 374 OFFCURVE",
"323 374 CURVE SMOOTH",
"338 374 OFFCURVE",
"348 353 OFFCURVE",
"348 317 CURVE SMOOTH",
"348 162 OFFCURVE",
"270 48 OFFCURVE",
"192 48 CURVE SMOOTH",
"162 48 OFFCURVE",
"135 71 OFFCURVE",
"135 109 CURVE SMOOTH"
);
},
{
closed = 1;
nodes = (
"36 67 OFFCURVE",
"81 -8 OFFCURVE",
"176 -8 CURVE SMOOTH",
"287 -8 OFFCURVE",
"435 146 OFFCURVE",
"435 335 CURVE SMOOTH",
"435 396 OFFCURVE",
"407 438 OFFCURVE",
"360 438 CURVE SMOOTH",
"291 438 OFFCURVE",
"178 338 OFFCURVE",
"110 160 CURVE",
"118 160 LINE",
"151 258 OFFCURVE",
"170 325 OFFCURVE",
"189 404 CURVE SMOOTH",
"223 547 LINE SMOOTH",
"229 572 OFFCURVE",
"241 620 OFFCURVE",
"257 680 CURVE",
"241 694 LINE",
"92 651 LINE",
"85 619 LINE",
"159 609 LINE",
"63 185 LINE SMOOTH"
);
}
);
};
layerId = "720C727D-0ED9-429E-914E-55EB9E513E33";
paths = (
{
closed = 1;
nodes = (
"135 211 OFFCURVE",
"281 374 OFFCURVE",
"323 374 CURVE SMOOTH",
"338 374 OFFCURVE",
"348 353 OFFCURVE",
"348 317 CURVE SMOOTH",
"348 162 OFFCURVE",
"270 48 OFFCURVE",
"188 48 CURVE SMOOTH",
"154 48 OFFCURVE",
"135 71 OFFCURVE",
"135 109 CURVE SMOOTH"
);
},
{
closed = 1;
nodes = (
"36 67 OFFCURVE",
"71 -8 OFFCURVE",
"173 -8 CURVE SMOOTH",
"274 -8 OFFCURVE",
"435 146 OFFCURVE",
"435 335 CURVE SMOOTH",
"435 396 OFFCURVE",
"407 438 OFFCURVE",
"360 438 CURVE SMOOTH",
"291 438 OFFCURVE",
"178 338 OFFCURVE",
"110 160 CURVE",
"118 160 LINE",
"151 258 OFFCURVE",
"170 325 OFFCURVE",
"189 404 CURVE SMOOTH",
"223 547 LINE SMOOTH",
"229 572 OFFCURVE",
"241 620 OFFCURVE",
"257 680 CURVE",
"241 694 LINE",
"92 651 LINE",
"86 622 LINE",
"160 612 LINE",
"63 185 LINE SMOOTH"
);
}
);
width = 466;
},
{
anchors = (
{
name = bottom;
position = "{220, 0}";
},
{
name = top;
position = "{366, 660}";
}
);
background = {
paths = (
{
closed = 1;
nodes = (
"190 198 OFFCURVE",
"310 349 OFFCURVE",
"345 349 CURVE SMOOTH",
"360 349 OFFCURVE",
"370 332 OFFCURVE",
"370 301 CURVE SMOOTH",
"370 168 OFFCURVE",
"305 72 OFFCURVE",
"240 72 CURVE SMOOTH",
"210 72 OFFCURVE",
"190 92 OFFCURVE",
"190 120 CURVE SMOOTH"
);
},
{
closed = 1;
nodes = (
"34 68 OFFCURVE",
"87 -8 OFFCURVE",
"204 -8 CURVE SMOOTH",
"333 -8 OFFCURVE",
"512 142 OFFCURVE",
"512 333 CURVE SMOOTH",
"512 400 OFFCURVE",
"472 448 OFFCURVE",
"411 448 CURVE SMOOTH",
"323 448 OFFCURVE",
"224 346 OFFCURVE",
"159 171 CURVE",
"167 171 LINE",
"201 270 OFFCURVE",
"222 339 OFFCURVE",
"239 403 CURVE SMOOTH",
"270 522 LINE SMOOTH",
"280 559 OFFCURVE",
"289 597 OFFCURVE",
"315 680 CURVE",
"291 698 LINE",
"90 648 LINE",
"81 604 LINE",
"155 594 LINE",
"63 194 LINE SMOOTH"
);
}
);
};
layerId = "DEDDD934-E4FE-4A27-B966-8C21F8A9BC34";
paths = (
{
closed = 1;
nodes = (
"190 198 OFFCURVE",
"310 349 OFFCURVE",
"345 349 CURVE SMOOTH",
"360 349 OFFCURVE",
"370 332 OFFCURVE",
"370 301 CURVE SMOOTH",
"370 168 OFFCURVE",
"305 72 OFFCURVE",
"240 72 CURVE SMOOTH",
"210 72 OFFCURVE",
"190 92 OFFCURVE",
"190 120 CURVE SMOOTH"
);
},
{
closed = 1;
nodes = (
"34 68 OFFCURVE",
"87 -8 OFFCURVE",
"204 -8 CURVE SMOOTH",
"333 -8 OFFCURVE",
"512 142 OFFCURVE",
"512 333 CURVE SMOOTH",
"512 400 OFFCURVE",
"472 448 OFFCURVE",
"411 448 CURVE SMOOTH",
"323 448 OFFCURVE",
"224 346 OFFCURVE",
"159 171 CURVE",
"167 171 LINE",
"201 270 OFFCURVE",
"222 339 OFFCURVE",
"239 403 CURVE SMOOTH",
"270 522 LINE SMOOTH",
"280 559 OFFCURVE",
"289 597 OFFCURVE",
"315 680 CURVE",
"291 698 LINE",
"90 648 LINE",
"81 607 LINE",
"155 597 LINE",
"63 194 LINE SMOOTH"
);
}
);
width = 534;
}
);
leftKerningGroup = b;
note = b;
rightKerningGroup = p;
unicode = 0062;
},
